<svg width="375" height="280" viewBox="0 0 375 280" fill="none" xmlns="http://www.w3.org/2000/svg">
<mask id="mask0_0_2499" style="mask-type:luminance" maskUnits="userSpaceOnUse" x="0" y="0" width="375" height="280">
<rect width="375" height="280" fill="white"/>
</mask>
<g mask="url(#mask0_0_2499)">
<ellipse cx="187.899" cy="140.4" rx="140.013" ry="139.907" fill="#FF7A28"/>
<ellipse cx="187.899" cy="140.4" rx="140.013" ry="139.907" fill="#FF7A28"/>
<mask id="mask1_0_2499" style="mask-type:luminance" maskUnits="userSpaceOnUse" x="47" y="0" width="281" height="281">
<ellipse cx="187.899" cy="140.4" rx="140.013" ry="139.907" fill="white"/>
</mask>
<g mask="url(#mask1_0_2499)">
<ellipse cx="187.899" cy="140.4" rx="140.013" ry="139.907" fill="#FF7A28"/>
<mask id="mask2_0_2499" style="mask-type:luminance" maskUnits="userSpaceOnUse" x="47" y="0" width="281" height="281">
<ellipse cx="187.899" cy="140.4" rx="140.013" ry="139.907" fill="white"/>
</mask>
<g mask="url(#mask2_0_2499)">
<rect x="56.1682" y="242.691" width="56.5858" height="37.3087" fill="white" stroke="#FECE80" stroke-width="2.70421"/>
<rect x="39.1663" y="197.711" width="56.5858" height="44.9802" fill="white" stroke="#FECE80" stroke-width="2.70421"/>
<rect x="60.386" y="198.318" width="14.2017" height="16.4468" fill="#FECE80"/>
</g>
<rect x="40.302" y="135.511" width="53.436" height="49.6162" fill="#FECE80"/>
<ellipse cx="66.1082" cy="155.435" rx="11.1624" ry="11.1485" fill="white"/>
<path d="M48.0938 177.566H64.0638" stroke="white" stroke-width="1.34715" stroke-linecap="round" stroke-linejoin="round"/>
<path d="M48.0938 172.047H75.8893" stroke="white" stroke-width="1.34715" stroke-linecap="round" stroke-linejoin="round"/>
<path d="M82.3547 141.637H90.6989" stroke="white" stroke-width="1.34715" stroke-linecap="round" stroke-linejoin="round"/>
</g>
<circle cx="53" cy="60" r="7" fill="#FFEED4"/>
<circle cx="35" cy="124" r="5" fill="#8EE04E"/>
<circle cx="264" cy="7" r="7" fill="#8EE04E"/>
<ellipse cx="336.73" cy="111.394" rx="2.40492" ry="2.4043" fill="#8EE04E"/>
<path fill-rule="evenodd" clip-rule="evenodd" d="M54.465 97.8932C56.2436 92.3138 58.3629 86.8863 60.7985 81.6351L96.9433 101.128H60.472L54.465 97.8932ZM170.107 101.128H133.636L96.9433 81.3696H133.47L170.107 101.128ZM206.799 101.128H243.271L206.634 81.3696H170.107L206.799 101.128ZM206.634 101.183C206.634 111.283 214.812 119.506 224.925 119.506C235.037 119.506 243.271 111.338 243.271 101.238V101.183H206.634ZM133.47 101.183C133.47 111.283 141.704 119.506 151.816 119.506C161.929 119.506 170.162 111.283 170.162 101.183H133.47ZM60.3062 101.183C60.3062 111.283 68.4846 119.506 78.6524 119.506C88.7649 119.506 96.9986 111.338 96.9986 101.183H60.3062Z" fill="#8EE04E"/>
<path fill-rule="evenodd" clip-rule="evenodd" d="M97.0537 101.128H133.525L96.8879 81.3696H60.3613L97.0537 101.128ZM170.217 101.128H206.689L170.052 81.3696H133.525L170.217 101.128ZM279.852 101.128H243.381L206.689 81.3696H243.215L279.852 101.128ZM261.562 119.451C251.449 119.506 243.215 111.283 243.215 101.183H279.852C279.852 111.283 271.674 119.451 261.562 119.451ZM188.398 119.506C178.23 119.506 170.052 111.283 170.052 101.183H206.744C206.744 111.338 198.51 119.506 188.398 119.506ZM115.566 119.175C105.398 119.341 97.0537 111.283 96.8879 101.183H133.58C133.415 111.062 125.457 119.01 115.566 119.175Z" fill="#1B7A00"/>
<path d="M306.216 93.0269L307.054 74.0415L291.12 84.1856L286.368 76.0889L303.141 67.4338L286.368 58.7787L291.12 50.682L307.054 61.0123L306.216 42.0269H315.534L314.695 61.0123L330.63 50.682L335.382 58.7787L318.423 67.4338L335.382 76.0889L330.63 84.1856L314.695 74.0415L315.534 93.0269H306.216Z" fill="#8EE04E"/>
<path d="M112.778 184.456L162.479 164.859L180.721 211.007L131.02 230.604L112.778 184.456Z" fill="#FECE80"/>
<ellipse cx="144.135" cy="193.517" rx="11.1624" ry="11.1485" fill="white"/>
<path d="M135.514 220.726L150.379 214.875" stroke="white" stroke-width="1.34715" stroke-linecap="round" stroke-linejoin="round"/>
<path d="M133.47 215.593L159.331 205.438" stroke="white" stroke-width="1.34715" stroke-linecap="round" stroke-linejoin="round"/>
<path d="M154.137 174.752L161.929 171.716" stroke="white" stroke-width="1.34715" stroke-linecap="round" stroke-linejoin="round"/>
<path d="M201.108 123.811C200.113 123.59 199.781 121.769 200.113 120.775C200.721 119.12 201.66 118.457 203.097 117.464C205.141 116.139 207.518 115.422 209.894 115.312C212.27 115.256 214.701 115.367 217.078 115.698C218.183 111.393 221.664 107.916 225.864 106.426C227.301 105.819 228.903 105.708 230.395 106.15C232.495 106.867 233.821 109.185 233.655 111.393C233.379 113.656 232.053 115.587 230.008 116.581C227.19 118.071 223.819 117.685 220.725 117.243C220.669 117.961 220.559 118.733 220.448 119.451C220.835 120.003 221.277 120.775 221.609 121.327C222.161 122.21 222.493 123.204 223.267 123.866C224.04 124.528 224.814 125.246 225.477 126.018C226.251 127.067 226.582 128.336 226.472 129.551L201.108 123.811Z" fill="#6A320F"/>
<path d="M219.509 155.49L209.894 178.339L176.793 183.748L169.499 182.368L173.478 191.916L162.205 193.848L157.287 200.746C157.287 200.746 160.768 202.844 164.802 197.766C164.802 197.766 176.075 201.298 180.385 198.539L215.364 195.117C218.514 194.786 221.388 193.02 222.99 190.26L236.142 167.853C236.087 167.853 222.272 165.48 219.509 155.49Z" fill="white"/>
<rect x="180.687" y="215.841" width="53.8816" height="62.8068" fill="white" stroke="#FECE80" stroke-width="2.70421"/>
<rect x="200.5" y="214.489" width="14.2017" height="16.4468" fill="#FECE80"/>
<path d="M281.51 253.729V266.203L295.933 270.507L307.316 267.03L305.051 253.729H281.51Z" fill="white"/>
<path d="M224.648 141.748C222.438 146.108 219.012 153.835 218.735 154.773C219.785 158.305 222.825 162.389 225.809 164.542C228.793 166.694 232.44 167.853 236.142 167.798C237.247 165.425 238.574 163.217 239.679 160.844" fill="#8EE04E"/>
<path d="M261.009 131.538L267.198 130.544V151.572L264.546 152.4L261.009 131.538Z" fill="white"/>
<path d="M209.065 116.581C204.479 117.188 200.721 118.623 200.224 123.535C199.726 128.447 199.56 138.823 204.644 138.989C209.728 139.154 215.309 135.125 215.309 135.125L226.196 148.04C226.196 148.04 232.55 145.611 232.053 134.739L221.498 125.246C221.554 125.191 222.106 114.815 209.065 116.581Z" fill="white"/>
<path d="M219.343 124.749C219.399 123.756 219.841 122.818 220.504 122.1C221.167 121.383 222.162 120.996 223.156 121.052C224.372 121.217 225.422 122.045 225.809 123.204C226.195 124.363 225.919 125.688 225.146 126.626C224.372 127.564 223.211 128.116 221.996 128.171" fill="white"/>
<path d="M328.978 208.749C331.41 207.314 334.56 209.356 335.72 211.95C336.88 214.544 336.825 217.469 337.654 220.119C339.091 225.141 343.235 228.783 346.496 232.868C349.203 236.234 351.469 242.195 350.916 246.776C350.806 247.714 349.866 248.376 348.927 248.266C348.651 248.21 348.374 248.1 348.153 247.935C346.44 246.665 344.009 244.844 342.738 243.795C338.151 239.987 333.51 236.179 328.923 232.371" fill="white"/>
<path d="M328.978 208.749C331.41 207.314 334.56 209.356 335.72 211.95C336.88 214.544 336.825 217.469 337.654 220.119C339.091 225.141 343.235 228.783 346.496 232.868C349.203 236.234 351.469 242.195 350.916 246.776C350.806 247.714 349.866 248.376 348.927 248.266C348.651 248.21 348.374 248.1 348.153 247.935C346.44 246.665 344.009 244.844 342.738 243.795C338.151 239.987 333.51 236.179 328.923 232.371" stroke="#FECE80" stroke-width="2.70421"/>
<path d="M205.086 118.789C206.247 118.954 207.297 119.672 207.849 120.72C208.402 121.714 209.01 123.149 210.336 123.149C211.331 123.149 212.104 122.266 213.099 122.1C213.928 121.99 214.701 122.266 215.309 122.873C215.917 123.425 216.47 124.032 216.967 124.639C217.464 125.191 218.238 125.687 218.901 125.467C219.399 125.191 219.841 124.749 220.006 124.253C220.559 123.149 221.112 121.99 220.946 120.831C220.78 119.837 220.172 118.954 219.343 118.347C218.514 117.795 217.575 117.354 216.58 117.078C213.983 116.195 211.275 115.808 208.512 116.029C205.805 116.25 203.207 117.354 201.218 119.285C200.721 119.727 200.334 120.279 200.113 120.886C199.837 121.769 200.5 121.935 200.666 121.659C202.102 119.23 203.981 118.678 205.086 118.789Z" fill="#6A320F"/>
<path d="M231.5 134.573L260.954 131.538L264.546 152.4C264.546 152.4 242.718 162.555 237.358 162.168C231.998 161.782 225.643 148.04 225.643 148.04C225.643 148.04 231.39 146.881 231.5 134.573Z" fill="#B9C6E4"/>
<path d="M256.478 145.391L265.153 163.99C266.424 166.639 266.259 169.73 264.711 172.213C257.97 183.086 239.513 210.846 237.468 211.288L228.24 200.691L246.034 166.197L237.468 153.393" fill="white"/>
<path d="M228.185 200.747C228.185 200.747 216.967 204.72 216.414 206.266C215.862 207.811 214.701 220.339 215.475 220.505C216.249 220.67 217.078 219.622 217.243 218.463C217.243 218.463 217.078 220.174 218.791 219.07C220.504 217.966 222.604 212.061 222.604 212.061C222.604 212.061 228.516 215.206 231.998 214.213C233.987 213.661 235.811 212.723 237.358 211.398" fill="white"/>
<path d="M217.354 211.454C217.354 211.454 206.357 217.635 205.915 216.145C205.473 214.655 216.414 206.266 216.414 206.266" fill="white"/>
<path d="M267.198 130.544C267.198 130.544 292.065 126.681 298.972 132.2C305.161 137.222 308.587 145.335 310.577 180.712C312.566 216.089 314.555 255.164 314.555 255.164H270.348L274.879 217.524L269.519 210.957C268.082 209.19 267.419 206.872 267.806 204.61L275.155 160.347L267.198 151.572V130.544Z" fill="#6A320F"/>
<path d="M274.824 217.524L278.747 155.49L269.519 210.957" fill="#121826"/>
<path d="M313.727 239.711L328.37 248.321L329.862 200.747L311.074 189.929" fill="#6A320F"/>
<path d="M314.556 191.916L321.131 244.071L313.727 239.711L311.074 189.929L314.556 191.916Z" fill="#121826"/>
<path opacity="0.4" d="M215.309 135.125L219.343 132.2L217.354 137.498L215.309 135.125Z" fill="#FF7A28"/>
<path opacity="0.4" d="M224.096 127.509C223.543 127.895 222.935 128.116 222.272 128.116L225.201 128.502L224.096 127.509Z" fill="#FF7A28"/>
<path d="M234.319 148.04C235.479 150.082 238.187 155.049 239.347 157.091C250.62 157.864 256.754 153.448 258.246 149.695L256.312 141.748" fill="#B9C6E4"/>
<path d="M210.115 121.383C208.181 120.499 206.302 121.272 205.086 123.038L210.115 121.383Z" fill="#6A320F"/>
<path d="M220.504 119.506C221.001 118.899 221.333 118.182 221.554 117.409C220.283 116.416 219.067 115.091 217.796 113.822C217.188 114.318 216.691 114.926 216.415 115.643C217.354 117.188 218.846 118.403 220.504 119.506Z" fill="white"/>
<path fill-rule="evenodd" clip-rule="evenodd" d="M246.255 166.583L250.178 165.59C250.344 165.535 250.399 165.369 250.399 165.259C250.399 165.148 250.178 165.038 250.068 165.038L246.144 166.032C245.757 166.087 245.923 166.639 246.255 166.583Z" stroke="#121826" stroke-linecap="round" stroke-linejoin="round"/>
<path fill-rule="evenodd" clip-rule="evenodd" d="M210.06 178.891L212.657 181.43C212.933 181.706 213.32 181.264 213.044 181.044L210.446 178.505C210.17 178.284 209.783 178.67 210.06 178.891Z" stroke="#121826" stroke-linecap="round" stroke-linejoin="round"/>
<path d="M278.747 259.635V263.719L259.241 272.108C258.688 272.329 258.301 272.936 258.301 273.543C258.301 274.426 259.02 275.088 259.849 275.088C259.904 275.088 259.904 275.088 259.959 275.088L308.422 272.77L306.764 265.816C306.764 265.816 294.994 270.342 290.849 267.472C286.705 264.602 283.113 258.641 278.747 259.635Z" fill="white" stroke="#FECE80" stroke-width="2.70421"/>
<path d="M221.333 125.357L223.819 123.259" stroke="#121826" stroke-linecap="round" stroke-linejoin="round"/>
<path d="M230.285 160.181C231.942 162.665 234.319 164.597 237.137 165.7C237.966 164.1 238.85 162.499 239.624 160.844L235.479 155.545L225.753 148.15C226.803 152.344 227.909 156.594 230.285 160.181Z" fill="#121826"/>
<path d="M231.5 134.573L260.954 131.538L264.546 152.4C264.546 152.4 242.718 162.555 237.358 162.168C231.998 161.782 225.643 148.04 225.643 148.04C225.643 148.04 231.39 146.881 231.5 134.573Z" fill="#8EE04E"/>
<path d="M258.246 149.695C258.246 149.695 256.036 138.271 256.533 138.547C257.03 138.823 264.545 152.4 264.545 152.4L260.677 154.166L258.246 149.695Z" fill="#121826"/>
<path d="M263.679 35.1753H167.914V62.9361H183.939L185.652 65.9164L187.863 69.7245C188.36 70.6076 189.52 70.9387 190.404 70.3868C190.681 70.2212 190.902 70.0005 191.068 69.7245L193.278 65.9164L194.991 62.9361H263.623L263.679 35.1753Z" fill="white" stroke="#FECE80" stroke-width="2.70421"/>
<path d="M185.597 41.5771C189.741 41.5771 193.057 44.9438 193.057 49.0279C193.057 53.1671 189.686 56.4786 185.597 56.4786C181.452 56.4786 178.137 53.1119 178.137 49.0279C178.082 44.9438 181.452 41.5771 185.597 41.5771Z" fill="#FF7A28"/>
<path d="M200.351 44.9991H246.272" stroke="#FF7A28" stroke-width="1.34715" stroke-linecap="round" stroke-linejoin="round"/>
<path d="M200.351 52.9464H223.726" stroke="#FF7A28" stroke-width="1.34715" stroke-linecap="round" stroke-linejoin="round"/>
<path d="M110.102 170.62C110.986 170.4 111.87 170.013 112.644 169.517C111.87 169.02 110.986 168.634 110.102 168.413C109.162 168.192 108.444 167.475 108.223 166.536C108.002 165.653 107.615 164.77 107.118 163.998C106.62 164.77 106.234 165.653 106.013 166.536C105.792 167.475 105.018 168.192 104.134 168.413C103.25 168.634 102.365 169.02 101.592 169.517C102.365 170.013 103.25 170.4 104.134 170.62C105.073 170.841 105.792 171.614 106.013 172.497C106.234 173.38 106.62 174.263 107.118 175.036C107.615 174.263 108.002 173.38 108.223 172.497C108.444 171.559 109.162 170.841 110.102 170.62Z" fill="#FFEED4"/>
<path d="M179.335 214.489L161.597 244.071" stroke="#FECE80" stroke-width="2.6943"/>
<path d="M217.243 219.015L218.901 210.184C218.956 209.743 219.288 209.356 219.73 209.246L225.643 207.646" stroke="#121826" stroke-linecap="round" stroke-linejoin="round"/>
<path opacity="0.4" d="M215.143 212.668L215.585 212.447C215.641 210.405 215.972 208.363 216.47 206.321V206.265C216.47 206.265 216.525 206.21 214.757 207.645L215.143 212.668Z" fill="#FF7A28"/>
<path opacity="0.4" d="M169.499 182.368V192.578L173.478 191.916L169.499 182.368Z" fill="#FF7A28"/>
<path d="M281.51 256.985L306.046 259.524L305.327 255.164H281.51V256.985Z" fill="#6A320F"/>
<path d="M24 32.3302H145.516C140.764 26.9216 132.751 24.9899 125.678 26.5352C122.141 23.6102 118.549 20.4091 115.013 17.4288C110.868 13.9518 106.668 10.4748 101.64 8.48797C96.6111 6.50112 90.5878 6.28036 86.1118 9.20545C81.6358 12.1305 79.4806 18.8086 82.5199 23.2238C79.8675 20.7403 69.3129 13.7311 62.4607 21.2922C60.5266 23.4446 60.7476 26.9768 58.7583 29.1292C55.7743 32.3302 46.4907 30.1778 42.1251 29.5707C29.1391 27.8046 31.5153 32.3302 24 32.3302Z" fill="#FFEED4"/>
<path d="M200.168 124.639L201.384 124.418C200.997 124.197 200.61 123.977 200.223 123.921C200.168 124.142 200.168 124.363 200.168 124.639Z" fill="#6A320F"/>
<path d="M200.058 125.908C200.444 126.019 200.776 126.295 200.942 126.626L199.947 128.337" fill="white"/>
<path d="M235.866 214.489L250.123 247.217" stroke="#FECE80" stroke-width="2.6943"/>
<path d="M331.244 208.308L333.841 236.51L328.868 232.426L329.586 208.473L331.244 208.308Z" fill="#6A320F"/>
</g>
</svg>
