<svg width="216" height="48" viewBox="0 0 216 48" fill="none" xmlns="http://www.w3.org/2000/svg">
<mask id="mask0_0_5" style="mask-type:luminance" maskUnits="userSpaceOnUse" x="0" y="0" width="48" height="48">
<rect width="48" height="48" fill="white"/>
</mask>
<g mask="url(#mask0_0_5)">
<path fill-rule="evenodd" clip-rule="evenodd" d="M6 24C6 14.0589 14.0589 6 24 6C33.9411 6 42 14.0589 42 24C42 33.9411 33.9411 42 24 42C14.0589 42 6 33.9411 6 24ZM34 24C34 18.4772 29.5228 14 24 14C18.4772 14 14 18.4772 14 24C14 29.5228 18.4772 34 24 34C29.5228 34 34 29.5228 34 24Z" fill="white"/>
</g>
<path fill-rule="evenodd" clip-rule="evenodd" d="M58.2987 37.4286C59.5683 37.4286 60.5974 36.3994 60.5974 35.1299V26H67.9644C69.2268 26 70.2501 24.9767 70.2501 23.7143V23.7143C70.2501 22.4519 69.2268 21.4286 67.9644 21.4286H60.5974V14.5905H70.244C71.5117 14.5905 72.5393 13.5629 72.5393 12.2952V12.2952C72.5393 11.0276 71.5117 10 70.244 10H56.1638C56.0733 10 56 10.0733 56 10.1638V35.1299C56 36.3994 57.0292 37.4286 58.2987 37.4286V37.4286ZM82.3806 38C84.4409 38 86.2404 37.5397 87.7792 36.619C89.3181 35.6984 90.5167 34.4222 91.3751 32.7905C92.2336 31.1587 92.6628 29.2762 92.6628 27.1429C92.6628 25.0222 92.2368 23.146 91.3847 21.5143C90.5326 19.8825 89.3371 18.6032 87.7983 17.6762C86.2595 16.7492 84.4536 16.2857 82.3806 16.2857C80.3585 16.2857 78.578 16.7429 77.0392 17.6571C75.5004 18.5714 74.2985 19.8413 73.4337 21.4667C72.569 23.0921 72.1366 24.9841 72.1366 27.1429C72.1366 29.2635 72.5594 31.1397 73.4051 32.7714C74.2509 34.4032 75.4431 35.6825 76.982 36.6095C78.5208 37.5365 80.3203 38 82.3806 38ZM82.3806 33.6952C80.6129 33.6952 79.2743 33.1016 78.365 31.9143C77.4557 30.727 77.001 29.1365 77.001 27.1429C77.001 25.8476 77.1918 24.7079 77.5733 23.7238C77.9549 22.7397 78.5431 21.9714 79.3379 21.419C80.1328 20.8667 81.147 20.5905 82.3806 20.5905C84.1865 20.5905 85.5409 21.1841 86.4439 22.3714C87.3468 23.5587 87.7983 25.1492 87.7983 27.1429C87.7983 29.073 87.3532 30.6476 86.463 31.8667C85.5727 33.0857 84.2119 33.6952 82.3806 33.6952ZM103.839 38C105.9 38 107.699 37.5397 109.238 36.619C110.777 35.6984 111.976 34.4222 112.834 32.7905C113.692 31.1587 114.122 29.2762 114.122 27.1429C114.122 25.0222 113.696 23.146 112.844 21.5143C111.991 19.8825 110.796 18.6032 109.257 17.6762C107.718 16.7492 105.912 16.2857 103.839 16.2857C101.817 16.2857 100.037 16.7429 98.4981 17.6571C96.9592 18.5714 95.7574 19.8413 94.8926 21.4667C94.0278 23.0921 93.5954 24.9841 93.5954 27.1429C93.5954 29.2635 94.0183 31.1397 94.864 32.7714C95.7097 34.4032 96.902 35.6825 98.4408 36.6095C99.9797 37.5365 101.779 38 103.839 38ZM103.839 33.6952C102.072 33.6952 100.733 33.1016 99.8239 31.9143C98.9146 30.727 98.4599 29.1365 98.4599 27.1429C98.4599 25.8476 98.6507 24.7079 99.0322 23.7238C99.4138 22.7397 100.002 21.9714 100.797 21.419C101.592 20.8667 102.606 20.5905 103.839 20.5905C105.645 20.5905 107 21.1841 107.903 22.3714C108.806 23.5587 109.257 25.1492 109.257 27.1429C109.257 29.073 108.812 30.6476 107.922 31.8667C107.032 33.0857 105.671 33.6952 103.839 33.6952ZM124.459 38C126.468 38 128.153 37.5238 129.514 36.5714C129.665 36.4656 129.812 36.3555 129.955 36.2412L130.335 35.9175V35.9684C130.335 37.0904 131.244 38 132.366 38V38C133.488 38 134.398 37.0904 134.398 35.9684V12.3178C134.398 11.0377 133.36 10 132.08 10V10C130.8 10 129.762 11.0377 129.762 12.3178V17.8603L129.562 17.7048C128.366 16.8533 126.915 16.385 125.209 16.2999L124.631 16.2857C122.685 16.2857 120.993 16.7587 119.556 17.7048C118.119 18.6508 117.01 19.9397 116.228 21.5714C115.445 23.2032 115.054 25.0603 115.054 27.1429C115.054 29.2 115.442 31.0476 116.218 32.6857C116.994 34.3238 118.087 35.619 119.499 36.5714C120.911 37.5238 122.564 38 124.459 38ZM125.165 33.8857C123.969 33.8857 122.984 33.5873 122.208 32.9905C121.432 32.3936 120.857 31.5841 120.482 30.5619C120.106 29.5397 119.919 28.4 119.919 27.1429C119.919 25.8984 120.11 24.7651 120.491 23.7429C120.873 22.7206 121.464 21.9079 122.265 21.3048C123.066 20.7016 124.084 20.4 125.317 20.4C126.487 20.4 127.441 20.6825 128.179 21.2476C128.917 21.8127 129.46 22.6 129.81 23.6095C130.16 24.619 130.335 25.7968 130.335 27.1429C130.335 28.4762 130.16 29.6508 129.81 30.6667C129.46 31.6825 128.907 32.473 128.15 33.0381C127.394 33.6032 126.398 33.8857 125.165 33.8857ZM147.52 38C149.415 38 151.069 37.5238 152.48 36.5714C153.892 35.619 154.986 34.3238 155.761 32.6857C156.537 31.0476 156.925 29.2 156.925 27.1429C156.925 25.0603 156.531 23.2032 155.742 21.5714C154.954 19.9397 153.844 18.6508 152.413 17.7048C150.983 16.7587 149.294 16.2857 147.349 16.2857C145.39 16.2857 143.746 16.7587 142.417 17.7048L142.217 17.8582V12.3178C142.217 11.0377 141.179 10 139.899 10V10C138.619 10 137.581 11.0377 137.581 12.3178V35.9684C137.581 37.0904 138.491 38 139.613 38V38C140.735 38 141.645 37.0904 141.645 35.9684V35.9175L142.024 36.2412L142.465 36.5714C143.826 37.5238 145.511 38 147.52 38ZM146.814 33.8857C145.581 33.8857 144.586 33.6032 143.829 33.0381C143.072 32.473 142.519 31.6825 142.169 30.6667C141.82 29.6508 141.645 28.4762 141.645 27.1429C141.645 25.7968 141.82 24.619 142.169 23.6095C142.519 22.6 143.063 21.8127 143.8 21.2476C144.538 20.6825 145.492 20.4 146.662 20.4C147.895 20.4 148.913 20.7016 149.714 21.3048C150.515 21.9079 151.107 22.7206 151.488 23.7429C151.87 24.7651 152.061 25.8984 152.061 27.1429C152.061 28.4 151.873 29.5397 151.498 30.5619C151.123 31.5841 150.547 32.3936 149.771 32.9905C148.996 33.5873 148.01 33.8857 146.814 33.8857ZM164.763 38C166.62 38 168.168 37.654 169.408 36.9619C170.235 36.5005 170.992 35.8628 171.681 35.0487L171.991 34.6624L171.992 35.4168C171.993 36.5281 172.894 37.4286 174.005 37.4286V37.4286C175.117 37.4286 176.018 36.5272 176.018 35.4152V24.8C176.018 23.9111 175.98 23.0889 175.904 22.3333C175.828 21.5778 175.605 20.8381 175.236 20.1143C174.562 18.7556 173.529 17.7778 172.136 17.181C170.744 16.5841 169.132 16.2857 167.3 16.2857C164.871 16.2857 162.941 16.8127 161.511 17.8667C160.929 18.2952 160.339 19.0682 159.844 19.8346C159.114 20.9662 159.748 22.416 161.033 22.8186V22.8186C162.056 23.1389 163.131 22.6533 163.822 21.8337C164.073 21.5359 164.346 21.2752 164.611 21.1429C165.475 20.7111 166.372 20.4952 167.3 20.4952C168.839 20.4952 169.933 20.8317 170.582 21.5048C171.086 22.0282 171.391 22.7783 171.495 23.755L171.51 23.964L170.408 24.1249L169.084 24.3143C167.781 24.4984 166.572 24.6984 165.46 24.9143C164.347 25.1302 163.377 25.3714 162.55 25.6381C161.457 26.0063 160.566 26.4794 159.88 27.0571C159.193 27.6349 158.684 28.3206 158.354 29.1143C158.023 29.9079 157.858 30.8 157.858 31.7905C157.858 32.9206 158.122 33.9556 158.649 34.8952C159.177 35.8349 159.956 36.5873 160.986 37.1524C162.016 37.7175 163.275 38 164.763 38ZM165.679 34.3429C164.954 34.3429 164.347 34.2286 163.857 34C163.368 33.7714 162.996 33.4635 162.741 33.0762C162.487 32.6889 162.36 32.2413 162.36 31.7333C162.36 31.2889 162.458 30.9016 162.655 30.5714C162.852 30.2413 163.135 29.9492 163.504 29.6952C163.873 29.4413 164.325 29.219 164.859 29.0286C165.406 28.8508 166.035 28.6889 166.747 28.5429C167.459 28.3968 168.312 28.2413 169.303 28.0762C169.799 27.9936 170.345 27.9048 170.939 27.8095L171.451 27.7291L171.442 28.0857C171.438 28.214 171.434 28.3479 171.429 28.4876L171.411 28.9238C171.38 29.6794 171.243 30.3492 171.001 30.9333C170.849 31.4032 170.553 31.9048 170.114 32.4381C169.675 32.9714 169.087 33.4222 168.35 33.7905C167.612 34.1587 166.722 34.3429 165.679 34.3429ZM186.814 38C189.472 38 191.554 37.4095 193.061 36.2286C194.568 35.0476 195.322 33.4222 195.322 31.3524C195.322 30.2857 195.102 29.3778 194.664 28.6286C194.225 27.8794 193.513 27.2349 192.527 26.6952C191.541 26.1556 190.228 25.6762 188.588 25.2571C186.985 24.8508 185.78 24.5079 184.973 24.2286C184.165 23.9492 183.628 23.6698 183.361 23.3905C183.094 23.1111 182.96 22.7746 182.96 22.381C182.96 21.6825 183.291 21.1397 183.952 20.7524C184.613 20.3651 185.485 20.2032 186.566 20.2667C187.697 20.3302 188.604 20.6159 189.284 21.1238C189.364 21.1834 189.441 21.2577 189.516 21.3422C190.314 22.2459 191.359 23.0423 192.546 22.8304V22.8304C193.951 22.5794 194.877 21.1436 194.221 19.8751C194.075 19.5921 193.919 19.3364 193.757 19.1429C192.994 18.2286 191.993 17.5238 190.753 17.0286C189.513 16.5333 188.092 16.2857 186.489 16.2857C184.849 16.2857 183.424 16.5429 182.216 17.0571C181.008 17.5714 180.067 18.3048 179.393 19.2571C178.719 20.2095 178.382 21.327 178.382 22.6095C178.382 23.6381 178.604 24.5143 179.049 25.2381C179.495 25.9619 180.226 26.5873 181.243 27.1143C182.261 27.6413 183.634 28.1333 185.364 28.5905C186.915 28.9968 188.066 29.3333 188.817 29.6C189.567 29.8667 190.053 30.1429 190.276 30.4286C190.498 30.7143 190.61 31.0921 190.61 31.5619C190.61 32.3238 190.308 32.9238 189.704 33.3619C189.1 33.8 188.244 34.019 187.138 34.019C185.879 34.019 184.836 33.727 184.009 33.1429C183.761 32.9677 183.518 32.6818 183.299 32.3673C182.675 31.4714 181.652 30.8593 180.573 31.0257V31.0257C179.089 31.2545 178.182 32.7845 178.908 34.0984C179.388 34.9679 179.978 35.829 180.614 36.2857C182.203 37.4286 184.27 38 186.814 38ZM213.843 28.419C215.078 28.419 216.072 27.4036 215.978 26.1716C215.868 24.737 215.661 22.9705 215.273 22C214.549 20.1841 213.439 18.7778 211.945 17.781C210.45 16.7841 208.635 16.2857 206.498 16.2857C204.476 16.2857 202.696 16.7429 201.157 17.6571C199.618 18.5714 198.416 19.8571 197.551 21.5143C196.687 23.1714 196.254 25.1238 196.254 27.3714C196.254 29.454 196.696 31.2952 197.58 32.8952C198.464 34.4952 199.694 35.746 201.271 36.6476C202.848 37.5492 204.68 38 206.765 38C208.749 38 210.565 37.4857 212.212 36.4571C212.809 36.0838 213.455 35.4119 214.034 34.7073C215.05 33.4713 214.371 31.682 212.839 31.2193V31.2193C211.917 30.9409 210.918 31.2289 210.286 31.9551L209.929 32.365C209.599 32.7451 209.186 33.0475 208.71 33.2119C208.084 33.4279 207.173 33.6952 206.498 33.6952C204.743 33.6952 203.408 33.1238 202.492 31.981C201.826 31.1498 201.403 30.0701 201.221 28.7419L201.184 28.419H213.843V28.419ZM211.424 24.9524H201.297L201.357 24.6286C201.548 23.7347 201.853 22.9749 202.273 22.3493L202.492 22.0476C203.408 20.8857 204.807 20.3048 206.689 20.3048C208.355 20.3048 209.576 20.819 210.352 21.8476C210.869 22.5333 211.217 23.4871 211.395 24.709L211.424 24.9524Z" fill="white"/>
</svg>
