<svg width="223" height="132" viewBox="0 0 223 132" fill="none" xmlns="http://www.w3.org/2000/svg">
<rect width="223" height="132" rx="24" fill="white"/>
<mask id="mask0_0_2088" style="mask-type:luminance" maskUnits="userSpaceOnUse" x="0" y="0" width="223" height="132">
<rect width="223" height="132" rx="24" fill="white"/>
</mask>
<g mask="url(#mask0_0_2088)">
<rect width="800" height="800" transform="translate(-302 -469)" fill="white"/>
<rect x="-302" y="-469" width="800" height="800" fill="#FFF6E9"/>
<mask id="mask1_0_2088" style="mask-type:luminance" maskUnits="userSpaceOnUse" x="-302" y="-469" width="800" height="800">
<rect x="-302" y="-469" width="800" height="800" fill="white"/>
</mask>
<g mask="url(#mask1_0_2088)">
<path fill-rule="evenodd" clip-rule="evenodd" d="M348.08 -222.04L289.84 -484.2H590.72L515.2 -259.4L348.08 -222.04ZM-9.36002 -186.92L-28.16 -291.24L117.12 -277.32L125.36 -211.88L119.44 -139.64L-9.36002 -186.92ZM-249.2 330.52L-188 329.64L-47.12 330.52L-43.12 281.88L-63.28 255.08L-93.36 244.6L-249.2 330.52ZM244.8 286.68L333.92 253L442.72 258.28L498.56 244.76L501.6 284.68L497.6 333.32L356.72 332.52L234 330.52L218.56 317.88L244.8 286.68ZM131.44 75.7198L164.08 200.76L276.96 171.16V94.5999L234 21.9599L131.44 75.7198ZM413.44 -7.96014L382.64 -143.64L509.28 -175.64L567.36 -72.8401L426 46.5999L413.44 -7.96014Z" fill="#BBEC95"/>
<path fill-rule="evenodd" clip-rule="evenodd" d="M44.48 343.88C44.8 345.8 46.48 347.16 48.4 347.16C48.64 347.16 48.96 347.08 49.12 347C51.28 346.6 52.72 344.52 52.32 342.36C41.92 287.8 14.4 239.96 -3.84 208.36C-11.6 195 -17.68 184.44 -19.84 177.88C-22.6161 169.604 -22.8544 160.025 -22.194 149.726C-10.733 142.863 2.39743 136.317 17.36 130.6C44.7427 120.126 84.9992 101.193 128.521 79.3514C130.682 87.6404 133.037 96.3132 135.6 105.4C148.56 151.32 156.32 184.28 162.56 210.84C176.461 270.1 180.906 288.995 214.143 319.243C214.385 320.228 215.004 321.122 215.92 321.72C216.443 322.112 217.019 322.29 217.605 322.343C223.561 327.597 230.378 333.226 238.24 339.48C238.96 340.04 239.84 340.36 240.72 340.36C241.84 340.36 243.04 339.88 243.92 339C245.28 337.32 245.04 334.76 243.28 333.4C235.895 327.521 229.477 322.246 223.856 317.336C228.682 310.972 241.452 296.155 264.08 282.92C281.6 272.6 301.44 265.32 323.04 261.24C324.082 261.043 325.128 260.854 326.178 260.672L339.68 309.96C339.92 310.84 340.72 311.4 341.6 311.4H342.08C343.2 311.08 343.84 309.96 343.52 308.92L330.152 260.023C355.373 256.144 382.932 256.469 412.16 261C421.146 262.379 430.017 263.015 438.756 262.907C442.474 287.263 445.675 310.261 448.24 331.48C448.48 333.48 450.24 335 452.24 335H452.64C454.88 334.68 456.4 332.68 456.16 330.52C453.615 309.484 450.448 286.707 446.773 262.596C467.591 261.234 487.619 255.563 506.64 245.56C529.92 233.32 551.76 214.6 571.36 189.96C604.64 148.2 620 104.52 620.64 102.68C621.36 100.6 620.24 98.2798 618.16 97.5598C616.08 96.8398 613.76 97.9598 613.04 100.04C613.036 100.051 613.019 100.096 612.991 100.174C612.006 102.883 596.536 145.413 565.04 184.92C546.08 208.68 525.12 226.68 502.8 238.44C484.653 248.01 465.48 253.41 445.549 254.638C442.679 236.137 439.524 216.894 436.135 197.089L524.56 173.56C525.68 173.24 526.32 172.12 526 171.08C525.68 169.96 524.56 169.32 523.52 169.64L435.446 193.075C432.907 178.319 430.241 163.259 427.467 147.969L489.363 132.32L512.16 161.56C512.56 162.12 513.2 162.36 513.76 162.36C514.24 162.36 514.64 162.28 515.04 161.88C515.92 161.24 516 159.96 515.36 159.08L493.65 131.237L518.32 125C519.36 124.76 520 123.64 519.76 122.6C519.52 121.56 518.4 120.92 517.36 121.16L490.99 127.826L443.171 66.4993L514.32 48.9998C515.36 48.7598 516 47.6398 515.76 46.5998C515.52 45.5598 514.4 44.9198 513.36 45.1598L440.504 63.0791L428.216 47.3205L515.04 -26.9201C515.92 -27.6401 516 -28.9201 515.28 -29.7201C514.56 -30.6001 513.28 -30.6801 512.48 -29.9601L426.66 43.422L400.348 -71.1232L518.48 -112.84C519.52 -113.24 520.08 -114.36 519.68 -115.4C519.28 -116.44 518.16 -117 517.12 -116.6L399.447 -75.0453L384.148 -141.643L518.32 -175.64C519.36 -175.88 520 -177 519.76 -178.04C519.52 -179.08 518.4 -179.72 517.36 -179.48L383.262 -145.501L373.889 -186.303L498.32 -209.48C499.44 -209.64 500.16 -210.68 499.92 -211.8C499.76 -212.92 498.72 -213.56 497.6 -213.4L372.996 -190.19L365.758 -221.7L392.222 -228.536C392.243 -228.539 392.265 -228.543 392.287 -228.548C392.297 -228.55 392.306 -228.552 392.316 -228.554C392.366 -228.565 392.42 -228.58 392.48 -228.6C392.551 -228.615 392.62 -228.634 392.687 -228.656L503.04 -257.16C504.08 -257.4 504.72 -258.52 504.48 -259.56C504.24 -260.6 503.12 -261.24 502.08 -261L393.537 -232.964L384.56 -271L490.347 -297.481L490.371 -297.48L490.4 -297.48C490.431 -297.48 490.461 -297.483 490.493 -297.488L490.503 -297.489L490.521 -297.493C490.532 -297.495 490.542 -297.497 490.553 -297.499C490.565 -297.501 490.578 -297.504 490.591 -297.507L490.623 -297.514C490.72 -297.536 490.828 -297.56 490.96 -297.56C491.104 -297.604 491.24 -297.664 491.367 -297.736L509.2 -302.2C510.24 -302.44 510.88 -303.56 510.64 -304.6C510.4 -305.64 509.28 -306.28 508.24 -306.04L491.9 -301.95L471.6 -379.56C471.28 -380.6 470.16 -381.32 469.12 -381C468.08 -380.68 467.44 -379.56 467.68 -378.52L487.966 -300.965L381.68 -274.36C380.64 -274.12 380 -273 380.24 -271.96L389.631 -231.955L351.69 -222.155C321.882 -356.712 296.892 -460.945 293.502 -475.085C293.283 -475.996 293.155 -476.533 293.12 -476.68C292.64 -478.84 290.48 -480.12 288.32 -479.64C286.16 -479.16 284.88 -477 285.36 -474.84C285.395 -474.692 285.524 -474.153 285.744 -473.237L285.744 -473.236C286.983 -468.067 291.093 -450.927 297.26 -424.713C289.21 -423.459 271.4 -419.319 253.36 -405.88C239.36 -395.48 228.16 -381.72 220.08 -364.84C219.577 -363.794 219.086 -362.736 218.607 -361.666L217.36 -361.24C216.24 -360.84 215.76 -359.72 216.08 -358.68C216.246 -358.265 216.542 -357.914 216.899 -357.673C211.221 -343.773 207.492 -327.995 205.731 -310.54C205.64 -310.27 205.608 -309.979 205.646 -309.686C205.023 -303.25 204.665 -296.588 204.574 -289.71L125.564 -254.715C137.3 -272.085 150.43 -310.682 164.64 -369.88C165.872 -374.977 167.066 -380.043 168.217 -385.035C168.385 -385.329 168.48 -385.671 168.48 -386.04C168.48 -386.082 168.479 -386.123 168.476 -386.163C178.617 -430.289 185.369 -468.252 185.44 -468.68C185.68 -469.8 184.96 -470.84 183.84 -471C182.72 -471.24 181.68 -470.52 181.52 -469.4C181.379 -468.554 174.755 -431.576 164.821 -388.04H124.8C123.68 -388.04 122.8 -387.16 122.8 -386.04C122.8 -384.92 123.68 -384.04 124.8 -384.04H163.903C152.827 -336.049 137.913 -281.3 123.304 -258.413C119.739 -284.389 114.636 -314.541 108 -348.76C95.4399 -413.48 81.8399 -469.32 81.68 -469.88C81.2 -472.04 79.0399 -473.4 76.8799 -472.84C74.7199 -472.36 73.36 -470.2 73.92 -468.04C74.1301 -467.23 81.7951 -435.699 90.9113 -392.587L33.7811 -393.41L25.3754 -450.622C25.4178 -450.793 25.4401 -450.973 25.4401 -451.16C25.4156 -451.503 25.3163 -451.823 25.1583 -452.1L22.64 -469.24C22.48 -470.36 21.52 -471.08 20.4 -470.92C19.28 -470.76 18.56 -469.8 18.72 -468.68L21.0247 -453.007L-104.211 -449.062C-105.182 -464.574 -105.697 -475.076 -105.755 -476.26L-105.755 -476.261V-476.261V-476.262L-105.76 -476.36C-105.84 -477.48 -106.72 -478.36 -107.84 -478.28C-108.96 -478.2 -109.84 -477.32 -109.76 -476.2C-109.747 -476.124 -109.688 -475.018 -109.581 -473.039C-109.333 -468.449 -108.832 -459.16 -108.074 -447.091C-108.078 -447.035 -108.08 -446.978 -108.08 -446.92C-108.08 -446.795 -108.066 -446.672 -108.04 -446.553C-107.701 -441.184 -107.312 -435.278 -106.873 -429H-129.12H-153.76H-204.546L-207.12 -476.28C-207.12 -477.4 -208.08 -478.28 -209.2 -478.2C-210.32 -478.2 -211.2 -477.24 -211.12 -476.12L-206.588 -392.871C-222.507 -391.836 -236.408 -390.319 -248.271 -388.642L-254.4 -476.44C-254.48 -477.56 -255.44 -478.36 -256.56 -478.28C-257.68 -478.2 -258.48 -477.24 -258.4 -476.12L-252.253 -388.061C-256.661 -387.4 -260.764 -386.72 -264.56 -386.04C-269.846 -385.087 -274.717 -384.106 -279.18 -383.127C-292.344 -434.124 -305.002 -480.833 -306.08 -484.76C-306.64 -486.84 -308.8 -488.12 -310.96 -487.56C-313.04 -487 -314.32 -484.84 -313.76 -482.68C-313.486 -481.702 -300.487 -433.766 -286.939 -381.332C-306.692 -376.518 -316.443 -372.181 -317.108 -371.886L-317.12 -371.88C-318.08 -371.4 -318.56 -370.28 -318.08 -369.24C-317.76 -368.44 -317.04 -368.04 -316.24 -368.04C-316 -368.04 -315.68 -368.12 -315.52 -368.2C-315.516 -368.202 -315.506 -368.205 -315.491 -368.212C-315.465 -368.222 -315.425 -368.239 -315.369 -368.263C-314.059 -368.815 -304.33 -372.914 -285.93 -377.421C-278.278 -347.741 -270.548 -316.965 -264.923 -292.709L-302.56 -281.96C-303.6 -281.64 -304.24 -280.52 -303.92 -279.48C-303.68 -278.6 -302.88 -278.04 -302 -278.04C-301.92 -278.04 -301.82 -278.06 -301.72 -278.08L-301.72 -278.08L-301.72 -278.08C-301.62 -278.1 -301.52 -278.12 -301.44 -278.12L-264.018 -288.783C-259.956 -271.054 -257.159 -257.266 -256.56 -250.68C-255.373 -237.23 -246.283 -224.406 -234.785 -208.183L-234.4 -207.64C-216.24 -182.2 -193.68 -150.52 -187.52 -99.3201C-184.624 -75.312 -173.763 -55.3005 -159.048 -38.1045L-184.32 -28.2802C-185.36 -27.8802 -185.84 -26.8401 -185.52 -25.8002L-169.909 21.4799L-358.16 121.32C-359.12 121.88 -359.44 123.08 -358.96 124.04C-358.64 124.68 -357.92 125.08 -357.2 125.08C-356.88 125.08 -356.56 125.08 -356.32 124.92L-168.633 25.3423L-139.186 114.524L-304.801 202.428L-314.4 177C-314.8 175.96 -315.92 175.4 -316.96 175.8C-318 176.2 -318.56 177.32 -318.16 178.36L-308.367 204.321L-327.28 214.36C-328.24 214.92 -328.56 216.12 -328.08 217.08C-327.76 217.72 -327.04 218.12 -326.32 218.12C-326.08 218.12 -325.76 218.04 -325.44 217.88L-306.953 208.071L-258.32 337C-258.08 337.56 -257.68 338.04 -257.12 338.2C-256.88 338.36 -256.64 338.36 -256.4 338.36C-256.08 338.36 -255.76 338.28 -255.44 338.12L-93.6931 247.172C-90.8362 247.315 -68.8189 249.011 -55.68 266.28C-44.56 280.84 -42.48 302.52 -49.6 330.52C-49.84 331.56 -49.2 332.68 -48.16 332.92C-48 333 -47.84 333 -47.68 333C-46.8 333 -45.92 332.36 -45.68 331.48C-38.32 302.2 -40.56 279.4 -52.48 263.8C-65.84 246.28 -86.8 243.56 -92.48 243.16L-97.4643 228.068C-96.0303 224.779 -89.2465 210.177 -73.92 192.52C-64.3433 181.507 -50.1809 167.857 -30.3864 154.864C-30.664 163.924 -30.0171 172.513 -27.36 180.44C-24.88 187.72 -18.64 198.6 -10.72 212.36L-10.4539 212.823C7.46738 244.025 34.3702 290.863 44.48 343.88ZM-21.8311 144.921C-10.764 138.467 1.77618 132.328 15.92 126.92C24.6518 123.587 34.6938 119.392 45.7331 114.517L-9.75058 -3.76083C-11.3409 -1.63828 -12.8226 0.441589 -14.203 2.4769C-14.2732 2.78308 -14.4189 3.07413 -14.64 3.31989C-14.7474 3.44879 -14.8664 3.56039 -14.9938 3.65466C-31.2225 28.0698 -32.8134 45.9053 -32.494 53.7582C-31.8061 54.7 -31.1608 55.6469 -30.56 56.5999C-15.1737 80.9947 -18.0597 108.408 -20.6133 132.666L-20.64 132.92L-20.6603 133.112C-21.0836 137.114 -21.501 141.06 -21.8311 144.921ZM-36.3756 48.9787C-36.1199 44.2117 -35.1672 37.8837 -32.64 30.1999C-30.2 22.7705 -26.0026 13.3517 -18.8177 2.40378L-53.76 -26.9201C-54.64 -27.6401 -54.72 -28.9201 -54 -29.7201C-53.28 -30.6001 -52 -30.6801 -51.2 -29.9601L-16.5829 -0.90921C-14.8967 -3.34335 -13.0649 -5.84695 -11.0749 -8.41534C-10.9578 -8.63953 -10.7997 -8.84442 -10.6077 -9.01581C-2.56497 -19.3092 8.01312 -30.6296 21.92 -42.6801C41.0399 -59.2401 67.36 -85.5601 84.16 -116.76C92.0388 -131.446 94.8523 -141.762 95.6913 -145.556L54.4837 -160.7L25.8622 -132.606L45.52 -116.2C46.4 -115.48 46.48 -114.2 45.76 -113.4C45.36 -112.92 44.8 -112.68 44.24 -112.68C43.76 -112.68 43.36 -112.84 42.96 -113.16L23.012 -129.809L11.488 -118.497L27.04 -106.6C27.92 -105.96 28.08 -104.68 27.44 -103.8C27.04 -103.32 26.48 -103 25.84 -103C25.44 -103 24.96 -103.16 24.64 -103.4L8.60461 -115.667L-106.427 -2.75656C-98.4692 2.87253 -90.5003 8.17477 -82.88 13.2398C-63.8095 25.9095 -46.9163 37.164 -36.3756 48.9787ZM-109.791 -5.1579L-91.8683 -22.7322L-154.442 -112.134L-179.66 -99.5652C-174.273 -58.132 -142.563 -28.7585 -109.791 -5.1579ZM-180.199 -103.776L-154.932 -116.38C-154.778 -116.488 -154.612 -116.569 -154.44 -116.626L-111.375 -138.109L-123.702 -207.656L-159.026 -185.569L-151.84 -160.76C-151.52 -159.72 -152.16 -158.6 -153.2 -158.28C-153.36 -158.2 -153.52 -158.2 -153.76 -158.2C-154.64 -158.2 -155.44 -158.76 -155.68 -159.64L-162.551 -183.365L-197.128 -161.746C-189.575 -145.419 -183.284 -126.362 -180.199 -103.776ZM-198.831 -165.341L-162.611 -187.988C-162.477 -188.098 -162.328 -188.192 -162.166 -188.266L-124.446 -211.851L-133.492 -262.888C-180.839 -240.618 -222.182 -210.46 -225.122 -208.315C-216.669 -196.395 -207.109 -182.399 -198.831 -165.341ZM-229.734 -214.805C-228.04 -216.077 -218.392 -223.096 -203.921 -232.454L-217.155 -302.135L-256.397 -290.954C-252.223 -272.683 -249.337 -258.391 -248.72 -251.48C-247.736 -240.651 -239.869 -229.104 -229.734 -214.805ZM-257.301 -294.885L-217.914 -306.133L-233.185 -386.536C-244.922 -385.214 -255.091 -383.67 -263.68 -382.12C-268.912 -381.176 -273.742 -380.2 -278.174 -379.224C-270.586 -349.76 -262.925 -319.201 -257.301 -294.885ZM-30.1579 150.005C-51.6363 163.731 -66.8701 178.355 -77.04 190.12C-89.2814 204.236 -96.1257 216.262 -99.2759 222.582L-134.383 116.28L-45.5537 50.8634C-42.146 54.2203 -39.3179 57.5598 -37.2 60.9199C-23.28 82.9999 -25.92 107.96 -28.48 132.12C-29.1489 138.224 -29.7984 144.201 -30.1579 150.005ZM-48.5108 48.0737C-58.371 39.138 -72.0529 30.0046 -87.12 19.9599L-87.2315 19.8856C-110.254 4.55197 -136.359 -12.8345 -156.269 -34.94L-181.12 -25.2402L-165.704 21.4404C-165.696 21.4534 -165.688 21.4666 -165.68 21.4799C-165.578 21.6833 -165.512 21.8976 -165.481 22.1142L-135.702 112.284L-48.5108 48.0737ZM-255.36 333.4L-303.385 206.179L-137.911 118.386L-96.4028 244.095L-255.36 333.4ZM369.933 -185.566L395.963 -72.194C395.979 -72.0566 396.01 -71.9185 396.058 -71.7815L423.44 47.4798C423.52 47.7996 423.68 48.0394 423.84 48.2793L423.84 48.2798L486.704 128.91L426.758 144.065C407.347 37.4761 382.85 -79.9621 360.146 -183.743L369.933 -185.566ZM352.546 -218.288L361.867 -220.695L369.04 -189.453L359.294 -187.638C357.023 -198.003 354.772 -208.228 352.546 -218.288ZM356.137 249.541C346.498 249.92 337.12 250.828 328.03 252.26L304.497 166.179L389.84 143.8C390.72 143.56 391.36 142.76 391.36 141.88V76.0399C391.36 75.8799 391.36 75.7198 391.28 75.5599C378.927 27.441 370.657 -14.9601 365.156 -51.1134C365.846 -51.8483 365.884 -53.0406 365.2 -53.8002C365.051 -53.9659 364.878 -54.1006 364.69 -54.2039C356.627 -108.213 354.781 -147.964 354.635 -171.635C381.869 -46.7134 411.327 96.4875 431.283 216.207C379.696 226.116 361.597 242.7 356.137 249.541ZM361.652 249.382C378.165 249.081 395.417 250.305 413.28 253.08C421.463 254.344 429.55 254.953 437.524 254.907C435.764 243.581 433.897 231.977 431.936 220.137C387.523 228.651 368.818 242.143 361.652 249.382ZM168.669 201.796L276.117 173.621C276.209 173.633 276.304 173.64 276.4 173.64C276.87 173.64 277.297 173.485 277.635 173.223L300.575 167.207L324.056 252.923C323.181 253.077 322.309 253.236 321.44 253.4C298.88 257.64 278.24 265.24 259.92 275.96C236.689 289.531 223.336 304.595 217.746 311.85C188.043 284.34 183.815 266.386 170.4 209.16L170.099 207.88L170.091 207.846L169.447 205.103C169.192 204.017 168.933 202.915 168.669 201.796ZM167.773 197.997L274.4 169.999V95.6398L232.662 25.0854C201.44 41.884 167.921 59.4642 135.86 75.6566C138.132 84.4245 140.626 93.6331 143.36 103.32C154.571 142.936 162.116 174.038 167.773 197.997ZM387.28 140.36L278.4 168.949V142.817L387.28 107.979V140.36ZM387.28 103.835L278.4 138.673V96.5445L383.535 61.3444C384.739 66.257 385.987 71.2359 387.28 76.2798V103.835ZM382.574 57.3978L277.329 92.6346L272.586 84.6153L380.721 49.6464C381.326 52.2112 381.944 54.795 382.574 57.3978ZM343.322 57.6195L270.566 81.1993L236.24 23.1585C295.829 -8.96854 346.423 -37.909 361.466 -48.3156C365.714 -20.8946 371.618 10.6173 379.816 45.792L347.157 56.3769L332.16 21.6399C331.68 20.5999 330.56 20.1999 329.52 20.5999C328.48 21.0799 328.08 22.1999 328.48 23.2399L343.322 57.6195ZM299.805 -16.2302C280.535 -5.37048 258.077 7.00296 234.162 19.8913L202.335 -24.8905C211.869 -29.5579 222.424 -33.525 234 -36.2801C234.88 -36.4401 235.52 -37.2401 235.52 -38.2001V-62.2001C235.52 -63.3201 234.64 -64.2001 233.52 -64.2001C232.4 -64.2001 231.52 -63.3201 231.52 -62.2001V-39.7201C220.03 -36.8537 209.532 -32.8318 200.027 -28.1378L185.2 -49.0002C184.56 -49.8802 183.28 -50.1201 182.4 -49.4802C181.52 -48.8401 181.28 -47.5602 181.92 -46.6801L196.392 -26.2852C175.863 -15.4977 160.231 -1.7067 149.52 9.79987C138.592 21.5154 131.208 32.292 127.069 39.0173C108.621 -45.4947 114.949 -81.5737 122.08 -122.2L122.435 -124.225C123.242 -128.828 124.061 -133.493 124.849 -138.296L144.158 -142.35L161.6 -71.8801C161.84 -71.0001 162.64 -70.3601 163.52 -70.3601C163.68 -70.3601 163.84 -70.3601 164 -70.4401C165.04 -70.6801 165.68 -71.8001 165.44 -72.8401L148.034 -143.164L201.246 -154.337C214.83 -128.493 224.676 -102.361 231.52 -80.9201C231.84 -80.1201 232.56 -79.5601 233.44 -79.5601C233.68 -79.5601 233.84 -79.5601 234 -79.6401C235.04 -79.9601 235.6 -81.0801 235.28 -82.1201C228.366 -103.863 218.331 -130.452 204.444 -156.747C204.438 -156.857 204.424 -156.968 204.4 -157.08C204.296 -157.529 204.029 -157.918 203.674 -158.197C192.153 -179.782 178.023 -201.106 160.88 -219.32C144.781 -236.487 131.448 -245.14 124.557 -248.958C124.519 -249.256 124.481 -249.554 124.443 -249.853L205.795 -285.863C210.096 -279.37 228.88 -250.513 248.412 -210.807C248.417 -210.79 248.421 -210.774 248.426 -210.758C248.431 -210.742 248.435 -210.727 248.44 -210.712C248.452 -210.675 248.466 -210.637 248.48 -210.6C248.54 -210.466 248.613 -210.34 248.698 -210.225C250.703 -206.139 252.715 -201.94 254.72 -197.64C294.854 -111.582 301.488 -51.6318 299.805 -16.2302ZM198.689 -23.0468L230.54 21.8409C199.688 38.4326 166.581 55.7886 134.868 71.8024C132.429 62.2567 130.258 53.2422 128.333 44.7086C131.586 39.0322 139.563 26.2515 152.56 12.3599C163.102 1.0802 178.471 -12.4915 198.689 -23.0468ZM-7.02469 -7.30417L27.9128 67.1741L122.922 56.9363C99.6347 -40.8867 106.441 -79.7018 114.157 -123.704L114.16 -123.72C114.982 -128.36 115.804 -133.053 116.597 -137.874L99.4283 -144.183C98.399 -139.759 95.4452 -129.51 87.7599 -115.16C82.1388 -104.638 73.1707 -90.568 59.2616 -74.3867C59.738 -74.4444 60.232 -74.3369 60.64 -74.0401L60.6515 -74.0316C61.1083 -73.691 68.571 -68.1273 69.68 -52.6801C69.76 -51.5602 68.96 -50.6001 67.84 -50.5201H67.68C66.64 -50.5201 65.76 -51.3201 65.68 -52.3601C64.753 -65.6476 58.8277 -70.3561 58.3499 -70.7359C58.3329 -70.7494 58.3228 -70.7574 58.32 -70.7601C57.8046 -71.135 57.5087 -71.7293 57.4806 -72.3343C48.5533 -62.1429 37.6816 -51.1555 24.4799 -39.7201C11.1254 -28.158 0.857635 -17.2902 -7.02469 -7.30417ZM49.3649 112.905L29.7219 71.0308L123.871 60.8858C125.018 65.619 126.235 70.4879 127.523 75.4994C99.234 89.6938 72.2985 102.672 49.3649 112.905ZM360.798 -52.6809C353.752 -47.4183 332.718 -34.844 303.912 -18.5487C305.711 -68.9552 290.081 -122.95 272.51 -166.804L349.76 -193.911C350.103 -192.352 350.446 -190.789 350.789 -189.223C350.368 -178.394 350.126 -156.954 352.4 -126.12C353.808 -106.979 356.326 -82.31 360.798 -52.6809ZM221.505 -358.378C215.779 -345.04 211.94 -329.836 210.008 -312.933L314.256 -351.669C311.344 -364.319 308.59 -376.212 306.024 -387.242L221.505 -358.378ZM305.102 -391.205L223.816 -363.445C231.636 -379.484 242.283 -392.692 255.6 -402.6C273.065 -415.607 290.669 -419.664 298.167 -420.856C300.268 -411.912 302.59 -401.993 305.102 -391.205ZM208.56 -289C208.635 -295.747 208.967 -302.276 209.556 -308.579L315.16 -347.742C318.601 -332.781 322.254 -316.801 326.073 -299.971L225.634 -261.545C216.673 -276.803 210.133 -286.68 208.56 -289ZM227.652 -258.087L326.956 -296.078C330.305 -281.302 333.776 -265.89 337.339 -249.953L251.334 -213.999C242.899 -231.028 234.645 -246.032 227.652 -258.087ZM253.109 -210.392L338.228 -245.976C341.707 -230.395 345.271 -214.326 348.89 -197.871L271.009 -170.515C266.821 -180.769 262.55 -190.432 258.4 -199.32C256.638 -203.09 254.871 -206.783 253.109 -210.392ZM199.278 -158.031C188.135 -178.656 174.581 -198.946 158.24 -216.36C144.282 -231.259 132.314 -239.696 125.179 -243.983C129.205 -211.012 130.416 -185.716 128.8 -168.36C127.948 -159.115 126.801 -150.641 125.54 -142.6L199.278 -158.031ZM91.7571 -388.572L34.372 -389.388L42.685 -332.806L81.76 -337.08C82.8 -337.16 83.76 -336.44 83.92 -335.4L86.16 -320.28C86.32 -319.16 85.6 -318.2 84.48 -318.04C84.56 -317.88 84.4 -317.88 84.32 -317.88C83.36 -317.88 82.48 -318.6 82.32 -319.56L80.32 -332.84L43.2712 -328.816L49.7975 -284.396C67.7235 -281.919 86.6995 -280.121 111.887 -280.643C106.118 -317.456 98.5883 -356.045 91.7571 -388.572ZM39.1027 -330.066L45.7338 -284.971C41.0616 -285.646 36.4348 -286.359 31.76 -287.08L31.196 -287.166L31.1956 -287.166C9.28949 -290.5 -13.4875 -293.966 -46.96 -294.68C-57.7956 -294.907 -69.828 -293.374 -83.0145 -290.102C-93.8827 -309.023 -100.884 -397.114 -103.958 -445.067L-45.6835 -446.902C-45.6826 -446.881 -45.6815 -446.861 -45.68 -446.84L-41.68 -392.28C-41.6 -391.24 -40.72 -390.44 -39.68 -390.44L30.3712 -389.445L39.0339 -330.534C39.0338 -330.506 39.0343 -330.479 39.0352 -330.452C39.0362 -330.421 39.0378 -330.391 39.0399 -330.36C39.0544 -330.259 39.0755 -330.16 39.1027 -330.066ZM29.7798 -393.467L21.6109 -449.02L-41.6702 -447.028L-37.76 -394.44L29.7798 -393.467ZM98.5216 -148.779L55.8544 -164.457L51.8273 -249.026C51.8876 -249.219 51.92 -249.425 51.92 -249.64C51.92 -249.925 51.8632 -250.194 51.7601 -250.437L50.5331 -276.204C58.6403 -275.101 66.988 -274.145 76.0427 -273.485L80.08 -197.08C80.16 -195.96 81.04 -195.16 82.08 -195.16H82.16C83.28 -195.16 84.16 -196.12 84.08 -197.24L80.0654 -273.214C90.0005 -272.603 100.826 -272.357 113.115 -272.657C119.324 -231.443 123.064 -193.214 120.8 -169.24C119.831 -159.407 118.595 -150.427 117.246 -141.899L98.7741 -148.687C98.6932 -148.723 98.6089 -148.754 98.5216 -148.779ZM51.8987 -165.91L47.9747 -247.64H3.67996C2.55997 -247.64 1.67996 -248.52 1.67996 -249.64C1.67996 -250.76 2.55997 -251.64 3.67996 -251.64H47.7827L46.5768 -276.756C41.2376 -277.518 35.9708 -278.334 30.64 -279.16L30.1072 -279.242L30.1069 -279.242L30.1066 -279.242C13.4 -281.813 -3.82065 -284.462 -25.9158 -285.833L-18.8212 -246.632C-18.7326 -246.452 -18.6704 -246.253 -18.64 -246.04C-18.595 -245.83 -18.5837 -245.623 -18.6026 -245.424L-8.2092 -187.996L51.8987 -165.91ZM-56.222 -57.6847L50.3773 -162.209L-9.68002 -184.28L-106.916 -135.819L-105.92 -130.2L-56.222 -57.6847ZM-109.44 -128.2L-59.1348 -54.8286L-88.9603 -25.5836L-150.806 -113.946L-110.64 -133.964L-109.76 -129C-109.68 -128.68 -109.6 -128.44 -109.44 -128.2ZM-30.0089 -286.068L-22.9833 -247.249L-82.7942 -235.692L-91.2738 -279.489C-75.8127 -284.183 -60.7093 -286.978 -47.04 -286.68C-41.0369 -286.564 -35.3791 -286.355 -30.0089 -286.068ZM-22.2735 -243.327L-82.0366 -231.78L-68.24 -160.52C-68.1732 -160.209 -68.1808 -159.903 -68.2506 -159.621L-12.1858 -187.589L-22.2735 -243.327ZM-95.1012 -278.291C-106.651 -274.57 -118.349 -269.85 -129.752 -264.624L-120.639 -213.223C-120.285 -213.072 -119.975 -212.809 -119.76 -212.44C-119.273 -211.605 -119.391 -210.588 -120.062 -209.969L-107.651 -139.966L-70.8581 -158.32C-71.4924 -158.548 -71.9813 -159.086 -72.16 -159.8L-95.1012 -278.291ZM-131.089 -425H-151.76V-394.2C-144.941 -394.106 -137.89 -393.919 -130.608 -393.624L-131.089 -425ZM-126.603 -393.453L-127.089 -425H-106.59C-105.85 -414.682 -104.98 -403.496 -103.977 -392.125C-111.746 -392.684 -119.288 -393.122 -126.603 -393.453ZM-130.458 -389.617C-170.429 -391.267 -203.392 -389.68 -229.21 -386.968L-226.438 -372.371L-213.28 -375.16C-212.16 -375.4 -211.12 -374.68 -210.88 -373.64C-210.64 -372.52 -211.36 -371.48 -212.4 -371.24L-225.688 -368.424L-222.858 -353.524L-210.16 -356.84C-209.12 -357.08 -208 -356.44 -207.76 -355.4C-207.52 -354.36 -208.16 -353.24 -209.2 -353L-222.118 -349.627L-219.784 -337.336L-210.16 -339.64C-209.12 -339.88 -208 -339.24 -207.76 -338.2C-207.52 -337.16 -208.16 -336.04 -209.2 -335.8L-219.044 -333.443L-216.679 -320.988L-204.96 -323.08C-203.84 -323.24 -202.8 -322.52 -202.64 -321.48C-202.48 -320.44 -203.2 -319.32 -204.24 -319.16L-215.935 -317.072L-214.027 -307.024L-178.746 -312.396L-185.28 -350.84C-185.44 -351.88 -184.72 -352.92 -183.68 -353.16L-163.12 -356.92C-162 -357.16 -160.96 -356.36 -160.8 -355.32C-160.64 -354.2 -161.36 -353.16 -162.4 -353L-181.04 -349.64L-174.793 -312.998L-118.56 -321.56L-130.458 -389.617ZM-213.266 -303.019L-115.92 -317.88C-115.36 -317.96 -114.88 -318.2 -114.56 -318.68C-114.24 -319.16 -114.16 -319.64 -114.24 -320.2L-126.343 -389.437C-118.997 -389.097 -111.421 -388.648 -103.614 -388.076C-98.7448 -334.419 -93.1832 -301.159 -86.9943 -289.071C-110.078 -282.846 -136.566 -271.479 -166.24 -255.08C-178.921 -248.063 -190.55 -240.997 -200.305 -234.776L-213.266 -303.019ZM-204.328 -425H-155.76V-394.245C-162.873 -394.305 -169.727 -394.264 -176.32 -394.136V-418.92C-176.32 -420.04 -177.2 -420.92 -178.32 -420.92C-179.44 -420.92 -180.32 -420.04 -180.32 -418.92V-394.046C-188.122 -393.85 -195.547 -393.532 -202.593 -393.118L-204.328 -425Z" fill="white"/>
</g>
<path d="M174 141.973C176.42 126.917 178.32 110.94 180.655 97.2636C184.709 73.5216 183.294 66.1093 181.09 34.3997C179.869 16.8393 177.555 -1.35819 174 -19.5451C169.733 -41.3732 284.767 -69.6538 303.202 -90.6022C308.854 -97.0243 304.777 -110.873 310.777 -141.873" stroke="#FECE80" stroke-width="4" stroke-linecap="round" stroke-dasharray="4 12"/>
<g filter="url(#filter0_d_0_2088)">
<path d="M194.941 50.3137C201.19 56.5621 201.19 66.6928 194.941 72.9411C188.693 79.1895 178.562 79.1895 172.314 72.9411C166.065 66.6928 166.065 56.5621 172.314 50.3137L183.184 39.4437C183.429 39.1987 183.826 39.1987 184.071 39.4437L194.941 50.3137Z" fill="#FF7A28"/>
<path d="M194.941 50.3137C201.19 56.5621 201.19 66.6928 194.941 72.9411C188.693 79.1895 178.562 79.1895 172.314 72.9411C166.065 66.6928 166.065 56.5621 172.314 50.3137L183.184 39.4437C183.429 39.1987 183.826 39.1987 184.071 39.4437L194.941 50.3137Z" stroke="white" stroke-width="4"/>
</g>
</g>
<defs>
<filter id="filter0_d_0_2088" x="85.6274" y="-66.7402" width="196" height="202.368" filterUnits="userSpaceOnUse" color-interpolation-filters="sRGB">
<feFlood flood-opacity="0" result="BackgroundImageFix"/>
<feColorMatrix in="SourceAlpha" type="matrix" values="0 0 0 0 0 0 0 0 0 0 0 0 0 0 0 0 0 0 127 0" result="hardAlpha"/>
<feOffset dy="-24"/>
<feGaussianBlur stdDeviation="40"/>
<feColorMatrix type="matrix" values="0 0 0 0 1 0 0 0 0 0.478431 0 0 0 0 0.156863 0 0 0 0.5 0"/>
<feBlend mode="normal" in2="BackgroundImageFix" result="effect1_dropShadow_0_2088"/>
<feBlend mode="normal" in="SourceGraphic" in2="effect1_dropShadow_0_2088" result="shape"/>
</filter>
</defs>
</svg>
