<svg width="375" height="160" viewBox="0 0 375 160" fill="none" xmlns="http://www.w3.org/2000/svg">
<rect width="375" height="160" fill="white"/>
<mask id="mask0_0_550" style="mask-type:luminance" maskUnits="userSpaceOnUse" x="0" y="0" width="375" height="160">
<rect width="375" height="160" fill="white"/>
</mask>
<g mask="url(#mask0_0_550)">
<rect width="500" height="500" transform="translate(-125 -156)" fill="white"/>
<rect x="-125" y="-156" width="500" height="500" fill="#FFF6E9"/>
<mask id="mask1_0_550" style="mask-type:luminance" maskUnits="userSpaceOnUse" x="-125" y="-156" width="500" height="500">
<rect x="-125" y="-156" width="500" height="500" fill="white"/>
</mask>
<g mask="url(#mask1_0_550)">
<path fill-rule="evenodd" clip-rule="evenodd" d="M281.3 -1.64999L244.9 -165.5H432.95L385.75 -25L281.3 -1.64999ZM57.9 20.3L46.15 -44.9L136.95 -36.2L142.1 4.70001L138.4 49.85L57.9 20.3ZM-92 343.7L-53.75 343.15L34.3 343.7L36.8 313.3L24.2 296.55L5.4 290L-92 343.7ZM216.75 316.3L272.45 295.25L340.45 298.55L375.35 290.1L377.25 315.05L374.75 345.45L286.7 344.95L210 343.7L200.35 335.8L216.75 316.3ZM145.9 184.45L166.3 262.6L236.85 244.1V196.25L210 150.85L145.9 184.45ZM322.15 132.15L302.9 47.35L382.05 27.35L418.35 91.6L330 166.25L322.15 132.15Z" fill="#BBEC95"/>
<path fill-rule="evenodd" clip-rule="evenodd" d="M91.55 352.05C91.75 353.25 92.8 354.1 94 354.1C94.15 354.1 94.35 354.05 94.45 354C95.8 353.75 96.7 352.45 96.45 351.1C89.95 317 72.75 287.1 61.35 267.35C56.5 259 52.7 252.4 51.35 248.3C49.6149 243.127 49.466 237.14 49.8788 230.704C57.042 226.415 65.2485 222.323 74.6001 218.75C91.7143 212.204 116.875 200.371 144.075 186.72C145.426 191.9 146.898 197.321 148.5 203C156.6 231.7 161.45 252.3 165.35 268.9C174.038 305.938 176.816 317.747 197.589 336.652C197.741 337.267 198.127 337.827 198.7 338.2C199.027 338.445 199.387 338.557 199.753 338.589C203.476 341.873 207.736 345.391 212.65 349.3C213.1 349.65 213.65 349.85 214.2 349.85C214.9 349.85 215.65 349.55 216.2 349C217.05 347.95 216.9 346.35 215.8 345.5C211.185 341.826 207.173 338.529 203.66 335.46C206.676 331.482 214.657 322.222 228.8 313.95C239.75 307.5 252.15 302.95 265.65 300.4C266.301 300.277 266.955 300.159 267.611 300.045L276.05 330.85C276.2 331.4 276.7 331.75 277.25 331.75H277.55C278.25 331.55 278.65 330.85 278.45 330.2L270.095 299.639C285.858 297.215 303.083 297.418 321.35 300.25C326.967 301.112 332.511 301.51 337.972 301.442C340.296 316.664 342.297 331.038 343.9 344.3C344.05 345.55 345.15 346.5 346.4 346.5H346.65C348.05 346.3 349 345.05 348.85 343.7C347.259 330.553 345.28 316.317 342.983 301.247C355.994 300.396 368.512 296.852 380.4 290.6C394.95 282.95 408.6 271.25 420.85 255.85C441.65 229.75 451.25 202.45 451.65 201.3C452.1 200 451.4 198.55 450.1 198.1C448.8 197.65 447.35 198.35 446.9 199.65C446.897 199.657 446.888 199.682 446.872 199.726L446.869 199.734C446.252 201.43 436.584 228.01 416.9 252.7C405.05 267.55 391.95 278.8 378 286.15C366.658 292.132 354.675 295.506 342.218 296.274C340.424 284.711 338.453 272.684 336.334 260.305L391.6 245.6C392.3 245.4 392.7 244.7 392.5 244.05C392.3 243.35 391.6 242.95 390.95 243.15L335.904 257.797C334.317 248.574 332.65 239.162 330.917 229.606L369.602 219.825L383.85 238.1C384.1 238.45 384.5 238.6 384.85 238.6C385.15 238.6 385.4 238.55 385.65 238.3C386.2 237.9 386.25 237.1 385.85 236.55L372.281 219.148L387.7 215.25C388.35 215.1 388.75 214.4 388.6 213.75C388.45 213.1 387.75 212.7 387.1 212.85L370.619 217.017L340.732 178.687L385.2 167.75C385.85 167.6 386.25 166.9 386.1 166.25C385.95 165.6 385.25 165.2 384.6 165.35L339.065 176.549L331.385 166.7L385.65 120.3C386.2 119.85 386.25 119.05 385.8 118.55C385.35 118 384.55 117.95 384.05 118.4L330.413 164.264L313.967 92.673L387.8 66.5999C388.45 66.3499 388.8 65.6499 388.55 64.9999C388.3 64.3499 387.6 63.9999 386.95 64.2499L313.404 90.2217L303.843 48.5984L387.7 27.35C388.35 27.2 388.75 26.5 388.6 25.85C388.45 25.2 387.75 24.8 387.1 24.95L303.289 46.1868L297.431 20.686L375.2 6.20001C375.9 6.10001 376.35 5.45001 376.2 4.75002C376.1 4.05 375.45 3.65001 374.75 3.75002L296.873 18.2561L292.349 -1.43774L308.889 -5.71002C308.9 -5.71172 308.911 -5.71371 308.923 -5.71605L308.944 -5.72052L308.957 -5.72354L308.98 -5.72925C309.002 -5.73499 309.025 -5.74184 309.05 -5.75005C309.094 -5.75958 309.138 -5.77133 309.18 -5.78514L378.15 -23.6001C378.8 -23.7501 379.2 -24.4501 379.05 -25.1001C378.9 -25.7501 378.2 -26.1501 377.55 -26.0001L309.71 -8.47719L304.1 -32.25L370.217 -48.8004C370.228 -48.8002 370.239 -48.8 370.25 -48.8C370.295 -48.8 370.34 -48.8101 370.389 -48.8212C370.45 -48.8349 370.517 -48.85 370.6 -48.85C370.69 -48.8776 370.775 -48.9148 370.854 -48.96L382 -51.75C382.65 -51.9 383.05 -52.6 382.9 -53.25C382.75 -53.9 382.05 -54.3 381.4 -54.15L371.188 -51.5937L358.5 -100.1C358.3 -100.75 357.6 -101.2 356.95 -101C356.3 -100.8 355.9 -100.1 356.05 -99.45L368.729 -50.9782L302.3 -34.35C301.65 -34.2 301.25 -33.5 301.4 -32.85L307.269 -7.84662L283.556 -1.72157C264.928 -85.8116 249.31 -150.953 247.189 -159.801L247.189 -159.801L247.189 -159.802C247.052 -160.372 246.972 -160.708 246.95 -160.8C246.65 -162.15 245.3 -162.95 243.95 -162.65C242.6 -162.35 241.8 -161 242.1 -159.65C242.122 -159.558 242.203 -159.22 242.34 -158.647L242.34 -158.646L242.341 -158.644L242.341 -158.643L242.342 -158.64C243.119 -155.4 245.686 -144.691 249.537 -128.32C244.507 -127.537 233.375 -124.949 222.1 -116.55C213.35 -110.05 206.35 -101.45 201.3 -90.9C200.986 -90.2462 200.679 -89.5849 200.38 -88.9162L199.6 -88.65C198.9 -88.4 198.6 -87.7 198.8 -87.05C198.904 -86.7905 199.089 -86.5713 199.312 -86.4206C195.763 -77.7329 193.432 -67.8717 192.332 -56.9626C192.275 -56.7937 192.255 -56.6122 192.279 -56.4289C191.889 -52.4065 191.666 -48.2427 191.609 -43.9439L142.228 -22.0718C149.563 -32.9279 157.768 -57.0508 166.65 -94.05C167.42 -97.2354 168.166 -100.402 168.885 -103.522C168.99 -103.705 169.05 -103.92 169.05 -104.15C169.05 -104.176 169.049 -104.202 169.048 -104.227C175.386 -131.805 179.605 -155.533 179.65 -155.8C179.8 -156.5 179.35 -157.15 178.65 -157.25C177.95 -157.4 177.3 -156.95 177.2 -156.25C177.112 -155.721 172.972 -132.61 166.763 -105.4H141.75C141.05 -105.4 140.5 -104.85 140.5 -104.15C140.5 -103.45 141.05 -102.9 141.75 -102.9H166.189C159.267 -72.9053 149.946 -38.6877 140.815 -24.383C138.587 -40.6182 135.398 -59.4628 131.25 -80.85C123.4 -121.3 114.9 -156.2 114.8 -156.55C114.5 -157.9 113.15 -158.75 111.8 -158.4C110.45 -158.1 109.6 -156.75 109.95 -155.4C110.081 -154.893 114.872 -135.187 120.57 -108.242L84.8632 -108.756L79.6096 -144.514C79.6361 -144.62 79.6501 -144.733 79.6501 -144.85C79.6348 -145.064 79.5727 -145.264 79.4739 -145.437L77.9 -156.15C77.8 -156.85 77.2 -157.3 76.5 -157.2C75.8 -157.1 75.35 -156.5 75.45 -155.8L76.8905 -146.004L-1.38205 -143.538C-1.98859 -153.235 -2.31073 -159.799 -2.34697 -160.538V-160.538V-160.538L-2.34999 -160.6C-2.39999 -161.3 -2.95 -161.85 -3.64999 -161.8C-4.34999 -161.75 -4.89999 -161.2 -4.84999 -160.5C-4.84201 -160.452 -4.80475 -159.761 -4.73801 -158.524C-4.5833 -155.656 -4.27014 -149.85 -3.79602 -142.306C-3.7986 -142.271 -3.79993 -142.236 -3.79993 -142.2C-3.79993 -142.122 -3.79126 -142.045 -3.7749 -141.971C-3.56332 -138.615 -3.3203 -134.924 -3.04564 -131H-16.95H-32.3499H-64.0912L-65.7 -160.55C-65.7 -161.25 -66.3 -161.8 -67 -161.75C-67.7 -161.75 -68.25 -161.15 -68.2 -160.45L-65.3674 -108.42C-75.317 -107.772 -84.0052 -106.824 -91.4192 -105.776L-95.25 -160.65C-95.2999 -161.35 -95.9 -161.85 -96.6 -161.8C-97.3 -161.75 -97.8 -161.15 -97.75 -160.45L-93.9079 -105.413C-96.663 -105 -99.2273 -104.575 -101.6 -104.15C-104.904 -103.554 -107.948 -102.941 -110.737 -102.329C-118.965 -134.202 -126.876 -163.396 -127.55 -165.85C-127.9 -167.15 -129.25 -167.95 -130.6 -167.6C-131.9 -167.25 -132.7 -165.9 -132.35 -164.55C-132.179 -163.939 -124.055 -133.979 -115.587 -101.208C-127.933 -98.1989 -134.027 -95.4883 -134.442 -95.3035L-134.45 -95.3001C-135.05 -95.0001 -135.35 -94.3001 -135.05 -93.6501C-134.85 -93.1501 -134.4 -92.9001 -133.9 -92.9001C-133.75 -92.9001 -133.55 -92.9501 -133.45 -93.0001C-133.443 -93.0025 -133.411 -93.0157 -133.356 -93.0391C-132.537 -93.3843 -126.457 -95.9464 -114.956 -98.7633C-110.174 -80.2132 -105.343 -60.9784 -101.827 -45.8179L-125.35 -39.1001C-126 -38.9001 -126.4 -38.2001 -126.2 -37.5501C-126.05 -37.0001 -125.55 -36.6501 -125 -36.6501C-124.95 -36.6501 -124.887 -36.6626 -124.825 -36.675C-124.762 -36.6876 -124.7 -36.7001 -124.65 -36.7001L-101.261 -43.364C-98.7227 -32.2836 -96.9742 -23.6662 -96.6 -19.55C-95.8582 -11.1436 -90.177 -3.12836 -82.9904 7.01071L-82.75 7.34999C-71.4 23.25 -57.3 43.05 -53.45 75.05C-51.6401 90.0551 -44.8521 102.562 -35.6548 113.31L-51.45 119.45C-52.1 119.7 -52.4 120.35 -52.2 121L-42.4428 150.55L-160.1 212.95C-160.7 213.3 -160.9 214.05 -160.6 214.65C-160.4 215.05 -159.95 215.3 -159.5 215.3C-159.3 215.3 -159.1 215.3 -158.95 215.2L-41.6457 152.964L-23.2413 208.703L-126.751 263.643L-132.75 247.75C-133 247.1 -133.7 246.75 -134.35 247C-135 247.25 -135.35 247.95 -135.1 248.6L-128.979 264.826L-140.8 271.1C-141.4 271.45 -141.6 272.2 -141.3 272.8C-141.1 273.2 -140.65 273.45 -140.2 273.45C-140.05 273.45 -139.85 273.4 -139.65 273.3L-128.095 267.17L-97.7 347.75C-97.55 348.1 -97.3 348.4 -96.95 348.5C-96.8 348.6 -96.65 348.6 -96.5 348.6C-96.3 348.6 -96.1 348.55 -95.9 348.45L5.19183 291.608C6.97726 291.697 20.7382 292.757 28.9501 303.55C35.9001 312.65 37.2001 326.2 32.7501 343.7C32.6001 344.35 33 345.05 33.6501 345.2C33.75 345.25 33.8501 345.25 33.9501 345.25C34.5 345.25 35.05 344.85 35.2001 344.3C39.8 326 38.4001 311.75 30.9501 302C22.6001 291.05 9.50005 289.35 5.95004 289.1L2.83487 279.667C3.73108 277.612 7.97093 268.486 17.5501 257.45C23.5355 250.567 32.387 242.035 44.7585 233.915C44.585 239.578 44.9893 244.946 46.65 249.9C48.2 254.45 52.1 261.25 57.05 269.85L57.2162 270.139C68.4171 289.64 85.2314 318.914 91.55 352.05ZM50.1056 227.701C57.0226 223.667 64.8602 219.83 73.7001 216.45C79.1575 214.367 85.4337 211.745 92.3332 208.698L57.6559 134.775C56.662 136.101 55.7359 137.401 54.8732 138.673C54.8293 138.865 54.7383 139.046 54.6 139.2C54.5329 139.281 54.4586 139.35 54.379 139.409C44.236 154.669 43.2417 165.816 43.4413 170.724C43.8712 171.313 44.2746 171.904 44.65 172.5C54.2664 187.747 52.4628 204.88 50.8667 220.041L50.85 220.2L50.8374 220.32C50.5728 222.821 50.3119 225.287 50.1056 227.701ZM41.0153 167.737C41.1751 164.757 41.7706 160.802 43.35 156C44.875 151.357 47.4984 145.47 51.989 138.627L30.15 120.3C29.6 119.85 29.55 119.05 30 118.55C30.45 118 31.25 117.95 31.75 118.4L53.3857 136.557C54.4396 135.035 55.5846 133.471 56.8283 131.865C56.9015 131.725 57.0002 131.597 57.1201 131.49C62.1468 125.057 68.7582 117.982 77.45 110.45C89.4 100.1 105.85 83.65 116.35 64.15C121.274 54.971 123.033 48.5235 123.557 46.1524L97.8024 36.6875L79.9139 54.2462L92.2001 64.5C92.7501 64.95 92.8001 65.75 92.3501 66.25C92.1001 66.55 91.7501 66.7 91.4001 66.7C91.1001 66.7 90.8501 66.6 90.6001 66.4L78.1325 55.9948L70.9301 63.0644L80.6501 70.5C81.2001 70.9 81.3 71.7 80.9001 72.25C80.6501 72.55 80.3001 72.75 79.9001 72.75C79.6501 72.75 79.3501 72.65 79.1501 72.5L69.128 64.8333L-2.76656 135.402C2.20677 138.92 7.18733 142.234 11.95 145.4C23.8691 153.319 34.4274 160.353 41.0153 167.737ZM-4.86964 133.901L6.33234 122.917L-32.7759 67.0415L-48.5375 74.8968C-45.1704 100.793 -25.3516 119.151 -4.86964 133.901ZM-48.8741 72.2651L-33.082 64.3872C-32.9859 64.3201 -32.8826 64.2693 -32.7753 64.2342L-5.85907 50.8071L-13.5636 7.34029L-35.6409 21.1441L-31.1499 36.6499C-30.9499 37.2999 -31.3499 37.9999 -31.9999 38.1999C-32.0999 38.2499 -32.1999 38.2499 -32.3499 38.2499C-32.8999 38.2499 -33.3999 37.8999 -33.5499 37.3499L-37.8446 22.522L-59.4547 36.0337C-54.7344 46.2385 -50.8025 58.1486 -48.8741 72.2651ZM-60.5196 33.7867L-37.882 19.6325C-37.798 19.5636 -37.7046 19.5047 -37.6035 19.4584L-14.0284 4.71808L-19.6824 -27.1798C-49.2744 -13.2608 -75.1139 5.58783 -76.9511 6.92802C-71.6681 14.3781 -65.6934 23.1257 -60.5196 33.7867ZM-79.834 2.8721C-78.7749 2.07719 -72.7451 -2.30991 -63.7004 -8.15858L-71.9717 -51.7092L-96.4983 -44.7211C-93.8891 -33.3016 -92.0858 -24.3692 -91.7 -20.05C-91.0846 -13.2815 -86.1679 -6.06497 -79.834 2.8721ZM-97.0632 -47.1783L-72.4464 -54.2084L-81.9904 -104.46C-89.3259 -103.634 -95.6821 -102.669 -101.05 -101.7C-104.32 -101.11 -107.339 -100.5 -110.108 -99.8897C-105.366 -81.475 -100.578 -62.3754 -97.0632 -47.1783ZM44.9014 230.878C31.4774 239.457 21.9563 248.597 15.6001 255.95C7.94919 264.773 3.67146 272.289 1.70261 276.239L-20.239 209.8L35.279 168.915C37.4088 171.013 39.1763 173.1 40.5 175.2C49.2 189 47.55 204.6 45.95 219.7C45.532 223.515 45.126 227.251 44.9014 230.878ZM33.4307 167.171C27.2681 161.586 18.717 155.878 9.30003 149.6L9.23036 149.554C-5.1588 139.97 -21.4743 129.103 -33.9179 115.288L-49.45 121.35L-39.8146 150.525C-39.8097 150.534 -39.8048 150.542 -39.8 150.55C-39.7364 150.677 -39.6953 150.811 -39.6757 150.946L-21.0638 207.303L33.4307 167.171ZM-95.85 345.5L-125.866 265.987L-22.4443 211.116L3.49829 289.685L-95.85 345.5ZM294.958 21.1466L311.227 92.0039C311.237 92.0897 311.256 92.1758 311.286 92.2613L328.4 166.8C328.45 167 328.55 167.15 328.65 167.3L367.94 217.694L330.474 227.166C318.342 160.548 303.031 87.1488 288.841 22.2859L294.958 21.1466ZM284.091 0.695206L289.917 -0.809555L294.4 18.7167L288.309 19.8514C286.89 13.3732 285.482 6.98268 284.091 0.695206ZM286.336 293.088C280.311 293.325 274.45 293.892 268.769 294.788L254.061 240.987L307.4 227C307.95 226.85 308.35 226.35 308.35 225.8V184.65C308.35 184.55 308.35 184.45 308.3 184.35C300.579 154.276 295.411 127.775 291.972 105.179C292.404 104.72 292.427 103.975 292 103.5C291.907 103.396 291.799 103.312 291.681 103.248C286.642 69.4921 285.488 44.648 285.397 29.8534C302.418 107.929 320.83 197.43 333.302 272.255C301.06 278.447 289.748 288.813 286.336 293.088ZM289.782 292.989C300.103 292.801 310.886 293.566 322.05 295.3C327.165 296.09 332.219 296.471 337.202 296.442C336.102 289.363 334.936 282.111 333.71 274.711C305.952 280.032 294.261 288.465 289.782 292.989ZM169.168 263.248L236.324 245.638C236.381 245.646 236.44 245.65 236.5 245.65C236.794 245.65 237.061 245.553 237.272 245.389L251.609 241.63L266.285 295.202C265.738 295.298 265.193 295.398 264.65 295.5C250.55 298.15 237.65 302.9 226.2 309.6C211.681 318.082 203.335 327.497 199.841 332.031C181.277 314.838 178.635 303.616 170.25 267.85L170.062 267.048C169.772 265.817 169.475 264.55 169.168 263.248ZM168.608 260.873L235.25 243.375V196.9L209.164 152.803C189.65 163.302 168.701 174.29 148.662 184.41C150.083 189.89 151.642 195.646 153.35 201.7C160.357 226.46 165.072 245.899 168.608 260.873ZM305.8 224.85L237.75 242.718V226.386L305.8 204.612V224.85ZM305.8 202.022L237.75 223.796V197.465L303.459 175.465C304.212 178.536 304.992 181.648 305.8 184.8V202.022ZM302.859 172.999L237.081 195.022L234.116 190.01L301.7 168.154C302.079 169.757 302.465 171.372 302.859 172.999ZM278.326 173.137L232.854 187.875L211.4 151.599C248.643 131.52 280.265 113.432 289.666 106.928C292.321 124.066 296.011 143.761 301.135 165.745L280.723 172.361L271.35 150.65C271.05 150 270.35 149.75 269.7 150C269.05 150.3 268.8 151 269.05 151.65L278.326 173.137ZM251.128 126.981C239.084 133.768 225.048 141.502 210.101 149.557L190.209 121.569C196.168 118.651 202.765 116.172 210 114.45C210.55 114.35 210.95 113.85 210.95 113.25V98.25C210.95 97.55 210.4 97 209.7 97C209 97 208.45 97.55 208.45 98.25V112.3C201.269 114.091 194.707 116.605 188.767 119.539L179.5 106.5C179.1 105.95 178.3 105.8 177.75 106.2C177.2 106.6 177.05 107.4 177.45 107.95L186.495 120.697C173.664 127.439 163.895 136.058 157.2 143.25C150.37 150.572 145.755 157.308 143.168 161.511C131.638 108.691 135.593 86.1415 140.05 60.75L140.272 59.484L140.272 59.4835L140.272 59.4832C140.777 56.6065 141.288 53.6913 141.781 50.6901L153.849 48.1562L164.75 92.2C164.9 92.75 165.4 93.15 165.95 93.15C166.05 93.15 166.15 93.15 166.25 93.1C166.9 92.95 167.3 92.25 167.15 91.6L156.271 47.6475L189.529 40.6643C198.019 56.8171 204.173 73.1494 208.45 86.55C208.65 87.05 209.1 87.4 209.65 87.4C209.8 87.4 209.9 87.4 210 87.35C210.65 87.15 211 86.45 210.8 85.8C206.479 72.2105 200.207 55.5924 191.527 39.1579C191.524 39.0894 191.515 39.0199 191.5 38.9499C191.435 38.6693 191.268 38.4259 191.046 38.252C183.845 24.7612 175.014 11.434 164.3 0.0500183C154.238 -10.6792 145.905 -16.0875 141.598 -18.4736L141.566 -18.7249L141.527 -19.0331L192.372 -41.5393C195.06 -37.4812 206.8 -19.4456 219.008 5.37106C219.02 5.41415 219.034 5.45712 219.05 5.49991C219.087 5.58363 219.133 5.66217 219.186 5.73454C220.44 8.2879 221.697 10.9123 222.95 13.6C248.034 67.3863 252.18 104.855 251.128 126.981ZM187.931 122.721L207.838 150.776C188.555 161.145 167.863 171.993 148.042 182.001C146.518 176.035 145.161 170.401 143.958 165.068C145.992 161.52 150.977 153.532 159.1 144.85C165.689 137.8 175.294 129.318 187.931 122.721ZM59.3596 132.56L81.1955 179.109L140.576 172.71C126.022 111.571 130.276 87.3114 135.098 59.81L135.1 59.8C135.614 56.9001 136.127 53.9672 136.623 50.9541L125.893 47.0107C125.249 49.7756 123.403 56.1814 118.6 65.15C115.087 71.726 109.482 80.5201 100.789 90.6333C101.086 90.5973 101.395 90.6645 101.65 90.8499L101.657 90.8553C101.942 91.0678 106.607 94.545 107.3 104.2C107.35 104.9 106.85 105.5 106.15 105.55H106.05C105.4 105.55 104.85 105.05 104.8 104.4C104.221 96.0952 100.517 93.1524 100.219 92.9151L100.218 92.9147C100.208 92.9066 100.202 92.9016 100.2 92.9C99.8779 92.6657 99.693 92.2942 99.6754 91.9161C94.0959 98.2857 87.3011 105.153 79.05 112.3C70.7034 119.526 64.2861 126.319 59.3596 132.56ZM94.6031 207.691L82.3263 181.519L141.169 175.179C141.886 178.137 142.647 181.18 143.452 184.312C125.771 193.184 108.937 201.295 94.6031 207.691ZM289.249 104.199C284.845 107.489 271.699 115.348 253.695 125.532C254.819 94.028 245.051 60.2812 234.069 32.8723L282.35 15.9306C282.564 16.9053 282.779 17.882 282.993 18.8608C282.73 25.6291 282.579 39.0287 284 58.3C284.88 70.2634 286.454 85.6813 289.249 104.199ZM202.191 -86.8615C198.612 -78.5247 196.212 -69.0224 195.005 -58.4579L260.16 -82.6678C258.34 -90.5742 256.619 -98.0073 255.015 -104.901L202.191 -86.8615ZM254.439 -107.378L203.635 -90.028C208.523 -100.053 215.177 -108.307 223.5 -114.5C234.415 -122.629 245.418 -125.165 250.104 -125.91C251.418 -120.32 252.869 -114.121 254.439 -107.378ZM194.1 -43.5C194.147 -47.717 194.355 -51.7976 194.723 -55.7366L260.725 -80.2137C262.875 -70.8631 265.159 -60.8758 267.546 -50.3567L204.771 -26.3407C199.17 -35.8771 195.083 -42.0501 194.1 -43.5ZM206.033 -24.1791L268.097 -47.9235C270.19 -38.6886 272.36 -29.0562 274.587 -19.0958L220.834 3.37589C215.562 -7.26758 210.403 -16.645 206.033 -24.1791ZM221.943 5.63031L275.142 -16.61C277.317 -6.87158 279.544 3.1716 281.806 13.4557L233.131 30.5529C230.513 24.1442 227.844 18.1052 225.25 12.55C224.149 10.1936 223.044 7.88535 221.943 5.63031ZM188.299 38.3559C181.334 25.4651 172.863 12.7837 162.65 1.90002C153.926 -7.41179 146.446 -12.6848 141.987 -15.364C144.503 5.24268 145.26 21.0525 144.25 31.9C143.717 37.6783 143.001 42.9744 142.213 47.9998L188.299 38.3559ZM121.098 -105.733L85.2325 -106.242L90.4281 -70.8789L114.85 -73.55C115.5 -73.6 116.1 -73.15 116.2 -72.5L117.6 -63.05C117.7 -62.35 117.25 -61.75 116.55 -61.65C116.6 -61.55 116.5 -61.55 116.45 -61.55C115.85 -61.55 115.3 -62 115.2 -62.6L113.95 -70.9L90.7945 -68.3852L94.8735 -40.6225C106.077 -39.0744 117.937 -37.9504 133.679 -38.2771C130.073 -61.2852 125.368 -85.4028 121.098 -105.733ZM88.1891 -69.1664L92.3336 -40.9817C89.4135 -41.4035 86.5218 -41.8491 83.6001 -42.3L83.2475 -42.3537C69.5561 -44.4374 55.3204 -46.6039 34.4001 -47.05C27.6278 -47.1919 20.1075 -46.2337 11.866 -44.1888C5.07335 -56.0143 0.697769 -111.071 -1.22392 -141.042L35.1978 -142.188C35.1984 -142.176 35.1991 -142.163 35.2 -142.15L37.7 -108.05C37.75 -107.4 38.3 -106.9 38.95 -106.9L82.732 -106.278L88.1463 -69.458C88.1462 -69.4223 88.1475 -69.3863 88.1501 -69.35C88.1591 -69.2867 88.1722 -69.2255 88.1891 -69.1664ZM82.3624 -108.792L77.2568 -143.512L37.7062 -142.267L40.15 -109.4L82.3624 -108.792ZM125.327 44.1384L98.659 34.3395L96.1421 -18.5164C96.1798 -18.6368 96.2 -18.7657 96.2 -18.9C96.2 -19.0779 96.1646 -19.246 96.1001 -19.3979L95.3332 -35.5025C100.4 -34.8131 105.618 -34.2156 111.277 -33.803L113.8 13.95C113.85 14.65 114.4 15.15 115.05 15.15H115.1C115.8 15.15 116.35 14.55 116.3 13.85L113.791 -33.634C120 -33.252 126.766 -33.0978 134.447 -33.2858C138.328 -7.5265 140.665 16.3663 139.25 31.35C138.644 37.4955 137.872 43.1082 137.029 48.438L125.483 44.1955C125.433 44.1733 125.381 44.1541 125.327 44.1384ZM96.1867 33.4311L93.7342 -17.65H66.05C65.35 -17.65 64.8 -18.2 64.8 -18.9C64.8 -19.6 65.35 -20.15 66.05 -20.15H93.6142L92.8605 -35.8474C89.5235 -36.3235 86.2318 -36.8334 82.9001 -37.3501L82.5674 -37.4012L82.5672 -37.4013C72.1254 -39.0079 61.3624 -40.6638 47.5526 -41.5203L51.9868 -17.0199C52.0421 -16.9073 52.0811 -16.7832 52.1001 -16.6501C52.1282 -16.5188 52.1352 -16.3892 52.1234 -16.2647L58.6193 19.6274L96.1867 33.4311ZM28.6113 101.072L95.2359 35.7444L57.7001 21.9499L-3.07263 52.2379L-2.44998 55.75L28.6113 101.072ZM-4.64999 57L26.7908 102.857L8.14987 121.135L-30.5037 65.9091L-5.39986 53.3978L-4.84999 56.5C-4.79999 56.7 -4.74998 56.85 -4.64999 57ZM44.9945 -41.6678L49.3855 -17.4057L12.0037 -10.1826L6.70396 -37.5557C16.3671 -40.4893 25.8068 -42.236 34.3501 -42.05C38.102 -41.9777 41.6381 -41.8465 44.9945 -41.6678ZM49.8291 -14.9545L12.4772 -7.73718L21.1001 36.7999C21.1418 36.9947 21.1371 37.1856 21.0934 37.3619L56.1339 19.882L49.8291 -14.9545ZM4.3118 -36.807C-2.90652 -34.481 -10.218 -31.5312 -17.3449 -28.2652L-11.6494 3.86046C-11.428 3.95529 -11.2344 4.1194 -11.0999 4.34996C-10.7955 4.87195 -10.8694 5.50746 -11.2888 5.89435L-3.5321 49.6463L19.4637 38.1749C19.0673 38.0324 18.7617 37.6966 18.6501 37.2499L4.3118 -36.807ZM-18.1808 -128.5H-31.0999V-109.25C-26.8381 -109.191 -22.4312 -109.074 -17.8798 -108.89L-18.1808 -128.5ZM-15.3767 -108.783L-15.6807 -128.5H-2.86853C-2.40622 -122.051 -1.86224 -115.06 -1.23564 -107.953C-6.09142 -108.302 -10.8053 -108.576 -15.3767 -108.783ZM-17.7863 -106.386C-42.7682 -107.417 -63.37 -106.425 -79.5062 -104.73L-77.7735 -95.6069L-69.5499 -97.35C-68.8499 -97.5 -68.1999 -97.05 -68.0499 -96.4C-67.8999 -95.7 -68.3499 -95.05 -68.9999 -94.9L-77.3049 -93.1397L-75.5364 -83.8278L-67.6 -85.9C-66.95 -86.05 -66.25 -85.65 -66.1 -85C-65.95 -84.35 -66.35 -83.65 -67 -83.5L-75.0737 -81.3919L-73.6147 -73.7099L-67.6 -75.15C-66.95 -75.3 -66.25 -74.9 -66.1 -74.25C-65.95 -73.6 -66.35 -72.9 -67 -72.75L-73.1526 -71.2769L-71.6741 -63.4921L-64.35 -64.8C-63.65 -64.9 -63 -64.45 -62.9 -63.8C-62.8 -63.15 -63.25 -62.45 -63.9 -62.35L-71.2093 -61.0448L-70.0166 -54.765L-47.9662 -58.1225L-52.0499 -82.15C-52.1499 -82.8 -51.6999 -83.45 -51.0499 -83.6L-38.1999 -85.95C-37.4999 -86.1 -36.8499 -85.6 -36.7499 -84.95C-36.6499 -84.25 -37.0999 -83.6 -37.7499 -83.5L-49.3999 -81.4L-45.4957 -58.4986L-10.35 -63.8501L-17.7863 -106.386ZM-69.5412 -52.2617L-8.69998 -61.5501C-8.34998 -61.6001 -8.04997 -61.7501 -7.84998 -62.0501C-7.64998 -62.3501 -7.59998 -62.6501 -7.64996 -63.0001L-15.2142 -106.273C-10.6233 -106.06 -5.88808 -105.78 -1.00903 -105.423C2.03452 -71.8868 5.51051 -51.0994 9.3786 -43.5446C-5.0489 -39.6534 -21.6038 -32.5492 -40.1499 -22.3C-48.0757 -17.9145 -55.3437 -13.4979 -61.4406 -9.6098L-69.5412 -52.2617ZM-63.9551 -128.5H-33.5999V-109.278C-38.0458 -109.316 -42.3293 -109.29 -46.45 -109.21V-124.7C-46.45 -125.4 -47 -125.95 -47.7 -125.95C-48.4 -125.95 -48.95 -125.4 -48.95 -124.7V-109.154C-53.8262 -109.031 -58.4667 -108.832 -62.8703 -108.574L-63.9551 -128.5Z" fill="white"/>
</g>
<rect width="375" height="160" fill="url(#paint0_radial_0_550)"/>
</g>
<defs>
<radialGradient id="paint0_radial_0_550" cx="0" cy="0" r="1" gradientUnits="userSpaceOnUse" gradientTransform="translate(36.0701 61.4775) rotate(90) scale(98.5225 230.912)">
<stop stop-color="white" stop-opacity="0.01"/>
<stop offset="1" stop-color="white"/>
</radialGradient>
</defs>
</svg>
