<svg width="165" height="165" viewBox="0 0 165 165" fill="none" xmlns="http://www.w3.org/2000/svg">
<circle cx="82.5" cy="82.5" r="82.5"/>
<mask id="mask0_0_2963" style="mask-type:luminance" maskUnits="userSpaceOnUse" x="0" y="0" width="165" height="165">
<circle cx="82.5" cy="82.5" r="82.5" fill="white"/>
</mask>
<g mask="url(#mask0_0_2963)">
<rect width="1000" height="1000" transform="translate(-441 -339)" fill="white"/>
<rect x="-441" y="-339" width="1000" height="1000" fill="#FFF6E9"/>
<mask id="mask1_0_2963" style="mask-type:luminance" maskUnits="userSpaceOnUse" x="-441" y="-339" width="1000" height="1000">
<rect x="-441" y="-339" width="1000" height="1000" fill="white"/>
</mask>
<g mask="url(#mask1_0_2963)">
<path fill-rule="evenodd" clip-rule="evenodd" d="M371.6 -30.3L298.8 -358H674.9L580.5 -77L371.6 -30.3ZM-75.2 13.6L-98.7 -116.8L82.9 -99.4L93.2 -17.6L85.8 72.7L-75.2 13.6ZM-375 660.4L-298.5 659.3L-122.4 660.4L-117.4 599.6L-142.6 566.1L-180.2 553L-375 660.4ZM242.5 605.6L353.9 563.5L489.9 570.1L559.7 553.2L563.5 603.1L558.5 663.9L382.4 662.9L229 660.4L209.7 644.6L242.5 605.6ZM100.8 341.9L141.6 498.2L282.7 461.2V365.5L229 274.7L100.8 341.9ZM453.3 237.3L414.8 67.7L573.1 27.7L645.7 156.2L469 305.5L453.3 237.3Z" fill="#BBEC95"/>
<path fill-rule="evenodd" clip-rule="evenodd" d="M-7.89993 677.1C-7.49994 679.5 -5.39993 681.2 -2.99994 681.2C-2.69992 681.2 -2.29993 681.1 -2.09995 681C0.600037 680.5 2.40009 677.9 1.90009 675.2C-11.0999 607 -45.4999 547.2 -68.2999 507.7C-77.9999 491 -85.5999 477.8 -88.2999 469.6C-91.7701 459.255 -92.0679 447.281 -91.2424 434.408C-76.9161 425.829 -60.5031 417.646 -41.7999 410.5C-7.5715 397.408 42.7491 373.741 97.1509 346.439C99.8522 356.801 102.796 367.642 106 379C122.2 436.4 131.9 477.6 139.7 510.8C157.076 584.875 162.632 608.495 204.179 646.303C204.482 647.535 205.255 648.653 206.4 649.4C207.053 649.89 207.774 650.113 208.506 650.179C215.952 656.747 224.473 663.783 234.3 671.6C235.2 672.3 236.3 672.7 237.4 672.7C238.8 672.7 240.3 672.1 241.4 671C243.1 668.9 242.8 665.7 240.6 664C231.369 656.651 223.346 650.057 216.32 643.92C222.352 635.965 238.315 617.444 266.6 600.9C288.5 588 313.3 578.9 340.3 573.8C341.602 573.554 342.91 573.318 344.223 573.09L361.1 634.7C361.4 635.8 362.4 636.5 363.5 636.5H364.1C365.5 636.1 366.3 634.7 365.9 633.4L349.191 572.279C380.716 567.43 415.165 567.837 451.7 573.5C462.933 575.224 474.021 576.019 484.945 575.884C489.592 606.329 493.593 635.077 496.8 661.6C497.1 664.1 499.3 666 501.8 666H502.3C505.1 665.6 507 663.1 506.7 660.4C503.519 634.106 499.56 605.634 494.966 575.495C520.989 573.793 546.024 566.703 569.8 554.2C598.9 538.9 626.2 515.5 650.7 484.7C692.3 432.5 711.5 377.9 712.3 375.6C713.2 373 711.8 370.1 709.2 369.2C706.6 368.3 703.7 369.7 702.8 372.3C702.794 372.314 702.774 372.37 702.739 372.467C701.508 375.851 682.172 429.016 642.8 478.4C619.1 508.1 592.9 530.6 565 545.3C542.316 557.263 518.349 564.013 493.436 565.548C489.849 542.421 485.905 518.368 481.669 493.611L592.2 464.2C593.6 463.8 594.4 462.4 594 461.1C593.6 459.7 592.2 458.9 590.9 459.3L480.808 488.594C477.634 470.149 474.301 451.324 470.834 432.211L548.204 412.651L576.7 449.2C577.2 449.9 578 450.2 578.7 450.2C579.3 450.2 579.8 450.1 580.3 449.6C581.4 448.8 581.5 447.2 580.7 446.1L553.562 411.296L584.4 403.5C585.7 403.2 586.5 401.8 586.2 400.5C585.9 399.2 584.5 398.4 583.2 398.7L550.238 407.033L490.464 330.374L579.4 308.5C580.7 308.2 581.5 306.8 581.2 305.5C580.9 304.2 579.5 303.4 578.2 303.7L487.13 326.099L471.77 306.401L580.3 213.6C581.4 212.7 581.5 211.1 580.6 210.1C579.7 209 578.1 208.9 577.1 209.8L469.825 301.528L436.935 158.346L584.6 106.2C585.9 105.7 586.6 104.3 586.1 103C585.6 101.7 584.2 101 582.9 101.5L435.809 153.444L416.686 70.1968L584.4 27.7C585.7 27.4 586.5 25.9999 586.2 24.7C585.9 23.4 584.5 22.5999 583.2 22.9L415.578 65.3735L403.862 14.3719L559.4 -14.6C560.8 -14.8 561.7 -16.1 561.4 -17.5C561.2 -18.9001 559.9 -19.7 558.5 -19.5L402.746 9.51221L393.698 -29.8754L426.778 -38.4201C426.868 -38.4343 426.976 -38.4586 427.1 -38.5001C427.189 -38.5191 427.275 -38.5425 427.359 -38.5701L565.3 -74.2001C566.6 -74.5001 567.4 -75.9001 567.1 -77.2001C566.8 -78.5001 565.4 -79.3001 564.1 -79.0001L428.421 -43.9543L417.2 -91.5001L549.434 -124.601C549.456 -124.6 549.478 -124.6 549.5 -124.6C549.59 -124.6 549.68 -124.62 549.779 -124.643C549.9 -124.67 550.035 -124.7 550.2 -124.7C550.38 -124.755 550.549 -124.83 550.708 -124.92L573 -130.5C574.3 -130.8 575.1 -132.2 574.8 -133.5C574.5 -134.8 573.1 -135.6 571.8 -135.3L551.376 -130.188L526 -227.2C525.6 -228.5 524.2 -229.4 522.9 -229C521.6 -228.6 520.8 -227.2 521.1 -225.9L546.458 -128.956L413.6 -95.7001C412.3 -95.4001 411.5 -94.0001 411.8 -92.7001L423.538 -42.6931L376.112 -30.4431C338.856 -198.624 307.621 -328.907 303.378 -346.601L303.378 -346.603C303.105 -347.744 302.943 -348.416 302.9 -348.6C302.3 -351.3 299.6 -352.9 296.9 -352.3C294.2 -351.7 292.6 -349 293.2 -346.3C293.244 -346.115 293.406 -345.44 293.68 -344.294L293.681 -344.292C295.231 -337.828 300.368 -316.404 308.075 -283.641C298.013 -282.074 275.75 -276.899 253.2 -260.1C235.7 -247.1 221.7 -229.9 211.6 -208.8C210.971 -207.492 210.358 -206.17 209.759 -204.832L208.2 -204.3C206.8 -203.8 206.2 -202.4 206.6 -201.1C206.808 -200.581 207.177 -200.143 207.624 -199.841C200.526 -182.466 195.864 -162.743 193.663 -140.925C193.55 -140.587 193.51 -140.224 193.558 -139.858C192.778 -131.813 192.331 -123.486 192.218 -114.888L93.4557 -71.1439C108.125 -92.8562 124.537 -141.102 142.3 -215.1C143.84 -221.471 145.332 -227.804 146.771 -234.043C146.981 -234.411 147.1 -234.839 147.1 -235.3C147.1 -235.33 147.1 -235.361 147.099 -235.391C147.098 -235.412 147.097 -235.433 147.096 -235.454C159.772 -290.611 168.211 -338.065 168.3 -338.6C168.6 -340 167.7 -341.3 166.3 -341.5C164.9 -341.8 163.6 -340.9 163.4 -339.5C163.224 -338.442 154.943 -292.219 142.526 -237.8H92.5001C91.1 -237.8 90.0001 -236.7 90.0001 -235.3C90.0001 -233.9 91.1 -232.8 92.5001 -232.8H141.378C127.534 -172.81 108.892 -104.375 90.6304 -75.7659C86.1743 -108.236 79.7955 -145.926 71.5001 -188.7C55.8001 -269.6 38.8001 -339.4 38.6001 -340.1C38.0001 -342.8 35.3001 -344.5 32.6001 -343.8C29.9001 -343.2 28.2001 -340.5 28.9001 -337.8C29.1627 -336.787 38.744 -297.373 50.1392 -243.483L-21.2735 -244.512L-31.7807 -316.027C-31.7278 -316.241 -31.6999 -316.466 -31.6999 -316.7C-31.7305 -317.128 -31.8545 -317.528 -32.052 -317.874L-35.2 -339.3C-35.3999 -340.7 -36.5999 -341.6 -37.9999 -341.4C-39.3999 -341.2 -40.3 -340 -40.0999 -338.6L-37.219 -319.008L-193.764 -314.077C-194.976 -333.459 -195.621 -346.584 -195.694 -348.073L-195.694 -348.075L-195.694 -348.076V-348.077L-195.7 -348.2C-195.8 -349.6 -196.9 -350.7 -198.3 -350.6C-199.7 -350.5 -200.8 -349.4 -200.7 -348C-200.684 -347.904 -200.609 -346.523 -200.476 -344.048C-200.167 -338.311 -199.54 -326.7 -198.592 -311.614C-198.597 -311.543 -198.6 -311.472 -198.6 -311.4C-198.6 -311.244 -198.583 -311.09 -198.55 -310.941C-198.127 -304.23 -197.641 -296.847 -197.091 -289H-224.9H-255.7H-319.182L-322.4 -348.1C-322.4 -349.5 -323.6 -350.6 -325 -350.5C-326.4 -350.5 -327.5 -349.3 -327.4 -347.9L-321.735 -243.839C-341.634 -242.545 -359.01 -240.649 -373.838 -238.552L-381.5 -348.3C-381.6 -349.7 -382.8 -350.7 -384.2 -350.6C-385.6 -350.5 -386.6 -349.3 -386.5 -347.9L-378.816 -237.827C-384.326 -237 -389.455 -236.15 -394.2 -235.3C-400.807 -234.108 -406.896 -232.882 -412.475 -231.658C-428.93 -295.405 -444.752 -353.791 -446.1 -358.7C-446.8 -361.3 -449.5 -362.9 -452.2 -362.2C-454.8 -361.5 -456.4 -358.8 -455.7 -356.1C-455.358 -354.877 -439.109 -294.958 -422.174 -229.415C-446.865 -223.398 -459.053 -217.977 -459.885 -217.607L-459.9 -217.6C-461.1 -217 -461.7 -215.6 -461.1 -214.3C-460.7 -213.3 -459.8 -212.8 -458.8 -212.8C-458.5 -212.8 -458.1 -212.9 -457.9 -213C-457.886 -213.005 -457.823 -213.031 -457.712 -213.078C-456.073 -213.769 -443.913 -218.893 -420.912 -224.526C-411.348 -187.426 -401.685 -148.957 -394.654 -118.636L-441.7 -105.2C-443 -104.8 -443.8 -103.4 -443.4 -102.1C-443.1 -101 -442.1 -100.3 -441 -100.3C-440.9 -100.3 -440.775 -100.325 -440.65 -100.35C-440.525 -100.375 -440.4 -100.4 -440.3 -100.4L-393.522 -113.728C-388.445 -91.5672 -384.948 -74.3325 -384.2 -66.1001C-382.716 -49.2872 -371.354 -33.2568 -356.981 -12.9787L-356.5 -12.3C-333.8 19.4999 -305.6 59.0999 -297.9 123.1C-294.28 153.11 -280.704 178.125 -262.31 199.62L-293.9 211.9C-295.2 212.4 -295.8 213.7 -295.4 215L-275.886 274.1L-511.2 398.9C-512.4 399.6 -512.8 401.1 -512.2 402.3C-511.8 403.1 -510.9 403.6 -510 403.6C-509.6 403.6 -509.2 403.6 -508.9 403.4L-274.291 278.928L-237.483 390.405L-444.501 500.286L-456.5 468.5C-457 467.2 -458.4 466.5 -459.7 467C-461 467.5 -461.7 468.9 -461.2 470.2L-448.959 502.652L-472.6 515.2C-473.8 515.9 -474.2 517.4 -473.6 518.6C-473.2 519.4 -472.3 519.9 -471.4 519.9C-471.1 519.9 -470.7 519.8 -470.3 519.6L-447.191 507.339L-386.4 668.5C-386.1 669.2 -385.6 669.8 -384.9 670C-384.6 670.2 -384.3 670.2 -384 670.2C-383.6 670.2 -383.2 670.1 -382.8 669.9L-180.616 556.215C-177.044 556.394 -149.523 558.515 -133.1 580.1C-119.2 598.3 -116.6 625.4 -125.5 660.4C-125.8 661.7 -125 663.1 -123.7 663.4C-123.5 663.5 -123.3 663.5 -123.1 663.5C-122 663.5 -120.9 662.7 -120.6 661.6C-111.4 625 -114.2 596.5 -129.1 577C-145.8 555.1 -172 551.7 -179.1 551.2L-185.33 532.335C-183.538 528.224 -175.058 509.971 -155.9 487.9C-143.929 474.133 -126.226 457.071 -101.483 440.83C-101.83 452.155 -101.021 462.891 -97.7 472.8C-94.5999 481.9 -86.7999 495.5 -76.8999 512.7L-76.5674 513.279C-54.1658 552.281 -20.5372 610.829 -7.89993 677.1ZM-90.7888 428.401C-76.9549 420.334 -61.2797 412.661 -43.5999 405.9C-32.6852 401.733 -20.1327 396.49 -6.33356 390.396L-75.6881 242.549C-77.676 245.202 -79.5282 247.802 -81.2536 250.346C-81.3414 250.729 -81.5235 251.093 -81.7999 251.4C-81.9342 251.561 -82.0828 251.7 -82.242 251.818C-102.528 282.338 -104.517 304.632 -104.117 314.448C-103.257 315.625 -102.451 316.809 -101.7 318C-82.4671 348.493 -86.0744 382.761 -89.2665 413.083L-89.2999 413.4L-89.3253 413.639C-89.8544 418.642 -90.3762 423.575 -90.7888 428.401ZM-108.969 308.474C-108.65 302.515 -107.459 294.605 -104.3 285C-101.25 275.713 -96.0031 263.94 -87.0219 250.255L-130.7 213.6C-131.8 212.7 -131.9 211.1 -131 210.1C-130.1 209 -128.5 208.9 -127.5 209.8L-84.2286 246.114C-82.1208 243.071 -79.831 239.941 -77.3436 236.731C-77.1972 236.451 -76.9995 236.195 -76.7596 235.98C-66.7061 223.114 -53.4835 208.963 -36.0999 193.9C-12.1999 173.2 20.7001 140.3 41.7001 101.3C51.5486 82.9422 55.0654 70.0472 56.1142 65.3049L4.60468 46.3752L-31.1721 81.4923L-6.59995 102C-5.49994 102.9 -5.39993 104.5 -6.29993 105.5C-6.79993 106.1 -7.49994 106.4 -8.19992 106.4C-8.79993 106.4 -9.29993 106.2 -9.79993 105.8L-34.735 84.9895L-49.1399 99.1288L-29.7 114C-28.5999 114.8 -28.3999 116.4 -29.2 117.5C-29.7 118.1 -30.3999 118.5 -31.2 118.5C-31.7 118.5 -32.2999 118.3 -32.7 118L-52.7441 102.667L-196.533 243.804C-186.586 250.841 -176.625 257.469 -167.1 263.8C-143.262 279.637 -122.145 293.705 -108.969 308.474ZM-200.739 240.803L-178.335 218.835L-256.552 107.083L-288.075 122.794C-281.341 174.585 -241.703 211.302 -200.739 240.803ZM-288.748 117.53L-257.165 101.775C-256.972 101.64 -256.765 101.538 -256.55 101.468L-202.718 74.6143L-218.127 -12.3195L-262.282 15.2883L-253.3 46.3C-252.9 47.5999 -253.7 48.9999 -255 49.3999C-255.2 49.4999 -255.4 49.4999 -255.7 49.4999C-256.8 49.4999 -257.8 48.8 -258.1 47.7L-266.689 18.044L-309.909 45.0673C-300.469 65.4769 -292.605 89.2971 -288.748 117.53ZM-312.039 40.5733L-266.764 12.2649C-266.596 12.1271 -266.409 12.0095 -266.208 11.9171L-219.057 -17.5639L-230.365 -81.3597C-289.549 -53.5215 -341.228 -15.8239 -344.902 -13.1438C-334.336 1.75626 -322.387 19.2514 -312.039 40.5733ZM-350.668 -21.2558C-348.55 -22.8457 -336.49 -31.6198 -318.401 -43.3171L-334.943 -130.418L-383.997 -116.442C-378.778 -93.6031 -375.172 -75.7385 -374.4 -67.1001C-373.169 -53.5631 -363.336 -39.13 -350.668 -21.2558ZM-385.126 -121.356L-335.893 -135.417L-354.981 -235.919C-369.652 -234.267 -382.364 -232.337 -393.1 -230.4C-399.64 -229.219 -405.678 -227.999 -411.217 -226.779C-401.733 -189.95 -392.156 -151.751 -385.126 -121.356ZM-101.197 434.757C-128.045 451.914 -147.087 470.193 -159.8 484.9C-175.102 502.545 -183.657 517.577 -187.595 525.478L-231.478 392.6L-120.442 310.829C-116.182 315.026 -112.647 319.2 -110 323.4C-92.5999 351 -95.8999 382.2 -99.0999 412.4C-99.9361 420.03 -100.748 427.502 -101.197 434.757ZM-124.138 307.342C-136.464 296.173 -153.566 284.756 -172.4 272.2L-172.539 272.107C-201.318 252.94 -233.949 231.207 -258.836 203.575L-289.9 215.7L-270.629 274.051L-270.616 274.073L-270.6 274.1C-270.473 274.354 -270.391 274.622 -270.351 274.893L-233.128 387.606L-124.138 307.342ZM-382.7 664L-442.731 504.973L-235.889 395.233L-184.003 552.369L-382.7 664ZM398.916 15.2932L431.454 157.008C431.474 157.18 431.512 157.352 431.572 157.523L465.8 306.6C465.9 307 466.1 307.3 466.3 307.6L544.88 408.388L469.947 427.332C445.684 294.095 415.062 147.298 386.683 17.5718L398.916 15.2932ZM377.182 -25.6095L388.833 -28.619L397.8 10.4334L385.617 12.7027C382.779 -0.253601 379.965 -13.0346 377.182 -25.6095ZM381.671 559.176C369.622 559.65 357.9 560.785 346.538 562.575L317.122 454.974L423.8 427C424.9 426.7 425.7 425.7 425.7 424.6V342.3C425.7 342.1 425.7 341.9 425.6 341.7C410.159 281.551 399.821 228.55 392.945 183.358C393.808 182.44 393.855 180.949 393 180C392.814 179.793 392.597 179.624 392.363 179.495C382.284 111.984 379.976 62.2959 379.794 32.7065C413.836 188.859 450.659 367.86 475.604 517.51C411.12 529.895 388.496 550.626 381.671 559.176ZM388.565 558.978C409.207 558.601 430.771 560.131 453.1 563.6C463.329 565.18 473.438 565.941 483.404 565.885C481.205 551.726 478.872 537.222 476.42 522.422C420.904 533.064 397.522 549.93 388.565 558.978ZM147.337 499.496L281.647 464.276C281.762 464.292 281.88 464.3 282 464.3C282.587 464.3 283.121 464.107 283.544 463.779L312.219 456.259L341.57 563.404C340.476 563.596 339.386 563.795 338.3 564C310.1 569.3 284.3 578.8 261.4 592.2C232.361 609.164 215.67 627.994 208.683 637.063C171.554 602.676 166.269 580.232 149.5 508.7L149.124 507.101C148.546 504.636 147.95 502.102 147.337 499.496ZM146.217 494.746L279.5 459.749V366.8L227.328 278.607C188.3 299.605 146.402 321.58 106.325 341.821C109.165 352.781 112.283 364.292 115.7 376.4C129.714 425.92 139.145 464.797 146.217 494.746ZM420.6 422.7L284.5 458.436V425.772L420.6 382.224V422.7ZM420.6 377.044L284.5 420.592V367.931L415.919 323.931C417.424 330.071 418.983 336.295 420.6 342.6V377.044ZM414.717 318.997L283.161 363.043L277.233 353.019L412.401 309.308C413.158 312.514 413.93 315.744 414.717 318.997ZM365.653 319.274L274.708 348.749L231.8 276.198C306.286 236.039 369.529 199.864 388.332 186.856C393.642 221.132 401.022 260.522 411.271 304.49L370.446 317.721L351.7 274.3C351.1 273 349.7 272.5 348.4 273C347.1 273.6 346.6 275 347.1 276.3L365.653 319.274ZM311.257 226.962C287.168 240.537 259.096 256.004 229.202 272.114L189.419 216.137C201.337 210.303 214.53 205.344 229 201.9C230.1 201.7 230.9 200.7 230.9 199.5V169.5C230.9 168.1 229.8 167 228.4 167C227 167 225.9 168.1 225.9 169.5V197.6C211.538 201.183 198.415 206.21 186.534 212.078L168 186C167.2 184.9 165.6 184.6 164.5 185.4C163.4 186.2 163.1 187.8 163.9 188.9L181.99 214.394C156.329 227.878 136.789 245.117 123.4 259.5C109.74 274.144 100.51 287.615 95.3368 296.022C72.2759 190.382 80.1865 145.283 89.1001 94.4999L89.3065 93.3226L89.544 91.9679L89.5442 91.9669L89.5444 91.9663C90.5535 86.213 91.576 80.3827 92.5612 74.3803L116.697 69.3124L138.5 157.4C138.8 158.5 139.8 159.3 140.9 159.3C141.1 159.3 141.3 159.3 141.5 159.2C142.8 158.9 143.6 157.5 143.3 156.2L121.542 68.2951L188.058 54.3287C205.038 86.6342 217.345 119.299 225.9 146.1C226.3 147.1 227.2 147.8 228.3 147.8C228.6 147.8 228.8 147.8 229 147.7C230.3 147.3 231 145.9 230.6 144.6C221.957 117.421 209.414 84.1847 192.055 51.3158C192.048 51.1787 192.03 51.0399 192 50.8999C191.871 50.3387 191.536 49.8521 191.093 49.5043C176.691 22.5225 159.029 -4.13199 137.6 -26.9001C117.477 -48.3584 100.81 -59.175 92.197 -63.9473L92.1052 -64.6644L92.0535 -65.0663L193.744 -110.079C199.121 -101.963 222.6 -65.8915 247.015 -16.2583C247.039 -16.172 247.067 -16.0858 247.1 -16.0001C247.105 -15.9896 247.109 -15.9791 247.114 -15.9687L247.124 -15.9474C247.132 -15.9303 247.141 -15.9132 247.149 -15.8963L247.16 -15.8751C247.166 -15.8635 247.172 -15.852 247.178 -15.8405C247.187 -15.8231 247.197 -15.8058 247.206 -15.7885C247.215 -15.7737 247.223 -15.759 247.232 -15.7444C247.245 -15.7222 247.258 -15.7001 247.272 -15.6783C247.281 -15.664 247.29 -15.6497 247.3 -15.6356L247.318 -15.6085L247.336 -15.5826C247.348 -15.565 247.36 -15.5475 247.373 -15.5303C249.879 -10.4237 252.394 -5.17514 254.9 0.199951C305.068 107.773 313.36 182.71 311.257 226.962ZM184.862 218.442L224.675 274.551C186.11 295.291 144.727 316.986 105.085 337.003C102.036 325.071 99.3229 313.803 96.9161 303.136C100.983 296.04 110.954 280.064 127.2 262.7C140.377 248.6 159.588 231.636 184.862 218.442ZM-72.2807 238.12L-28.6089 331.218L90.1528 318.421C61.0435 196.142 69.5515 147.623 79.1966 92.62L79.2001 92.5999C80.2275 86.8002 81.2549 80.9345 82.2458 74.9083L60.7855 67.0216C59.4988 72.5515 55.8065 85.3629 46.2001 103.3C39.1736 116.452 27.9636 134.04 10.5771 154.267C11.1725 154.195 11.79 154.329 12.3 154.7L12.3143 154.711C12.8846 155.136 22.2137 162.09 23.6 181.4C23.7001 182.8 22.7001 184 21.3 184.1H21.1C19.8 184.1 18.7001 183.1 18.6 181.8C17.4413 165.19 10.0345 159.305 9.43738 158.83L9.43646 158.83C9.41577 158.813 9.40344 158.803 9.40009 158.8C8.7558 158.331 8.38599 157.589 8.35083 156.832C-2.80832 169.571 -16.3979 183.306 -32.8999 197.6C-49.5931 212.053 -62.4278 225.637 -72.2807 238.12ZM-1.79382 388.381L-26.3474 336.039L91.3388 323.357C92.7729 329.274 94.2934 335.36 95.9042 341.624C60.5426 359.367 26.8732 375.59 -1.79382 388.381ZM387.498 181.399C378.691 187.977 352.397 203.695 316.39 224.064C318.638 161.056 299.101 93.5625 277.138 38.7446L373.701 4.86124C374.129 6.81046 374.557 8.76385 374.987 10.7214C374.46 24.2579 374.157 51.0573 377 89.5999C378.761 113.527 381.907 144.363 387.498 181.399ZM213.381 -200.723C206.224 -184.049 201.425 -165.045 199.01 -143.916L329.32 -192.336C325.68 -208.148 322.237 -223.015 319.03 -236.803L213.381 -200.723ZM317.878 -241.756L216.27 -207.056C226.045 -227.105 239.354 -243.614 256 -256C277.831 -272.259 299.837 -277.33 309.208 -278.82C311.835 -267.64 314.737 -255.242 317.878 -241.756ZM197.2 -114C197.294 -122.434 197.709 -130.595 198.445 -138.473L330.45 -187.427C334.751 -168.726 339.318 -148.751 344.091 -127.713L218.542 -79.6814C207.341 -98.7542 199.166 -111.1 197.2 -114ZM221.066 -75.3581L345.195 -122.847C349.381 -104.377 353.72 -85.1124 358.174 -65.1915L250.668 -20.2481C240.124 -41.5351 229.806 -60.2899 221.066 -75.3581ZM252.886 -15.7393L359.285 -60.2198C363.634 -40.7431 368.089 -20.6568 372.612 -0.0886841L275.261 34.1058C270.027 21.2884 264.687 9.2103 259.5 -1.90009C257.298 -6.6127 255.089 -11.2292 252.886 -15.7393ZM185.598 49.7119C171.668 23.9302 154.726 -1.43274 134.3 -23.2001C116.852 -41.8237 101.892 -52.3698 92.9739 -57.7281C98.007 -16.5147 99.5207 15.1049 97.5001 36.8C96.4349 48.3565 95.0011 58.9488 93.4252 68.9997L185.598 49.7119ZM51.1965 -238.465L-20.5349 -239.485L-10.1436 -168.758L38.7001 -174.1C40.0001 -174.2 41.2001 -173.3 41.4001 -172L44.2001 -153.1C44.4001 -151.7 43.5001 -150.5 42.1001 -150.3C42.2001 -150.1 42.0001 -150.1 41.9001 -150.1C40.7001 -150.1 39.6001 -151 39.4001 -152.2L36.9001 -168.8L-9.41089 -163.77L-1.25299 -108.245C21.1545 -105.149 44.8745 -102.901 76.3589 -103.554C69.147 -149.57 59.7354 -197.806 51.1965 -238.465ZM-14.6216 -165.332L-6.3327 -108.963C-12.1729 -109.807 -17.9564 -110.698 -23.7999 -111.6L-24.505 -111.707C-51.8879 -115.875 -80.3592 -120.208 -122.2 -121.1C-135.744 -121.384 -150.785 -119.467 -167.268 -115.378C-180.853 -139.029 -189.604 -249.143 -193.448 -309.084L-120.604 -311.377L-120.603 -311.348L-120.602 -311.326L-120.6 -311.3L-115.6 -243.1C-115.5 -241.8 -114.4 -240.8 -113.1 -240.8L-25.5359 -239.556L-14.7075 -165.917C-14.7076 -165.845 -14.7051 -165.773 -14.6999 -165.7C-14.6818 -165.573 -14.6555 -165.451 -14.6216 -165.332ZM-26.2752 -244.584L-36.4863 -314.025L-115.588 -311.535L-110.7 -245.8L-26.2752 -244.584ZM59.6519 61.2759L6.31805 41.6791L1.28418 -64.0328C1.35956 -64.2737 1.40009 -64.5314 1.40009 -64.8C1.40009 -65.1557 1.3291 -65.4919 1.20026 -65.7957L-0.333496 -98.0049C9.80042 -96.626 20.2351 -95.4311 31.5534 -94.6059L36.6001 0.899933C36.7001 2.29993 37.8 3.29993 39.1001 3.29993H39.2001C40.6001 3.29993 41.7001 2.09995 41.6001 0.699951L36.5818 -94.2679C49.0007 -93.5039 62.5322 -93.1956 77.8936 -93.5716C85.6552 -42.053 90.3301 5.7326 87.5001 35.7C86.2883 47.991 84.7435 59.2165 83.0579 69.8761L59.968 61.392C59.8668 61.3467 59.7612 61.3078 59.6519 61.2759ZM1.37341 39.8622L-3.53149 -62.3H-58.8999C-60.2999 -62.3 -61.3999 -63.4001 -61.3999 -64.8C-61.3999 -66.2 -60.2999 -67.3 -58.8999 -67.3H-3.77155L-5.27884 -98.6946C-11.9529 -99.6469 -18.5364 -100.667 -25.2 -101.7L-25.8655 -101.802C-46.7492 -105.016 -68.2752 -108.328 -95.8947 -110.041L-87.0264 -61.0395C-86.9157 -60.8143 -86.838 -60.5662 -86.7999 -60.3C-86.7437 -60.0375 -86.7296 -59.7785 -86.7531 -59.5296L-73.7614 12.255L1.37341 39.8622ZM-133.777 175.144L-0.528259 44.4888L-75.5999 16.8999L-197.145 77.4759L-195.9 84.4999L-133.777 175.144ZM-200.3 86.9999L-137.418 178.714L-174.7 215.271L-252.007 104.818L-201.8 79.7956L-200.7 85.9999C-200.6 86.4 -200.5 86.7 -200.3 86.9999ZM-101.011 -110.335L-92.2289 -61.8114L-166.993 -47.3652L-177.592 -102.111C-158.266 -107.979 -139.387 -111.472 -122.3 -111.1C-114.796 -110.955 -107.724 -110.693 -101.011 -110.335ZM-91.3417 -56.9089L-166.046 -42.4743L-148.8 46.5999C-148.716 46.9895 -148.726 47.3713 -148.813 47.7238L-78.7322 12.764L-91.3417 -56.9089ZM-182.376 -100.614C-196.813 -95.9621 -211.436 -90.0624 -225.69 -83.5304L-214.299 -19.279C-213.856 -19.0893 -213.469 -18.7611 -213.2 -18.3C-212.591 -17.2561 -212.739 -15.9852 -213.578 -15.2114L-198.064 72.2926L-152.073 49.3498C-152.865 49.0648 -153.477 48.3932 -153.7 47.4999L-182.376 -100.614ZM-227.362 -284H-253.2V-245.5C-244.676 -245.383 -235.862 -245.148 -226.76 -244.78L-227.362 -284ZM-221.753 -244.566L-222.361 -284H-196.737C-195.812 -271.103 -194.724 -257.12 -193.471 -242.907C-203.183 -243.604 -212.611 -244.152 -221.753 -244.566ZM-226.573 -239.771C-276.536 -241.834 -317.74 -239.85 -350.012 -236.46L-346.547 -218.214L-330.1 -221.7C-328.7 -222 -327.4 -221.1 -327.1 -219.8C-326.8 -218.4 -327.7 -217.1 -329 -216.8L-345.61 -213.279L-342.073 -194.655L-326.2 -198.8C-324.9 -199.1 -323.5 -198.3 -323.2 -197C-322.9 -195.7 -323.7 -194.3 -325 -194L-341.148 -189.784L-338.23 -174.42L-326.2 -177.3C-324.9 -177.6 -323.5 -176.8 -323.2 -175.5C-322.9 -174.2 -323.7 -172.8 -325 -172.5L-337.305 -169.554L-334.348 -153.984L-319.7 -156.6C-318.3 -156.8 -317 -155.9 -316.8 -154.6C-316.6 -153.3 -317.5 -151.9 -318.8 -151.7L-333.419 -149.09L-331.033 -136.53L-286.932 -143.245L-295.1 -191.3C-295.3 -192.6 -294.4 -193.9 -293.1 -194.2L-267.4 -198.9C-266 -199.2 -264.7 -198.2 -264.5 -196.9C-264.3 -195.5 -265.2 -194.2 -266.5 -194L-289.8 -189.8L-281.992 -143.997L-211.7 -154.7L-226.573 -239.771ZM-330.082 -131.523L-208.4 -150.1C-207.7 -150.2 -207.1 -150.5 -206.7 -151.1C-206.3 -151.7 -206.2 -152.3 -206.3 -153L-221.428 -239.546C-212.247 -239.121 -202.776 -238.559 -193.018 -237.845C-186.931 -170.774 -179.979 -129.199 -172.243 -114.089C-201.098 -106.307 -234.208 -92.0984 -271.3 -71.6C-287.151 -62.8289 -301.687 -53.9958 -313.881 -46.2195L-330.082 -131.523ZM-318.91 -284H-258.2V-245.556C-267.092 -245.632 -275.659 -245.58 -283.9 -245.419V-276.4C-283.9 -277.8 -285 -278.9 -286.4 -278.9C-287.8 -278.9 -288.9 -277.8 -288.9 -276.4V-245.308C-298.652 -245.062 -307.933 -244.665 -316.741 -244.148L-318.91 -284Z" fill="white"/>
</g>
</g>
<circle cx="82.5" cy="82.5" r="82.5" fill="url(#paint0_radial_0_2963)"/>
<mask id="mask2_0_2963" style="mask-type:luminance" maskUnits="userSpaceOnUse" x="0" y="0" width="165" height="165">
<circle cx="82.5" cy="82.5" r="82.5" fill="white"/>
</mask>
<g mask="url(#mask2_0_2963)">
<path fill-rule="evenodd" clip-rule="evenodd" d="M101 79.106C101 90.154 91.3492 99.584 86.1808 103.842C84.3068 105.386 81.6932 105.386 79.8192 103.842C74.6507 99.584 65 90.154 65 79.106C65 69.1063 73.0589 61 83 61C92.9412 61 101 69.1063 101 79.106ZM89 77C89 80.3138 86.3138 83 83 83C79.6862 83 77 80.3138 77 77C77 73.6863 79.6862 71 83 71C86.3138 71 89 73.6863 89 77Z" fill="#FF7A28"/>
</g>
<defs>
<radialGradient id="paint0_radial_0_2963" cx="0" cy="0" r="1" gradientUnits="userSpaceOnUse" gradientTransform="translate(82.5 82.5) rotate(90) scale(82.5)">
<stop stop-color="white" stop-opacity="0.01"/>
<stop offset="1" stop-color="white"/>
</radialGradient>
</defs>
</svg>
