<svg width="375" height="160" viewBox="0 0 375 160" fill="none" xmlns="http://www.w3.org/2000/svg">
<rect width="375" height="160" fill="white"/>
<mask id="mask0_5_5190" style="mask-type:luminance" maskUnits="userSpaceOnUse" x="0" y="0" width="375" height="160">
<rect width="375" height="160" fill="white"/>
</mask>
<g mask="url(#mask0_5_5190)">
<rect width="500" height="500" transform="translate(-125 -156)" fill="#121826"/>
<rect x="-125" y="-156" width="500" height="500" fill="#121826"/>
<mask id="mask1_5_5190" style="mask-type:luminance" maskUnits="userSpaceOnUse" x="-125" y="-156" width="500" height="500">
<rect x="-125" y="-156" width="500" height="500" fill="white"/>
</mask>
<g mask="url(#mask1_5_5190)">
<path fill-rule="evenodd" clip-rule="evenodd" d="M281.3 -1.14999L244.9 -165H432.95L385.75 -24.5L281.3 -1.14999ZM57.9 20.8L46.15 -44.4L136.95 -35.7L142.1 5.20001L138.4 50.35L57.9 20.8ZM-92 344.2L-53.75 343.65L34.3 344.2L36.8 313.8L24.2 297.05L5.4 290.5L-92 344.2ZM216.75 316.8L272.45 295.75L340.45 299.05L375.35 290.6L377.25 315.55L374.75 345.95L286.7 345.45L210 344.2L200.35 336.3L216.75 316.8ZM145.9 184.95L166.3 263.1L236.85 244.6V196.75L210 151.35L145.9 184.95ZM322.15 132.65L302.9 47.85L382.05 27.85L418.35 92.1L330 166.75L322.15 132.65Z" fill="#8EE04E"/>
<path fill-rule="evenodd" clip-rule="evenodd" d="M91.55 352.55C91.75 353.75 92.8 354.6 94 354.6C94.15 354.6 94.35 354.55 94.45 354.5C95.8 354.25 96.7 352.95 96.45 351.6C89.95 317.5 72.75 287.6 61.35 267.85C56.5 259.5 52.7 252.9 51.35 248.8C49.615 243.627 49.466 237.64 49.8788 231.204C57.0419 226.915 65.2484 222.823 74.6 219.25C91.7142 212.704 116.875 200.87 144.075 187.22C145.426 192.4 146.898 197.821 148.5 203.5C156.6 232.2 161.45 252.8 165.35 269.4C174.038 306.438 176.816 318.247 197.589 337.152C197.741 337.767 198.128 338.327 198.7 338.7C199.027 338.945 199.387 339.057 199.753 339.089C203.476 342.373 207.736 345.891 212.65 349.8C213.1 350.15 213.65 350.35 214.2 350.35C214.9 350.35 215.65 350.05 216.2 349.5C217.05 348.45 216.9 346.85 215.8 346C211.185 342.326 207.173 339.029 203.66 335.96C206.676 331.982 214.657 322.722 228.8 314.45C239.75 308 252.15 303.45 265.65 300.9C266.301 300.777 266.955 300.659 267.611 300.545L276.05 331.35C276.2 331.9 276.7 332.25 277.25 332.25H277.55C278.25 332.05 278.65 331.35 278.45 330.7L270.095 300.139C285.858 297.715 303.083 297.918 321.35 300.75C326.967 301.612 332.511 302.01 337.972 301.942C340.296 317.164 342.297 331.538 343.9 344.8C344.05 346.05 345.15 347 346.4 347H346.65C348.05 346.8 349 345.55 348.85 344.2C347.259 331.053 345.28 316.817 342.983 301.747C355.994 300.896 368.512 297.352 380.4 291.1C394.95 283.45 408.6 271.75 420.85 256.35C441.65 230.25 451.25 202.95 451.65 201.8C452.1 200.5 451.4 199.05 450.1 198.6C448.8 198.15 447.35 198.85 446.9 200.15C446.899 200.153 446.895 200.162 446.891 200.176L446.869 200.233C446.254 201.925 436.586 228.508 416.9 253.2C405.05 268.05 391.95 279.3 378 286.65C366.658 292.632 354.675 296.006 342.218 296.774C340.424 285.211 338.453 273.184 336.334 260.805L391.6 246.1C392.3 245.9 392.7 245.2 392.5 244.55C392.3 243.85 391.6 243.45 390.95 243.65L335.904 258.297C334.317 249.074 332.65 239.662 330.917 230.106L369.602 220.325L383.85 238.6C384.1 238.95 384.5 239.1 384.85 239.1C385.15 239.1 385.4 239.05 385.65 238.8C386.2 238.4 386.25 237.6 385.85 237.05L372.281 219.648L387.7 215.75C388.35 215.6 388.75 214.9 388.6 214.25C388.45 213.6 387.75 213.2 387.1 213.35L370.619 217.517L340.732 179.187L385.2 168.25C385.85 168.1 386.25 167.4 386.1 166.75C385.95 166.1 385.25 165.7 384.6 165.85L339.065 177.049L331.385 167.2L385.65 120.8C386.2 120.35 386.25 119.55 385.8 119.05C385.35 118.5 384.55 118.45 384.05 118.9L330.413 164.764L313.967 93.173L387.8 67.0999C388.45 66.8499 388.8 66.1499 388.55 65.4999C388.3 64.8499 387.6 64.4999 386.95 64.7499L313.404 90.7217L303.843 49.0984L387.7 27.85C388.35 27.7 388.75 27 388.6 26.35C388.45 25.7 387.75 25.3 387.1 25.45L303.289 46.6868L297.431 21.186L375.2 6.70001C375.9 6.60001 376.35 5.95001 376.2 5.25002C376.1 4.55 375.45 4.15001 374.75 4.25002L296.873 18.7561L292.349 -0.937729L308.889 -5.21002C308.934 -5.21712 308.988 -5.22926 309.05 -5.25005C309.095 -5.25958 309.138 -5.27133 309.18 -5.28516L378.15 -23.1001C378.8 -23.2501 379.2 -23.9501 379.05 -24.6001C378.9 -25.2501 378.2 -25.6501 377.55 -25.5001L309.71 -7.97719L304.1 -31.75L370.217 -48.3004C370.228 -48.3002 370.239 -48.3 370.25 -48.3C370.295 -48.3 370.34 -48.3101 370.389 -48.3212C370.45 -48.3349 370.517 -48.35 370.6 -48.35C370.69 -48.3776 370.775 -48.4148 370.854 -48.46L382 -51.25C382.65 -51.4 383.05 -52.1 382.9 -52.75C382.75 -53.4 382.05 -53.8 381.4 -53.65L371.188 -51.0938L358.5 -99.6C358.3 -100.25 357.6 -100.7 356.95 -100.5C356.3 -100.3 355.9 -99.6 356.05 -98.95L368.729 -50.4782L302.3 -33.85C301.65 -33.7 301.25 -33 301.4 -32.35L307.269 -7.34662L283.556 -1.22156C264.928 -85.3139 249.31 -150.457 247.189 -159.301L247.189 -159.302C247.052 -159.872 246.972 -160.208 246.95 -160.3C246.65 -161.65 245.3 -162.45 243.95 -162.15C242.6 -161.85 241.8 -160.5 242.1 -159.15C242.122 -159.058 242.203 -158.72 242.34 -158.147L242.341 -158.144L242.346 -158.124L242.349 -158.11C243.134 -154.835 245.698 -144.141 249.537 -127.82C244.507 -127.037 233.375 -124.449 222.1 -116.05C213.35 -109.55 206.35 -100.95 201.3 -90.4C200.986 -89.7462 200.679 -89.0849 200.38 -88.4162L199.6 -88.15C198.9 -87.9 198.6 -87.2 198.8 -86.55C198.904 -86.2905 199.089 -86.0713 199.312 -85.9206C195.763 -77.2328 193.432 -67.3715 192.332 -56.4624C192.275 -56.2936 192.255 -56.1122 192.279 -55.9292C191.889 -51.9066 191.666 -47.7428 191.609 -43.4439L142.228 -21.5719C149.563 -32.428 157.768 -56.5508 166.65 -93.55C167.42 -96.7354 168.166 -99.902 168.885 -103.022C168.99 -103.205 169.05 -103.42 169.05 -103.65C169.05 -103.676 169.049 -103.701 169.048 -103.727C175.386 -131.305 179.605 -155.033 179.65 -155.3C179.8 -156 179.35 -156.65 178.65 -156.75C177.95 -156.9 177.3 -156.45 177.2 -155.75C177.112 -155.221 172.972 -132.11 166.763 -104.9H141.75C141.05 -104.9 140.5 -104.35 140.5 -103.65C140.5 -102.95 141.05 -102.4 141.75 -102.4H166.189C159.267 -72.4053 149.946 -38.1876 140.815 -23.8829C138.587 -40.1181 135.398 -58.9628 131.25 -80.35C123.4 -120.8 114.9 -155.7 114.8 -156.05C114.5 -157.4 113.15 -158.25 111.8 -157.9C110.45 -157.6 109.6 -156.25 109.95 -154.9C110.081 -154.393 114.872 -134.687 120.57 -107.742L84.8633 -108.256L79.6097 -144.014C79.6361 -144.121 79.6501 -144.233 79.6501 -144.35C79.6348 -144.564 79.5727 -144.764 79.474 -144.937L77.9 -155.65C77.8 -156.35 77.2 -156.8 76.5 -156.7C75.8 -156.6 75.35 -156 75.45 -155.3L76.8905 -145.504L-1.38202 -143.038C-1.98695 -152.709 -2.30898 -159.264 -2.34666 -160.032L-2.34671 -160.033L-2.3468 -160.034L-2.34689 -160.037V-160.037V-160.037V-160.037L-2.34694 -160.038V-160.038L-2.34996 -160.1C-2.39996 -160.8 -2.94997 -161.35 -3.64996 -161.3C-4.34996 -161.25 -4.89996 -160.7 -4.84996 -160C-4.84198 -159.952 -4.80472 -159.261 -4.73798 -158.024C-4.58327 -155.156 -4.27013 -149.35 -3.79602 -141.807C-3.79863 -141.772 -3.79996 -141.736 -3.79996 -141.7C-3.79996 -141.622 -3.79128 -141.545 -3.77486 -141.471C-3.56328 -138.115 -3.32027 -134.424 -3.04561 -130.5H-16.95H-32.35H-64.0912L-65.7 -160.05C-65.7 -160.75 -66.3 -161.3 -67 -161.25C-67.7 -161.25 -68.25 -160.65 -68.2 -159.95L-65.3674 -107.92C-75.317 -107.272 -84.0052 -106.324 -91.4192 -105.276L-95.25 -160.15C-95.3 -160.85 -95.9 -161.35 -96.6 -161.3C-97.3 -161.25 -97.8 -160.65 -97.75 -159.95L-93.9079 -104.913C-96.663 -104.5 -99.2273 -104.075 -101.6 -103.65C-104.904 -103.054 -107.948 -102.441 -110.737 -101.829C-118.965 -133.702 -126.876 -162.896 -127.55 -165.35C-127.9 -166.65 -129.25 -167.45 -130.6 -167.1C-131.9 -166.75 -132.7 -165.4 -132.35 -164.05C-132.179 -163.439 -124.055 -133.479 -115.587 -100.708C-127.933 -97.6989 -134.027 -94.9883 -134.442 -94.8035L-134.45 -94.8001C-135.05 -94.5001 -135.35 -93.8001 -135.05 -93.1501C-134.85 -92.6501 -134.4 -92.4001 -133.9 -92.4001C-133.75 -92.4001 -133.55 -92.4501 -133.45 -92.5001C-133.448 -92.5009 -133.442 -92.5029 -133.434 -92.5062C-133.419 -92.5125 -133.393 -92.5233 -133.357 -92.5385L-133.356 -92.5389L-133.356 -92.5391C-132.537 -92.8843 -126.457 -95.4464 -114.956 -98.2633C-110.174 -79.7132 -105.343 -60.4784 -101.827 -45.3179L-125.35 -38.6001C-126 -38.4001 -126.4 -37.7001 -126.2 -37.0501C-126.05 -36.5001 -125.55 -36.1501 -125 -36.1501C-124.95 -36.1501 -124.887 -36.1626 -124.825 -36.175C-124.762 -36.1876 -124.7 -36.2001 -124.65 -36.2001L-101.261 -42.864C-98.7227 -31.7836 -96.9742 -23.1662 -96.6 -19.05C-95.8582 -10.6436 -90.1771 -2.62842 -82.9905 7.51062L-82.75 7.84998C-71.4 23.75 -57.3 43.55 -53.45 75.55C-51.6401 90.5551 -44.8521 103.062 -35.6548 113.81L-51.45 119.95C-52.1 120.2 -52.4 120.85 -52.2 121.5L-42.4428 151.05L-160.1 213.45C-160.7 213.8 -160.9 214.55 -160.6 215.15C-160.4 215.55 -159.95 215.8 -159.5 215.8C-159.3 215.8 -159.1 215.8 -158.95 215.7L-41.6457 153.464L-23.2413 209.203L-126.751 264.143L-132.75 248.25C-133 247.6 -133.7 247.25 -134.35 247.5C-135 247.75 -135.35 248.45 -135.1 249.1L-128.979 265.326L-140.8 271.6C-141.4 271.95 -141.6 272.7 -141.3 273.3C-141.1 273.7 -140.65 273.95 -140.2 273.95C-140.05 273.95 -139.85 273.9 -139.65 273.8L-128.095 267.67L-97.7 348.25C-97.55 348.6 -97.3 348.9 -96.95 349C-96.8 349.1 -96.65 349.1 -96.5 349.1C-96.3 349.1 -96.1 349.05 -95.9 348.95L5.19194 292.107C6.97778 292.197 20.7383 293.257 28.95 304.05C35.9 313.15 37.2 326.7 32.75 344.2C32.6001 344.85 33 345.55 33.65 345.7C33.75 345.75 33.8501 345.75 33.95 345.75C34.5 345.75 35.05 345.35 35.2 344.8C39.8 326.5 38.4 312.25 30.95 302.5C22.6 291.55 9.50005 289.85 5.95004 289.6L2.83487 280.167C3.73112 278.112 7.97098 268.986 17.55 257.95C23.5355 251.067 32.387 242.535 44.7585 234.415C44.585 240.078 44.9894 245.446 46.65 250.4C48.2 254.95 52.1 261.75 57.05 270.35L57.2162 270.639C68.4171 290.14 85.2314 319.414 91.55 352.55ZM50.1056 228.201C57.0226 224.167 64.8602 220.33 73.7 216.95C79.1574 214.867 85.4336 212.245 92.3332 209.198L57.6559 135.275C56.662 136.601 55.7359 137.901 54.8731 139.173C54.8293 139.365 54.7382 139.546 54.6 139.7C54.5329 139.78 54.4586 139.85 54.3791 139.909C44.236 155.169 43.2417 166.316 43.4413 171.224C43.8712 171.813 44.2746 172.404 44.65 173C54.2664 188.247 52.4628 205.38 50.8667 220.541L50.85 220.7L50.8374 220.82C50.5728 223.321 50.3119 225.787 50.1056 228.201ZM41.0153 168.237C41.1752 165.257 41.7706 161.302 43.35 156.5C44.8751 151.857 47.4984 145.97 51.989 139.127L30.15 120.8C29.6 120.35 29.55 119.55 30 119.05C30.45 118.5 31.25 118.45 31.75 118.9L53.3857 137.057C54.4396 135.536 55.5845 133.971 56.8281 132.366C56.9014 132.225 57.0002 132.097 57.1203 131.99C62.147 125.557 68.7583 118.482 77.45 110.95C89.4 100.6 105.85 84.15 116.35 64.65C121.274 55.471 123.033 49.0235 123.557 46.6524L97.8024 37.1875L79.9139 54.7462L92.2 65C92.75 65.45 92.8 66.25 92.35 66.75C92.1 67.05 91.75 67.2 91.4 67.2C91.1 67.2 90.85 67.1 90.6 66.9L78.1325 56.4948L70.9301 63.5644L80.65 71C81.2 71.4 81.3 72.2 80.9 72.75C80.65 73.05 80.3 73.25 79.9 73.25C79.65 73.25 79.35 73.1499 79.15 73L69.1279 65.3333L-2.76653 135.902C2.20679 139.42 7.18735 142.734 11.95 145.9C23.8691 153.819 34.4274 160.853 41.0153 168.237ZM-4.86961 134.401L6.33232 123.417L-32.776 67.5415L-48.5375 75.3968C-45.1703 101.293 -25.3516 119.651 -4.86961 134.401ZM-48.8741 72.7651L-33.082 64.8872C-32.986 64.8201 -32.8826 64.7693 -32.7754 64.7343L-5.85905 51.3071L-13.5636 7.84026L-35.641 21.6441L-31.15 37.1499C-30.95 37.7999 -31.35 38.4999 -32 38.6999C-32.1 38.7499 -32.2 38.7499 -32.35 38.7499C-32.9 38.7499 -33.4 38.3999 -33.55 37.8499L-37.8446 23.022L-59.4547 36.5337C-54.7344 46.7385 -50.8025 58.6485 -48.8741 72.7651ZM-60.5196 34.2867L-37.882 20.1325C-37.798 20.0636 -37.7046 20.0047 -37.6036 19.9584L-14.0284 5.21805L-19.6824 -26.6799C-49.2744 -12.7609 -75.1138 6.08783 -76.9511 7.42804C-71.6681 14.8781 -65.6934 23.6257 -60.5196 34.2867ZM-79.834 3.37212C-78.7749 2.57718 -72.7451 -1.80992 -63.7004 -7.65857L-71.9718 -51.2092L-96.4983 -44.2211C-93.8891 -32.8016 -92.0858 -23.8692 -91.7 -19.55C-91.0846 -12.7815 -86.1679 -5.56499 -79.834 3.37212ZM-97.0632 -46.6783L-72.4464 -53.7084L-81.9904 -103.96C-89.326 -103.134 -95.6821 -102.169 -101.05 -101.2C-104.32 -100.61 -107.339 -99.9998 -110.108 -99.3897C-105.366 -80.975 -100.578 -61.8754 -97.0632 -46.6783ZM44.9014 231.378C31.4773 239.957 21.9563 249.097 15.6 256.45C7.94919 265.272 3.67145 272.789 1.70259 276.739L-20.239 210.3L35.279 169.415C37.4088 171.513 39.1763 173.6 40.5 175.7C49.2 189.5 47.55 205.1 45.95 220.2C45.532 224.015 45.126 227.751 44.9014 231.378ZM33.4308 167.671C27.2681 162.086 18.717 156.378 9.30003 150.1L9.23035 150.054C-5.1588 140.47 -21.4743 129.603 -33.9179 115.788L-49.45 121.85L-39.8147 151.025C-39.8097 151.034 -39.8048 151.042 -39.8 151.05C-39.7364 151.177 -39.6953 151.311 -39.6757 151.446L-21.0638 207.803L33.4308 167.671ZM-95.85 346L-125.866 266.487L-22.4443 211.616L3.49829 290.185L-95.85 346ZM294.958 21.6466L311.227 92.5042C311.23 92.5318 311.234 92.5594 311.239 92.5869C311.242 92.6031 311.246 92.6192 311.25 92.6353C311.259 92.6773 311.271 92.7192 311.286 92.761L328.4 167.3C328.45 167.5 328.55 167.65 328.65 167.8L367.94 218.194L330.474 227.666C318.342 161.048 303.031 87.6488 288.841 22.7859L294.958 21.6466ZM284.091 1.19522L289.917 -0.309525L294.4 19.2167L288.309 20.3514C286.889 13.8732 285.482 7.4827 284.091 1.19522ZM286.336 293.588C280.311 293.825 274.45 294.392 268.769 295.288L254.061 241.487L307.4 227.5C307.95 227.35 308.35 226.85 308.35 226.3V185.15C308.35 185.05 308.35 184.95 308.3 184.85C300.579 154.776 295.411 128.275 291.972 105.679C292.404 105.22 292.427 104.475 292 104C291.907 103.896 291.799 103.812 291.681 103.748C286.642 69.9919 285.488 45.1477 285.397 30.353C302.418 108.429 320.83 197.93 333.302 272.755C301.06 278.947 289.748 289.313 286.336 293.588ZM289.782 293.489C300.103 293.301 310.886 294.066 322.05 295.8C327.165 296.59 332.219 296.971 337.202 296.942C336.102 289.863 334.936 282.611 333.71 275.211C305.952 280.532 294.261 288.965 289.782 293.489ZM169.168 263.748L236.324 246.138C236.353 246.142 236.383 246.145 236.414 246.147C236.442 246.149 236.471 246.15 236.5 246.15C236.794 246.15 237.061 246.053 237.272 245.889L251.609 242.13L266.285 295.702C265.738 295.798 265.193 295.898 264.65 296C250.55 298.65 237.65 303.4 226.2 310.1C211.681 318.582 203.335 327.997 199.841 332.532C181.277 315.338 178.635 304.116 170.25 268.35L170.062 267.55L170.062 267.549L169.707 266.04C169.531 265.289 169.351 264.525 169.168 263.748ZM168.609 261.373L235.25 243.875V197.4L209.164 153.303C189.65 163.802 168.701 174.79 148.662 184.91C150.083 190.39 151.642 196.146 153.35 202.2C160.357 226.96 165.072 246.399 168.609 261.373ZM305.8 225.35L237.75 243.218V226.886L305.8 205.112V225.35ZM305.8 202.522L237.75 224.296V197.965L303.459 175.965C304.212 179.036 304.992 182.148 305.8 185.3V202.522ZM302.859 173.499L237.081 195.522L234.116 190.51L301.7 168.654C302.079 170.257 302.465 171.872 302.859 173.499ZM278.326 173.637L232.854 188.375L211.4 152.099C248.643 132.02 280.265 113.932 289.666 107.428C292.321 124.566 296.011 144.261 301.135 166.245L280.723 172.861L271.35 151.15C271.05 150.5 270.35 150.25 269.7 150.5C269.05 150.8 268.8 151.5 269.05 152.15L278.326 173.637ZM251.128 127.481C239.084 134.268 225.048 142.002 210.101 150.057L190.209 122.069C196.168 119.151 202.765 116.672 210 114.95C210.55 114.85 210.95 114.35 210.95 113.75V98.7499C210.95 98.0499 210.4 97.4999 209.7 97.4999C209 97.4999 208.45 98.0499 208.45 98.7499V112.8C201.269 114.591 194.707 117.105 188.767 120.039L179.5 107C179.1 106.45 178.3 106.3 177.75 106.7C177.2 107.1 177.05 107.9 177.45 108.45L186.495 121.197C173.664 127.939 163.895 136.558 157.2 143.75C150.37 151.072 145.755 157.807 143.168 162.011C131.638 109.191 135.593 86.6415 140.05 61.25L140.272 59.9841L140.272 59.9836L140.272 59.983L140.272 59.9823L140.272 59.9819L140.272 59.9813L140.273 59.9806L140.273 59.9802L140.273 59.9797L140.273 59.9791L140.273 59.9784L140.273 59.9776C140.777 57.1027 141.288 54.1894 141.781 51.1901L153.849 48.6562L164.75 92.7C164.9 93.25 165.4 93.65 165.95 93.65C166.05 93.65 166.15 93.65 166.25 93.6C166.9 93.45 167.3 92.75 167.15 92.1L156.271 48.1475L189.529 41.1643C198.019 57.3171 204.173 73.6494 208.45 87.05C208.65 87.55 209.1 87.9 209.65 87.9C209.8 87.9 209.9 87.9 210 87.85C210.65 87.65 211 86.95 210.8 86.3C206.479 72.7105 200.207 56.0924 191.527 39.6579C191.526 39.6216 191.522 39.5849 191.517 39.548C191.515 39.5298 191.512 39.5115 191.509 39.4932C191.506 39.4788 191.503 39.4644 191.5 39.4499C191.435 39.1693 191.268 38.9259 191.046 38.7521C183.845 25.2612 175.014 11.934 164.3 0.550018C154.238 -10.1791 145.905 -15.5874 141.598 -17.9736L141.541 -18.4231L141.527 -18.5331L192.372 -41.0393C195.06 -36.9812 206.8 -18.9456 219.008 5.87091C219.019 5.91405 219.034 5.95709 219.05 5.99992C219.087 6.08371 219.133 6.16229 219.186 6.23471C220.44 8.78802 221.697 11.4124 222.95 14.1C248.034 67.8862 252.18 105.355 251.128 127.481ZM187.931 123.221L207.838 151.276C188.555 161.645 167.863 172.493 148.042 182.501C146.518 176.535 145.161 170.901 143.958 165.568C145.992 162.02 150.977 154.032 159.1 145.35C165.689 138.3 175.294 129.818 187.931 123.221ZM59.3596 133.06L81.1955 179.609L140.576 173.21C126.022 112.071 130.276 87.8115 135.098 60.31L135.1 60.3C135.614 57.4001 136.127 54.4672 136.623 51.4541L125.893 47.5108C125.249 50.2757 123.403 56.6814 118.6 65.65C115.087 72.226 109.482 81.0201 100.789 91.1333C101.086 91.0973 101.395 91.1645 101.65 91.3499L101.657 91.3553C101.943 91.5682 106.607 95.0456 107.3 104.7C107.35 105.4 106.85 106 106.15 106.05H106.05C105.4 106.05 104.85 105.55 104.8 104.9C104.221 96.5952 100.517 93.6524 100.219 93.4151L100.218 93.4147C100.208 93.4066 100.202 93.4016 100.2 93.4C99.8779 93.1657 99.693 92.7943 99.6754 92.4162C94.0958 98.7858 87.3011 105.653 79.05 112.8C70.7034 120.026 64.2861 126.819 59.3596 133.06ZM94.603 208.191L82.3262 182.019L141.169 175.679C141.886 178.637 142.647 181.68 143.452 184.812C125.771 193.684 108.937 201.795 94.603 208.191ZM289.249 104.699C284.845 107.989 271.699 115.848 253.695 126.032C254.819 94.528 245.051 60.7812 234.069 33.3723L282.35 16.4306C282.564 17.4052 282.779 18.3818 282.993 19.3605C282.73 26.1288 282.579 39.5285 284 58.8C284.88 70.7634 286.454 86.1813 289.249 104.699ZM202.19 -86.3615C198.612 -78.0247 196.212 -68.5224 195.005 -57.9579L260.16 -82.1678C258.34 -90.0742 256.619 -97.5073 255.015 -104.401L202.19 -86.3615ZM254.439 -106.878L203.635 -89.528C208.523 -99.5525 215.177 -107.807 223.5 -114C234.415 -122.129 245.418 -124.665 250.104 -125.41C251.418 -119.82 252.869 -113.621 254.439 -106.878ZM194.1 -43C194.147 -47.217 194.354 -51.2976 194.723 -55.2366L260.725 -79.7137C262.876 -70.3631 265.159 -60.3758 267.546 -49.8567L204.771 -25.8407C199.17 -35.3771 195.083 -41.5501 194.1 -43ZM206.033 -23.6791L268.097 -47.4235C270.19 -38.1886 272.36 -28.5562 274.587 -18.5958L220.834 3.87589C215.562 -6.76756 210.403 -16.145 206.033 -23.6791ZM221.943 6.13033L275.142 -16.11C277.317 -6.3716 279.544 3.67157 281.806 13.9557L233.131 31.0529C230.513 24.6442 227.844 18.6052 225.25 13.05C224.149 10.6936 223.044 8.38536 221.943 6.13033ZM188.299 38.8559C181.334 25.9651 172.863 13.2837 162.65 2.40002C153.926 -6.91174 146.446 -12.1848 141.987 -14.864C144.503 5.74271 145.26 21.5525 144.25 32.4C143.718 38.1783 143.001 43.4744 142.213 48.4998L188.299 38.8559ZM121.098 -105.233L85.2325 -105.742L90.4282 -70.3789L114.85 -73.05C115.5 -73.1 116.1 -72.65 116.2 -72L117.6 -62.55C117.7 -61.85 117.25 -61.25 116.55 -61.15C116.6 -61.05 116.5 -61.05 116.45 -61.05C115.85 -61.05 115.3 -61.5 115.2 -62.1L113.95 -70.4L90.7946 -67.8852L94.8735 -40.1225C106.077 -38.5744 117.937 -37.4504 133.679 -37.7771C130.073 -60.7852 125.368 -84.9028 121.098 -105.233ZM88.1892 -68.6661L92.3337 -40.4817C89.4136 -40.9035 86.5218 -41.3491 83.6001 -41.8L83.2475 -41.8537C69.5561 -43.9374 55.3204 -46.1039 34.4 -46.55C27.6278 -46.6919 20.1075 -45.7337 11.866 -43.6888C5.07336 -55.5143 0.6978 -110.571 -1.22389 -140.542L35.1978 -141.688L35.1987 -141.67L35.2 -141.65L37.7 -107.55C37.75 -106.9 38.3 -106.4 38.95 -106.4L82.7321 -105.778L88.1463 -68.9583C88.1462 -68.9225 88.1475 -68.8864 88.1501 -68.85C88.1591 -68.7866 88.1723 -68.7252 88.1892 -68.6661ZM82.3624 -108.292L77.2569 -143.012L37.7062 -141.767L40.15 -108.9L82.3624 -108.292ZM125.327 44.6383L98.6591 34.8395L96.1421 -18.0164C96.1798 -18.1369 96.2001 -18.2657 96.2001 -18.4C96.2001 -18.5779 96.1646 -18.746 96.1001 -18.8979L95.3333 -35.0025C100.4 -34.313 105.618 -33.7156 111.277 -33.303L113.8 14.45C113.85 15.1499 114.4 15.6499 115.05 15.6499H115.1C115.8 15.6499 116.35 15.0499 116.3 14.3499L113.791 -33.134C120 -32.752 126.766 -32.5978 134.447 -32.7858C138.328 -7.0265 140.665 16.8663 139.25 31.85C138.644 37.9955 137.872 43.6083 137.029 48.938L125.483 44.6956C125.433 44.6733 125.381 44.6541 125.327 44.6383ZM96.1867 33.9311L93.7343 -17.15H66.05C65.3501 -17.15 64.8 -17.7 64.8 -18.4C64.8 -19.1 65.3501 -19.65 66.05 -19.65H93.6142L92.8606 -35.3474C89.5235 -35.8235 86.2318 -36.3334 82.9001 -36.8501L82.5669 -36.9013C72.1252 -38.5079 61.3622 -40.1638 47.5527 -41.0203L51.9868 -16.5198C52.0422 -16.4072 52.0811 -16.2831 52.1001 -16.1501C52.1282 -16.0188 52.1352 -15.8893 52.1235 -15.7649L58.6193 20.1275L96.1867 33.9311ZM28.6113 101.572L95.2359 36.2444L57.7 22.4499L-3.07262 52.7379L-2.44997 56.25L28.6113 101.572ZM-4.64996 57.5L26.7908 103.357L8.14986 121.635L-30.5037 66.4091L-5.39986 53.8978L-4.84998 57C-4.79997 57.2 -4.74997 57.35 -4.64996 57.5ZM44.9946 -41.1677L49.3855 -16.9057L12.0037 -9.68265L6.70396 -37.0557C16.3671 -39.9893 25.8068 -41.736 34.3501 -41.55C38.102 -41.4777 41.6381 -41.3465 44.9946 -41.1677ZM49.8292 -14.4545L12.4772 -7.23718L21.1001 37.2999C21.1418 37.4947 21.1371 37.6856 21.0934 37.8619L56.1339 20.382L49.8292 -14.4545ZM4.3118 -36.307C-2.90652 -33.981 -10.218 -31.0312 -17.3449 -27.7652L-11.6494 4.36047C-11.428 4.45531 -11.2345 4.61942 -11.1 4.84996C-10.7955 5.37193 -10.8694 6.00742 -11.2888 6.39432L-3.53209 50.1463L19.4637 38.6749C19.0673 38.5324 18.7617 38.1966 18.6501 37.7499L4.3118 -36.307ZM-18.1808 -128H-31.1V-108.75C-26.8381 -108.691 -22.4312 -108.574 -17.8798 -108.39L-18.1808 -128ZM-15.3767 -108.283L-15.6807 -128H-2.8685C-2.40619 -121.551 -1.86221 -114.56 -1.23561 -107.453C-6.0914 -107.802 -10.8053 -108.076 -15.3767 -108.283ZM-17.7863 -105.886C-42.7682 -106.917 -63.37 -105.925 -79.5062 -104.23L-77.7736 -95.1069L-69.55 -96.85C-68.85 -97 -68.2 -96.55 -68.05 -95.9C-67.9 -95.2 -68.35 -94.55 -69 -94.4L-77.305 -92.6397L-75.5364 -83.3277L-67.6 -85.4C-66.95 -85.55 -66.25 -85.15 -66.1 -84.5C-65.95 -83.85 -66.35 -83.15 -67 -83L-75.0738 -80.8919L-73.6148 -73.2099L-67.6 -74.65C-66.95 -74.8 -66.25 -74.4 -66.1 -73.75C-65.95 -73.1 -66.35 -72.4 -67 -72.25L-73.1527 -70.7768L-71.6742 -62.9921L-64.35 -64.3C-63.65 -64.4 -63 -63.95 -62.9 -63.3C-62.8 -62.65 -63.25 -61.95 -63.9 -61.85L-71.2094 -60.5448L-70.0167 -54.265L-47.9662 -57.6225L-52.05 -81.65C-52.15 -82.3 -51.7 -82.95 -51.05 -83.1L-38.2 -85.45C-37.5 -85.6 -36.85 -85.1 -36.75 -84.45C-36.65 -83.75 -37.1 -83.1 -37.75 -83L-49.4 -80.9L-45.4958 -57.9986L-10.35 -63.3501L-17.7863 -105.886ZM-69.5412 -51.7617L-8.69997 -61.0501C-8.34996 -61.1001 -8.04997 -61.2501 -7.84998 -61.5501C-7.64996 -61.8501 -7.59996 -62.1501 -7.64996 -62.5001L-15.2142 -105.773C-10.6233 -105.56 -5.88806 -105.28 -1.009 -104.923C2.03455 -71.3868 5.51053 -50.5994 9.37862 -43.0446C-5.04889 -39.1534 -21.6038 -32.0492 -40.15 -21.8C-48.0757 -17.4145 -55.3437 -12.9979 -61.4406 -9.10979L-69.5412 -51.7617ZM-63.9551 -128H-33.6V-108.778C-38.0458 -108.816 -42.3293 -108.79 -46.45 -108.71V-124.2C-46.45 -124.9 -47 -125.45 -47.7 -125.45C-48.4 -125.45 -48.95 -124.9 -48.95 -124.2V-108.654C-53.8262 -108.531 -58.4667 -108.332 -62.8703 -108.074L-63.9551 -128Z" fill="#212936"/>
</g>
<rect width="375" height="160" fill="url(#paint0_radial_5_5190)"/>
</g>
<defs>
<radialGradient id="paint0_radial_5_5190" cx="0" cy="0" r="1" gradientUnits="userSpaceOnUse" gradientTransform="translate(36.0701 61.4775) rotate(90) scale(98.5225 230.912)">
<stop stop-color="#121826" stop-opacity="0.01"/>
<stop offset="1" stop-color="#121826"/>
</radialGradient>
</defs>
</svg>
