<svg width="231" height="231" viewBox="0 0 231 231" fill="none" xmlns="http://www.w3.org/2000/svg">
<circle cx="115.5" cy="115.5" r="115.5"/>
<mask id="mask0_0_479" style="mask-type:luminance" maskUnits="userSpaceOnUse" x="0" y="0" width="231" height="231">
<circle cx="115.5" cy="115.5" r="115.5" fill="white"/>
</mask>
<g mask="url(#mask0_0_479)">
<rect width="1000" height="1000" transform="translate(-408 -306)" fill="white"/>
<rect x="-408" y="-306" width="1000" height="1000" fill="#FFF6E9"/>
<mask id="mask1_0_479" style="mask-type:luminance" maskUnits="userSpaceOnUse" x="-408" y="-306" width="1000" height="1000">
<rect x="-408" y="-306" width="1000" height="1000" fill="white"/>
</mask>
<g mask="url(#mask1_0_479)">
<path fill-rule="evenodd" clip-rule="evenodd" d="M404.6 2.70001L331.8 -325H707.9L613.5 -44L404.6 2.70001ZM-42.2 46.6L-65.7 -83.8L115.9 -66.4L126.2 15.4L118.8 105.7L-42.2 46.6ZM-342 693.4L-265.5 692.3L-89.4 693.4L-84.4 632.6L-109.6 599.1L-147.2 586L-342 693.4ZM275.5 638.6L386.9 596.5L522.9 603.1L592.7 586.2L596.5 636.1L591.5 696.9L415.4 695.9L262 693.4L242.7 677.6L275.5 638.6ZM133.8 374.9L174.6 531.2L315.7 494.2V398.5L262 307.7L133.8 374.9ZM486.3 270.3L447.8 100.7L606.1 60.7L678.7 189.2L502 338.5L486.3 270.3Z" fill="#BBEC95"/>
<path fill-rule="evenodd" clip-rule="evenodd" d="M25.1001 710.1C25.5001 712.5 27.6001 714.2 30.0001 714.2C30.3001 714.2 30.7001 714.1 30.9001 714C33.6 713.5 35.4001 710.9 34.9001 708.2C21.9001 640 -12.4999 580.2 -35.2999 540.7C-44.9999 524 -52.5999 510.8 -55.2999 502.6C-58.7701 492.255 -59.0679 480.281 -58.2424 467.408C-43.9161 458.829 -27.5031 450.646 -8.79993 443.5C25.4285 430.408 75.7491 406.741 130.151 379.44C132.852 389.801 135.796 400.642 139 412C155.2 469.4 164.9 510.6 172.7 543.8C190.076 617.875 195.632 641.495 237.179 679.303C237.482 680.535 238.255 681.653 239.4 682.4C240.053 682.89 240.774 683.113 241.506 683.179C248.952 689.747 257.473 696.783 267.3 704.6C268.2 705.3 269.3 705.7 270.4 705.7C271.8 705.7 273.3 705.1 274.4 704C276.1 701.9 275.8 698.7 273.6 697C264.369 689.651 256.346 683.057 249.32 676.92C255.352 668.965 271.315 650.444 299.6 633.9C321.5 621 346.3 611.9 373.3 606.8C374.602 606.554 375.91 606.318 377.223 606.09L394.1 667.7C394.4 668.8 395.4 669.5 396.5 669.5H397.1C398.5 669.1 399.3 667.7 398.9 666.4L382.191 605.279C413.716 600.43 448.165 600.837 484.7 606.5C495.933 608.224 507.021 609.019 517.945 608.884C522.592 639.329 526.593 668.077 529.8 694.6C530.1 697.1 532.3 699 534.8 699H535.3C538.1 698.6 540 696.1 539.7 693.4C536.519 667.106 532.56 638.634 527.966 608.495C553.989 606.793 579.024 599.704 602.8 587.2C631.9 571.9 659.2 548.5 683.7 517.7C725.3 465.5 744.5 410.9 745.3 408.6C746.2 406 744.8 403.1 742.2 402.2C739.6 401.3 736.7 402.7 735.8 405.3C735.794 405.314 735.774 405.37 735.739 405.467C734.508 408.851 715.172 462.016 675.8 511.4C652.1 541.1 625.9 563.6 598 578.3C575.316 590.263 551.349 597.013 526.436 598.548C522.849 575.421 518.905 551.368 514.669 526.611L625.2 497.2C626.6 496.8 627.4 495.4 627 494.1C626.6 492.7 625.2 491.9 623.9 492.3L513.808 521.594C510.634 503.149 507.301 484.324 503.834 465.211L581.204 445.651L609.7 482.2C610.2 482.9 611 483.2 611.7 483.2C612.3 483.2 612.8 483.1 613.3 482.6C614.4 481.8 614.5 480.2 613.7 479.1L586.562 444.296L617.4 436.5C618.7 436.2 619.5 434.8 619.2 433.5C618.9 432.2 617.5 431.4 616.2 431.7L583.238 440.033L523.464 363.374L612.4 341.5C613.7 341.2 614.5 339.8 614.2 338.5C613.9 337.2 612.5 336.4 611.2 336.7L520.13 359.099L504.77 339.401L613.3 246.6C614.4 245.7 614.5 244.1 613.6 243.1C612.7 242 611.1 241.9 610.1 242.8L502.825 334.528L469.935 191.346L617.6 139.2C618.9 138.7 619.6 137.3 619.1 136C618.6 134.7 617.2 134 615.9 134.5L468.809 186.444L449.686 103.197L617.4 60.7C618.7 60.4 619.5 59 619.2 57.7C618.9 56.4 617.5 55.6 616.2 55.9L448.578 98.3736L436.862 47.3719L592.4 18.4C593.8 18.2 594.7 16.9 594.4 15.5C594.2 14.1 592.9 13.3 591.5 13.5L435.746 42.5123L426.698 3.12466L459.778 -5.42001C459.868 -5.4342 459.976 -5.4585 460.1 -5.5C460.189 -5.51901 460.275 -5.54245 460.359 -5.57001L598.3 -41.2C599.6 -41.5 600.4 -42.9 600.1 -44.2C599.8 -45.5 598.4 -46.3 597.1 -46L461.421 -10.9543L450.2 -58.5L582.434 -91.6008C582.456 -91.6003 582.478 -91.6 582.5 -91.6C582.59 -91.6 582.68 -91.6202 582.779 -91.6424C582.9 -91.6697 583.035 -91.7 583.2 -91.7C583.38 -91.7552 583.549 -91.8295 583.708 -91.9199L606 -97.5C607.3 -97.8 608.1 -99.2 607.8 -100.5C607.5 -101.8 606.1 -102.6 604.8 -102.3L584.376 -97.1874L559 -194.2C558.6 -195.5 557.2 -196.4 555.9 -196C554.6 -195.6 553.8 -194.2 554.1 -192.9L579.458 -95.9564L446.6 -62.7C445.3 -62.4 444.5 -61 444.8 -59.7L456.538 -9.69308L409.112 2.55701C371.856 -165.624 340.621 -295.907 336.378 -313.601L336.378 -313.603C336.105 -314.744 335.943 -315.416 335.9 -315.6C335.3 -318.3 332.6 -319.9 329.9 -319.3C327.2 -318.7 325.6 -316 326.2 -313.3C326.244 -313.115 326.406 -312.44 326.68 -311.293L326.681 -311.292C328.231 -304.828 333.368 -283.404 341.075 -250.641C331.013 -249.074 308.75 -243.899 286.2 -227.1C268.7 -214.1 254.7 -196.9 244.6 -175.8C243.971 -174.492 243.358 -173.17 242.759 -171.832L241.2 -171.3C239.8 -170.8 239.2 -169.4 239.6 -168.1C239.808 -167.581 240.177 -167.143 240.624 -166.841C233.526 -149.466 228.864 -129.743 226.663 -107.925C226.55 -107.587 226.51 -107.224 226.558 -106.858C225.778 -98.813 225.331 -90.4855 225.218 -81.8878L126.456 -38.1438C141.125 -59.8562 157.537 -108.102 175.3 -182.1C176.84 -188.471 178.332 -194.804 179.771 -201.043C179.981 -201.411 180.1 -201.839 180.1 -202.3C180.1 -202.33 180.1 -202.36 180.099 -202.391C180.098 -202.412 180.097 -202.433 180.096 -202.454C192.772 -257.611 201.211 -305.065 201.3 -305.6C201.6 -307 200.7 -308.3 199.3 -308.5C197.9 -308.8 196.6 -307.9 196.4 -306.5C196.224 -305.442 187.943 -259.219 175.526 -204.8H125.5C124.1 -204.8 123 -203.7 123 -202.3C123 -200.9 124.1 -199.8 125.5 -199.8H174.378C160.534 -139.81 141.892 -71.3751 123.63 -42.7658C119.174 -75.2362 112.795 -112.926 104.5 -155.7C88.8001 -236.6 71.8001 -306.4 71.6001 -307.1C71.0001 -309.8 68.3001 -311.5 65.6001 -310.8C62.9001 -310.2 61.2001 -307.5 61.9001 -304.8C62.1627 -303.787 71.744 -264.373 83.1392 -210.483L11.7265 -211.512L1.2193 -283.027C1.27222 -283.241 1.30008 -283.466 1.30008 -283.7C1.2695 -284.128 1.14548 -284.528 0.947968 -284.874L-2.19995 -306.3C-2.39993 -307.7 -3.59995 -308.6 -4.99994 -308.4C-6.39993 -308.2 -7.29996 -307 -7.09995 -305.6L-4.21902 -286.008L-160.764 -281.077C-161.976 -300.459 -162.621 -313.584 -162.694 -315.073L-162.694 -315.075L-162.694 -315.076V-315.077L-162.7 -315.2C-162.8 -316.6 -163.9 -317.7 -165.3 -317.6C-166.7 -317.5 -167.8 -316.4 -167.7 -315C-167.684 -314.904 -167.609 -313.523 -167.476 -311.048C-167.167 -305.311 -166.54 -293.7 -165.592 -278.614C-165.597 -278.543 -165.6 -278.472 -165.6 -278.4C-165.6 -278.244 -165.583 -278.09 -165.55 -277.941C-165.127 -271.23 -164.641 -263.847 -164.091 -256H-191.9H-222.7H-286.182L-289.4 -315.1C-289.4 -316.5 -290.6 -317.6 -292 -317.5C-293.4 -317.5 -294.5 -316.3 -294.4 -314.9L-288.735 -210.839C-308.634 -209.544 -326.01 -207.648 -340.838 -205.552L-348.5 -315.3C-348.6 -316.7 -349.8 -317.7 -351.2 -317.6C-352.6 -317.5 -353.6 -316.3 -353.5 -314.9L-345.816 -204.827C-351.326 -204 -356.455 -203.15 -361.2 -202.3C-367.807 -201.108 -373.896 -199.882 -379.475 -198.658C-395.93 -262.405 -411.752 -320.791 -413.1 -325.7C-413.8 -328.3 -416.5 -329.9 -419.2 -329.2C-421.8 -328.5 -423.4 -325.8 -422.7 -323.1C-422.358 -321.877 -406.109 -261.958 -389.174 -196.415C-413.865 -190.398 -426.053 -184.977 -426.885 -184.607L-426.9 -184.6C-428.1 -184 -428.7 -182.6 -428.1 -181.3C-427.7 -180.3 -426.8 -179.8 -425.8 -179.8C-425.5 -179.8 -425.1 -179.9 -424.9 -180C-424.886 -180.005 -424.823 -180.031 -424.712 -180.078C-423.073 -180.769 -410.913 -185.893 -387.912 -191.526C-378.348 -154.426 -368.685 -115.957 -361.654 -85.6356L-408.7 -72.2C-410 -71.8 -410.8 -70.4 -410.4 -69.1C-410.1 -68 -409.1 -67.3 -408 -67.3C-407.9 -67.3 -407.775 -67.325 -407.65 -67.35C-407.525 -67.375 -407.4 -67.4 -407.3 -67.4L-360.522 -80.728C-355.445 -58.5672 -351.948 -41.3324 -351.2 -33.1C-349.716 -16.2871 -338.354 -0.256714 -323.981 20.0214L-323.5 20.7C-300.8 52.5 -272.6 92.1 -264.9 156.1C-261.28 186.11 -247.704 211.125 -229.31 232.62L-260.9 244.9C-262.2 245.4 -262.8 246.7 -262.4 248L-242.886 307.1L-478.2 431.9C-479.4 432.6 -479.8 434.1 -479.2 435.3C-478.8 436.1 -477.9 436.6 -477 436.6C-476.6 436.6 -476.2 436.6 -475.9 436.4L-241.291 311.928L-204.483 423.405L-411.501 533.286L-423.5 501.5C-424 500.2 -425.4 499.5 -426.7 500C-428 500.5 -428.7 501.9 -428.2 503.2L-415.959 535.652L-439.6 548.2C-440.8 548.9 -441.2 550.4 -440.6 551.6C-440.2 552.4 -439.3 552.9 -438.4 552.9C-438.1 552.9 -437.7 552.8 -437.3 552.6L-414.191 540.339L-353.4 701.5C-353.1 702.2 -352.6 702.8 -351.9 703C-351.6 703.2 -351.3 703.2 -351 703.2C-350.6 703.2 -350.2 703.1 -349.8 702.9L-147.616 589.215C-144.044 589.394 -116.523 591.515 -100.1 613.1C-86.1999 631.3 -83.5999 658.4 -92.4999 693.4C-92.7999 694.7 -91.9999 696.1 -90.7 696.4C-90.4999 696.5 -90.2999 696.5 -90.0999 696.5C-88.9999 696.5 -87.8999 695.7 -87.5999 694.6C-78.3999 658 -81.1999 629.5 -96.0999 610C-112.8 588.1 -139 584.7 -146.1 584.2L-152.33 565.335C-150.538 561.224 -142.058 542.971 -122.9 520.9C-110.929 507.133 -93.226 490.071 -68.4829 473.83C-68.8299 485.155 -68.0213 495.891 -64.7 505.8C-61.5999 514.9 -53.7999 528.5 -43.8999 545.7L-43.5674 546.279C-21.1658 585.281 12.4628 643.829 25.1001 710.1ZM-57.7888 461.401C-43.9549 453.334 -28.2797 445.661 -10.5999 438.9C0.31485 434.733 12.8673 429.49 26.6664 423.397L-42.6881 275.549C-44.676 278.202 -46.5282 280.802 -48.2536 283.346C-48.3414 283.729 -48.5235 284.093 -48.7999 284.4C-48.9342 284.561 -49.0828 284.701 -49.242 284.818C-69.528 315.338 -71.5166 337.632 -71.1173 347.448C-70.2575 348.625 -69.4509 349.809 -68.7 351C-49.4671 381.494 -53.0744 415.761 -56.2665 446.083L-56.2999 446.4L-56.3253 446.639C-56.8544 451.642 -57.3762 456.575 -57.7888 461.401ZM-75.9693 341.474C-75.6497 335.515 -74.4588 327.605 -71.2999 318C-68.2499 308.713 -63.0031 296.94 -54.0219 283.255L-97.6999 246.6C-98.7999 245.7 -98.8999 244.1 -97.9999 243.1C-97.0999 242 -95.4999 241.9 -94.4999 242.8L-51.2286 279.114C-49.1208 276.071 -46.831 272.942 -44.3436 269.731C-44.1972 269.451 -43.9995 269.195 -43.7596 268.98C-33.7061 256.114 -20.4835 241.963 -3.09991 226.9C20.8001 206.2 53.7001 173.3 74.7001 134.3C84.5486 115.942 88.0654 103.047 89.1142 98.305L37.6047 79.3752L1.82788 114.492L26.4001 135C27.5001 135.9 27.6001 137.5 26.7001 138.5C26.2001 139.1 25.5001 139.4 24.8001 139.4C24.2001 139.4 23.7001 139.2 23.2001 138.8L-1.73499 117.99L-16.1399 132.129L3.30005 147C4.40005 147.8 4.60007 149.4 3.80005 150.5C3.30005 151.1 2.60007 151.5 1.80005 151.5C1.30005 151.5 0.700073 151.3 0.300049 151L-19.7441 135.667L-163.533 276.805C-153.586 283.841 -143.625 290.469 -134.1 296.8C-110.262 312.637 -89.1452 326.705 -75.9693 341.474ZM-167.739 273.803L-145.335 251.835L-223.552 140.083L-255.075 155.794C-248.341 207.585 -208.703 244.302 -167.739 273.803ZM-255.748 150.53L-224.165 134.775C-223.972 134.64 -223.765 134.539 -223.55 134.468L-169.718 107.614L-185.127 20.6806L-229.282 48.2884L-220.3 79.3C-219.9 80.6 -220.7 82 -222 82.4C-222.2 82.5 -222.4 82.5 -222.7 82.5C-223.8 82.5 -224.8 81.8 -225.1 80.7L-233.689 51.0441L-276.909 78.0674C-267.469 98.477 -259.605 122.297 -255.748 150.53ZM-279.039 73.5734L-233.764 45.2649C-233.596 45.1272 -233.409 45.0096 -233.208 44.9172L-186.057 15.4362L-197.365 -48.3596C-256.549 -20.5215 -308.228 17.1762 -311.902 19.8562C-301.336 34.7563 -289.387 52.2515 -279.039 73.5734ZM-317.668 11.7443C-315.55 10.1544 -303.49 1.38022 -285.401 -10.317L-301.943 -97.4183L-350.997 -83.442C-345.778 -60.603 -342.172 -42.7384 -341.4 -34.1C-340.169 -20.563 -330.336 -6.12991 -317.668 11.7443ZM-352.126 -88.3564L-302.893 -102.417L-321.981 -202.919C-336.652 -201.267 -349.364 -199.337 -360.1 -197.4C-366.64 -196.219 -372.678 -194.999 -378.217 -193.779C-368.733 -156.95 -359.156 -118.751 -352.126 -88.3564ZM-68.1973 467.757C-95.0453 484.914 -114.087 503.193 -126.8 517.9C-142.102 535.545 -150.657 550.577 -154.595 558.478L-198.478 425.6L-87.442 343.829C-83.1824 348.026 -79.6473 352.2 -76.9999 356.4C-59.5999 384 -62.8999 415.2 -66.0999 445.4C-66.9361 453.03 -67.748 460.502 -68.1973 467.757ZM-91.1384 340.342C-103.464 329.173 -120.566 317.756 -139.4 305.2L-139.539 305.107C-168.318 285.94 -200.949 264.207 -225.836 236.575L-256.9 248.7L-237.629 307.051L-237.616 307.073L-237.6 307.1C-237.473 307.354 -237.391 307.622 -237.351 307.893L-200.128 420.606L-91.1384 340.342ZM-349.7 697L-409.731 537.974L-202.889 428.233L-151.003 585.369L-349.7 697ZM431.916 48.2932L464.454 190.008C464.474 190.18 464.512 190.352 464.572 190.523L498.8 339.6C498.9 340 499.1 340.3 499.3 340.6L577.88 441.388L502.947 460.332C478.684 327.095 448.062 180.298 419.683 50.5718L431.916 48.2932ZM410.182 7.39056L421.833 4.38107L430.8 43.4335L418.617 45.7028C415.779 32.7465 412.965 19.9655 410.182 7.39056ZM414.671 592.176C402.622 592.65 390.9 593.785 379.538 595.575L350.122 487.974L456.8 460C457.9 459.7 458.7 458.7 458.7 457.6V375.3C458.7 375.1 458.7 374.9 458.6 374.7C443.159 314.551 432.821 261.55 425.945 216.358C426.808 215.44 426.855 213.949 426 213C425.814 212.793 425.597 212.625 425.363 212.495C415.284 144.984 412.976 95.2959 412.794 65.7066C446.836 221.859 483.659 400.86 508.604 550.51C444.12 562.895 421.496 583.626 414.671 592.176ZM421.565 591.978C442.207 591.602 463.771 593.132 486.1 596.6C496.329 598.18 506.438 598.941 516.404 598.885C514.205 584.726 511.872 570.222 509.42 555.422C453.904 566.064 430.522 582.93 421.565 591.978ZM180.337 532.496L314.647 497.276C314.762 497.292 314.88 497.3 315 497.3C315.587 497.3 316.121 497.107 316.544 496.779L345.219 489.259L374.57 596.404C373.476 596.596 372.386 596.795 371.3 597C343.1 602.3 317.3 611.8 294.4 625.2C265.361 642.164 248.67 660.994 241.683 670.063C204.554 635.676 199.269 613.232 182.5 541.7L182.124 540.101C181.546 537.636 180.95 535.102 180.337 532.496ZM179.217 527.746L312.5 492.749V399.8L260.328 311.607C221.3 332.605 179.402 354.58 139.325 374.821C142.165 385.781 145.283 397.292 148.7 409.4C162.714 458.92 172.145 497.797 179.217 527.746ZM453.6 455.7L317.5 491.437V458.772L453.6 415.224V455.7ZM453.6 410.044L317.5 453.592V400.931L448.919 356.931C450.424 363.072 451.983 369.295 453.6 375.6V410.044ZM447.717 351.997L316.161 396.043L310.233 386.019L445.401 342.308C446.158 345.514 446.93 348.744 447.717 351.997ZM398.653 352.275L307.708 381.749L264.8 309.198C339.286 269.039 402.529 232.864 421.332 219.856C426.642 254.132 434.022 293.522 444.271 337.49L403.446 350.721L384.7 307.3C384.1 306 382.7 305.5 381.4 306C380.1 306.6 379.6 308 380.1 309.3L398.653 352.275ZM344.257 259.962C320.168 273.537 292.096 289.004 262.202 305.114L222.419 249.137C234.337 243.303 247.53 238.344 262 234.9C263.1 234.7 263.9 233.7 263.9 232.5V202.5C263.9 201.1 262.8 200 261.4 200C260 200 258.9 201.1 258.9 202.5V230.6C244.538 234.183 231.415 239.21 219.534 245.078L201 219C200.2 217.9 198.6 217.6 197.5 218.4C196.4 219.2 196.1 220.8 196.9 221.9L214.99 247.394C189.329 260.878 169.789 278.117 156.4 292.5C142.74 307.144 133.51 320.615 128.337 329.022C105.276 223.382 113.186 178.283 122.1 127.5L122.306 126.323L122.544 124.968L122.544 124.967L122.544 124.966C123.553 119.213 124.576 113.383 125.561 107.38L149.697 102.312L171.5 190.4C171.8 191.5 172.8 192.3 173.9 192.3C174.1 192.3 174.3 192.3 174.5 192.2C175.8 191.9 176.6 190.5 176.3 189.2L154.542 101.295L221.058 87.3288C238.038 119.634 250.345 152.299 258.9 179.1C259.3 180.1 260.2 180.8 261.3 180.8C261.6 180.8 261.8 180.8 262 180.7C263.3 180.3 264 178.9 263.6 177.6C254.957 150.421 242.414 117.185 225.055 84.3158C225.048 84.1788 225.03 84.0399 225 83.9C224.871 83.3388 224.536 82.8521 224.093 82.5044C209.691 55.5226 192.029 28.8681 170.6 6.10001C150.477 -15.3584 133.81 -26.1749 125.197 -30.9472L125.105 -31.6643L125.054 -32.0663L226.744 -77.0786C232.121 -68.9625 255.6 -32.8914 280.015 16.7417C280.039 16.8281 280.067 16.9142 280.1 17C280.105 17.0105 280.109 17.021 280.114 17.0314L280.124 17.0526C280.132 17.0698 280.141 17.0869 280.149 17.1038L280.16 17.125C280.166 17.1366 280.172 17.1481 280.178 17.1595C280.187 17.177 280.197 17.1943 280.206 17.2115C280.215 17.2263 280.223 17.241 280.232 17.2556C280.245 17.2779 280.258 17.2999 280.272 17.3217C280.281 17.3361 280.29 17.3503 280.3 17.3645L280.318 17.3916L280.336 17.4174C280.348 17.4351 280.36 17.4525 280.373 17.4698C282.879 22.5763 285.394 27.8249 287.9 33.2C338.068 140.773 346.36 215.71 344.257 259.962ZM217.862 251.442L257.675 307.551C219.11 328.291 177.727 349.986 138.085 370.003C135.036 358.071 132.323 346.803 129.916 336.136C133.983 329.04 143.954 313.064 160.2 295.7C173.377 281.6 192.588 264.636 217.862 251.442ZM-39.2807 271.12L4.39105 364.218L123.153 351.421C94.0435 229.142 102.552 180.623 112.197 125.62L112.2 125.6C113.227 119.8 114.255 113.935 115.246 107.908L93.7855 100.022C92.4988 105.552 88.8065 118.363 79.2001 136.3C72.1736 149.452 60.9636 167.04 43.5771 187.267C44.1725 187.195 44.79 187.329 45.3 187.7L45.3143 187.711C45.8846 188.136 55.2137 195.09 56.6 214.4C56.7001 215.8 55.7001 217 54.3 217.1H54.1C52.8 217.1 51.7001 216.1 51.6 214.8C50.4413 198.19 43.0345 192.305 42.4374 191.83L42.4365 191.83C42.4158 191.813 42.4034 191.803 42.4001 191.8C41.7558 191.331 41.386 190.589 41.3508 189.832C30.1917 202.572 16.6021 216.306 0.100098 230.6C-16.5931 245.053 -29.4278 258.637 -39.2807 271.12ZM31.2062 421.381L6.65256 369.039L124.339 356.357C125.773 362.274 127.293 368.36 128.904 374.624C93.5426 392.367 59.8732 408.59 31.2062 421.381ZM420.498 214.399C411.691 220.977 385.397 236.695 349.39 257.064C351.638 194.056 332.101 126.563 310.138 71.7447L406.701 37.8613C407.129 39.8105 407.557 41.7639 407.987 43.7214C407.46 57.258 407.157 84.0573 410 122.6C411.761 146.527 414.907 177.363 420.498 214.399ZM246.381 -167.723C239.224 -151.049 234.425 -132.045 232.01 -110.916L362.32 -159.335C358.68 -175.148 355.237 -190.014 352.03 -203.803L246.381 -167.723ZM350.878 -208.756L249.27 -174.056C259.045 -194.105 272.354 -210.614 289 -223C310.831 -239.259 332.837 -244.33 342.208 -245.82C344.835 -234.64 347.737 -222.242 350.878 -208.756ZM230.2 -81C230.294 -89.434 230.709 -97.5951 231.445 -105.473L363.45 -154.427C367.751 -135.726 372.318 -115.751 377.091 -94.7133L251.542 -46.6813C240.341 -65.7541 232.166 -78.1001 230.2 -81ZM254.066 -42.358L378.195 -89.8468C382.381 -71.377 386.72 -52.1123 391.174 -32.1915L283.668 12.7519C273.124 -8.535 262.806 -27.2898 254.066 -42.358ZM285.886 17.2608L392.285 -27.2198C396.634 -7.74304 401.089 12.3432 405.612 32.9114L308.261 67.1059C303.027 54.2885 297.687 42.2104 292.5 31.1C290.298 26.3874 288.089 21.7708 285.886 17.2608ZM218.598 82.712C204.668 56.9302 187.726 31.5673 167.3 9.79999C149.852 -8.82361 134.892 -19.3697 125.974 -24.728C131.007 16.4854 132.521 48.1049 130.5 69.8C129.435 81.3566 128.001 91.9489 126.425 102L218.598 82.712ZM84.1965 -205.465L12.4651 -206.485L22.8564 -135.758L71.7001 -141.1C73.0001 -141.2 74.2001 -140.3 74.4001 -139L77.2001 -120.1C77.4001 -118.7 76.5001 -117.5 75.1001 -117.3C75.2001 -117.1 75.0001 -117.1 74.9001 -117.1C73.7001 -117.1 72.6001 -118 72.4001 -119.2L69.9001 -135.8L23.5891 -130.77L31.747 -75.2448C54.1545 -72.1486 77.8745 -69.9007 109.359 -70.554C102.147 -116.57 92.7354 -164.806 84.1965 -205.465ZM18.3784 -132.332L26.6673 -75.9632C20.8271 -76.8068 15.0436 -77.6981 9.20007 -78.6L8.49496 -78.7073C-18.8879 -82.8746 -47.3592 -87.2077 -89.2 -88.1C-102.744 -88.3837 -117.785 -86.4672 -134.268 -82.3775C-147.853 -106.029 -156.604 -216.143 -160.448 -276.083L-87.6043 -278.377L-87.6029 -278.348L-87.6016 -278.326L-87.5999 -278.3L-82.5999 -210.1C-82.4999 -208.8 -81.3999 -207.8 -80.0999 -207.8L7.46414 -206.556L18.2925 -132.917C18.2924 -132.845 18.2949 -132.773 18.3001 -132.7C18.3182 -132.573 18.3445 -132.45 18.3784 -132.332ZM6.72479 -211.584L-3.48627 -281.025L-82.5876 -278.535L-77.6999 -212.8L6.72479 -211.584ZM92.6519 94.2759L39.3181 74.6792L34.2842 -31.0328C34.3596 -31.2737 34.4001 -31.5313 34.4001 -31.8C34.4001 -32.1556 34.3291 -32.4919 34.2003 -32.7957L32.6665 -65.0049C42.8004 -63.626 53.2351 -62.4311 64.5534 -61.6059L69.6001 33.9C69.7001 35.3 70.8 36.3 72.1001 36.3H72.2001C73.6001 36.3 74.7001 35.1 74.6001 33.7L69.5818 -61.2679C82.0007 -60.5038 95.5322 -60.1955 110.894 -60.5716C118.655 -9.05295 123.33 38.7327 120.5 68.7C119.288 80.9911 117.744 92.2166 116.058 102.876L92.968 94.3921C92.8668 94.3468 92.7612 94.3079 92.6519 94.2759ZM34.3734 72.8623L29.4685 -29.3H-25.8999C-27.2999 -29.3 -28.3999 -30.4 -28.3999 -31.8C-28.3999 -33.2 -27.2999 -34.3 -25.8999 -34.3H29.2285L27.7212 -65.6946C21.0471 -66.6468 14.4636 -67.6667 7.80005 -68.7L7.13446 -68.8024C-13.7492 -72.0156 -35.2752 -75.3276 -62.8947 -77.0405L-54.0264 -28.0394C-53.9157 -27.8142 -53.838 -27.5661 -53.7999 -27.3C-53.7437 -27.0375 -53.7296 -26.7785 -53.7531 -26.5296L-40.7614 45.2551L34.3734 72.8623ZM-100.777 208.144L32.4717 77.4888L-42.5999 49.9L-164.145 110.476L-162.9 117.5L-100.777 208.144ZM-167.3 120L-104.418 211.714L-141.7 248.271L-219.007 137.818L-168.8 112.796L-167.7 119C-167.6 119.4 -167.5 119.7 -167.3 120ZM-68.0109 -77.3354L-59.2289 -28.8113L-133.993 -14.3651L-144.592 -69.1113C-125.266 -74.9785 -106.387 -78.4719 -89.2999 -78.1C-81.7961 -77.9553 -74.7238 -77.693 -68.0109 -77.3354ZM-58.3417 -23.9089L-133.046 -9.47421L-115.8 79.6C-115.716 79.9896 -115.726 80.3714 -115.813 80.7239L-45.7322 45.7641L-58.3417 -23.9089ZM-149.376 -67.6139C-163.813 -62.962 -178.436 -57.0623 -192.69 -50.5304L-181.299 13.7211C-180.856 13.9107 -180.469 14.2389 -180.2 14.7C-179.591 15.744 -179.739 17.0149 -180.578 17.7887L-165.064 105.293L-119.073 82.3499C-119.865 82.0649 -120.477 81.3933 -120.7 80.5L-149.376 -67.6139ZM-194.362 -251H-220.2V-212.5C-211.676 -212.383 -202.862 -212.148 -193.76 -211.78L-194.362 -251ZM-188.753 -211.566L-189.361 -251H-163.737C-162.812 -238.103 -161.724 -224.119 -160.471 -209.907C-170.183 -210.604 -179.611 -211.152 -188.753 -211.566ZM-193.573 -206.771C-243.536 -208.834 -284.74 -206.85 -317.012 -203.46L-313.547 -185.214L-297.1 -188.7C-295.7 -189 -294.4 -188.1 -294.1 -186.8C-293.8 -185.4 -294.7 -184.1 -296 -183.8L-312.61 -180.279L-309.073 -161.655L-293.2 -165.8C-291.9 -166.1 -290.5 -165.3 -290.2 -164C-289.9 -162.7 -290.7 -161.3 -292 -161L-308.148 -156.784L-305.23 -141.42L-293.2 -144.3C-291.9 -144.6 -290.5 -143.8 -290.2 -142.5C-289.9 -141.2 -290.7 -139.8 -292 -139.5L-304.305 -136.554L-301.348 -120.984L-286.7 -123.6C-285.3 -123.8 -284 -122.9 -283.8 -121.6C-283.6 -120.3 -284.5 -118.9 -285.8 -118.7L-300.419 -116.09L-298.033 -103.53L-253.932 -110.245L-262.1 -158.3C-262.3 -159.6 -261.4 -160.9 -260.1 -161.2L-234.4 -165.9C-233 -166.2 -231.7 -165.2 -231.5 -163.9C-231.3 -162.5 -232.2 -161.2 -233.5 -161L-256.8 -156.8L-248.992 -110.997L-178.7 -121.7L-193.573 -206.771ZM-297.082 -98.5233L-175.4 -117.1C-174.7 -117.2 -174.1 -117.5 -173.7 -118.1C-173.3 -118.7 -173.2 -119.3 -173.3 -120L-188.428 -206.546C-179.247 -206.121 -169.776 -205.559 -160.018 -204.845C-153.931 -137.774 -146.979 -96.1988 -139.243 -81.089C-168.098 -73.3068 -201.208 -59.0983 -238.3 -38.6C-254.151 -29.8289 -268.687 -20.9957 -280.881 -13.2195L-297.082 -98.5233ZM-285.91 -251H-225.2V-212.556C-234.092 -212.632 -242.659 -212.58 -250.9 -212.419V-243.4C-250.9 -244.8 -252 -245.9 -253.4 -245.9C-254.8 -245.9 -255.9 -244.8 -255.9 -243.4V-212.308C-265.652 -212.062 -274.933 -211.665 -283.741 -211.148L-285.91 -251Z" fill="white"/>
</g>
</g>
<circle cx="115.5" cy="115.5" r="115.5" fill="url(#paint0_radial_0_479)"/>
<mask id="mask2_0_479" style="mask-type:luminance" maskUnits="userSpaceOnUse" x="0" y="0" width="231" height="231">
<circle cx="115.5" cy="115.5" r="115.5" fill="white"/>
</mask>
<g mask="url(#mask2_0_479)">
<path fill-rule="evenodd" clip-rule="evenodd" d="M134 112.106C134 123.154 124.349 132.584 119.181 136.842C117.307 138.386 114.693 138.386 112.819 136.842C107.651 132.584 98 123.154 98 112.106C98 102.106 106.059 94 116 94C125.941 94 134 102.106 134 112.106ZM122 110C122 113.314 119.314 116 116 116C112.686 116 110 113.314 110 110C110 106.686 112.686 104 116 104C119.314 104 122 106.686 122 110Z" fill="#FF7A28"/>
</g>
<defs>
<radialGradient id="paint0_radial_0_479" cx="0" cy="0" r="1" gradientUnits="userSpaceOnUse" gradientTransform="translate(115.5 115.5) rotate(90) scale(115.5)">
<stop stop-color="white" stop-opacity="0.01"/>
<stop offset="1" stop-color="white"/>
</radialGradient>
</defs>
</svg>
