<svg width="375" height="812" viewBox="0 0 375 812" fill="none" xmlns="http://www.w3.org/2000/svg">
<rect width="1227" height="1227" transform="translate(-474 -151)" fill="white"/>
<rect x="-474" y="-151" width="1227" height="1227" fill="#FFF6E9"/>
<mask id="mask0_0_1844" style="mask-type:luminance" maskUnits="userSpaceOnUse" x="-474" y="-151" width="1227" height="1227">
<rect x="-474" y="-151" width="1227" height="1227" fill="white"/>
</mask>
<g mask="url(#mask0_0_1844)">
<path fill-rule="evenodd" clip-rule="evenodd" d="M523.06 227.775L433.735 -174.313H895.209L779.381 170.474L523.06 227.775ZM-25.1634 281.64L-53.9979 121.639L168.825 142.989L181.463 243.358L172.384 354.156L-25.1634 281.64ZM-393.018 1075.26L-299.153 1073.91L-83.0778 1075.26L-76.9428 1000.66L-107.863 959.558L-153.998 943.484L-393.018 1075.26ZM364.655 1008.02L501.342 956.368L668.214 964.466L753.859 943.729L758.521 1004.96L752.387 1079.56L536.312 1078.33L348.09 1075.26L324.409 1055.88L364.655 1008.02ZM190.789 684.464L240.85 876.244L413.98 830.845V713.422L348.09 602.01L190.789 684.464ZM623.306 556.12L576.067 348.021L770.301 298.941L859.381 456.61L642.57 639.802L623.306 556.12Z" fill="#BBEC95"/>
<path fill-rule="evenodd" clip-rule="evenodd" d="M57.4137 1095.75C57.9045 1098.7 60.4812 1100.79 63.426 1100.79C63.7941 1100.79 64.2849 1100.66 64.5303 1100.54C67.8432 1099.93 70.0518 1096.74 69.4383 1093.42C53.4873 1009.74 11.2785 936.367 -16.6971 887.901C-28.599 867.41 -37.9242 851.214 -41.2371 841.152C-45.495 828.459 -45.8604 813.767 -44.8475 797.971C-27.2692 787.445 -7.13043 777.405 15.8183 768.636C57.8166 752.573 119.56 723.533 186.311 690.034C189.626 702.748 193.238 716.049 197.169 729.986C217.046 800.416 228.948 850.968 238.519 891.705C259.839 982.595 266.657 1011.58 317.634 1057.97C318.006 1059.48 318.955 1060.85 320.36 1061.77C321.161 1062.37 322.045 1062.64 322.944 1062.72C332.079 1070.78 342.535 1079.41 354.593 1089.01C355.697 1089.87 357.047 1090.36 358.397 1090.36C360.115 1090.36 361.955 1089.62 363.305 1088.27C365.391 1085.69 365.023 1081.77 362.323 1079.68C350.997 1070.66 341.153 1062.57 332.531 1055.04C339.933 1045.28 359.519 1022.56 394.225 1002.26C421.096 986.429 451.526 975.263 484.655 969.006C486.253 968.704 487.858 968.414 489.469 968.135L510.177 1043.73C510.545 1045.08 511.772 1045.94 513.121 1045.94H513.858C515.575 1045.45 516.557 1043.73 516.066 1042.13L495.564 967.139C534.245 961.19 576.515 961.689 621.343 968.638C635.126 970.753 648.731 971.729 662.134 971.562C667.837 1008.92 672.746 1044.19 676.681 1076.74C677.049 1079.8 679.748 1082.14 682.816 1082.14H683.429C686.865 1081.64 689.196 1078.58 688.828 1075.26C684.925 1043 680.067 1008.07 674.43 971.085C706.36 968.997 737.078 960.298 766.251 944.956C801.957 926.183 835.454 897.472 865.516 859.68C916.559 795.63 940.117 728.636 941.099 725.814C942.203 722.624 940.485 719.066 937.295 717.961C934.105 716.857 930.547 718.575 929.443 721.765C929.436 721.781 929.413 721.845 929.373 721.954L929.367 721.97C927.857 726.123 904.131 791.355 855.823 851.95C826.743 888.392 794.595 915.999 760.362 934.036C732.528 948.715 703.122 956.996 672.553 958.881C668.151 930.504 663.313 900.99 658.114 870.614L793.736 834.526C795.454 834.036 796.436 832.318 795.945 830.723C795.454 829.005 793.736 828.023 792.141 828.514L657.058 864.458C653.164 841.826 649.074 818.728 644.82 795.276L739.753 771.276L774.718 816.121C775.331 816.98 776.313 817.348 777.172 817.348C777.908 817.348 778.521 817.226 779.135 816.612C780.485 815.631 780.607 813.667 779.626 812.318L746.328 769.614L784.166 760.047C785.761 759.679 786.742 757.962 786.374 756.367C786.006 754.771 784.288 753.79 782.693 754.158L742.249 764.383L668.906 670.322L778.031 643.482C779.626 643.114 780.608 641.397 780.239 639.802C779.871 638.206 778.153 637.225 776.558 637.593L664.815 665.077L645.969 640.907L779.135 527.04C780.485 525.936 780.608 523.973 779.503 522.746C778.399 521.396 776.436 521.273 775.209 522.378L643.583 634.927L603.226 459.244L784.411 395.26C786.006 394.647 786.865 392.929 786.252 391.334C785.638 389.739 783.92 388.88 782.325 389.494L601.844 453.228L578.38 351.085L784.166 298.941C785.761 298.573 786.742 296.855 786.374 295.26C786.006 293.665 784.288 292.683 782.693 293.051L577.021 345.166L562.645 282.587L753.491 247.039C755.208 246.793 756.313 245.198 755.945 243.48C755.699 241.763 754.104 240.781 752.386 241.027L561.276 276.625L550.174 228.296L590.764 217.812C590.798 217.806 590.833 217.8 590.871 217.792C590.957 217.774 591.053 217.749 591.159 217.714C591.267 217.69 591.373 217.661 591.476 217.628L760.73 173.91C762.325 173.542 763.307 171.824 762.939 170.229C762.571 168.634 760.853 167.652 759.258 168.02L592.779 211.021L579.011 152.683L741.262 112.068L741.302 112.069L741.344 112.069C741.454 112.069 741.564 112.044 741.686 112.017C741.834 111.983 742 111.946 742.202 111.946C742.422 111.878 742.631 111.787 742.826 111.676L770.178 104.829C771.773 104.461 772.755 102.744 772.387 101.148C772.019 99.5534 770.301 98.5718 768.706 98.9399L743.645 105.213L712.509 -13.8214C712.018 -15.4165 710.3 -16.5208 708.705 -16.03C707.11 -15.5392 706.129 -13.8214 706.497 -12.2263L737.61 106.724L574.594 147.529C572.999 147.897 572.018 149.615 572.386 151.21L586.789 212.569L528.597 227.599C482.882 21.236 444.555 -138.625 439.352 -160.329L439.351 -160.331C439.016 -161.729 438.818 -162.553 438.765 -162.779C438.029 -166.092 434.716 -168.055 431.403 -167.319C428.09 -166.583 426.127 -163.27 426.863 -159.957C426.912 -159.751 427.08 -159.049 427.363 -157.869L427.396 -157.731L427.436 -157.563L427.452 -157.496L427.453 -157.495C429.354 -149.564 435.658 -123.276 445.115 -83.0744C432.769 -81.1516 405.452 -74.8018 377.783 -54.1897C356.311 -38.2387 339.133 -17.1343 326.74 8.75542C325.969 10.3599 325.216 11.9827 324.481 13.6237L322.568 14.2769C320.851 14.8904 320.114 16.6082 320.605 18.2033C320.86 18.8403 321.313 19.3781 321.862 19.748C313.153 41.0675 307.433 65.2671 304.732 92.0378C304.592 92.4525 304.544 92.8981 304.602 93.3478C303.646 103.219 303.097 113.437 302.958 123.986L181.777 177.66C199.777 151.018 219.914 91.8211 241.709 1.02531C243.598 -6.79153 245.429 -14.5624 247.195 -22.2181C247.452 -22.6689 247.599 -23.1945 247.599 -23.7601L247.599 -23.7848L247.598 -23.8235C247.597 -23.8655 247.595 -23.9073 247.593 -23.9488C263.147 -91.6261 273.502 -149.853 273.611 -150.509C273.979 -152.227 272.875 -153.822 271.157 -154.067C269.439 -154.436 267.844 -153.331 267.599 -151.613C267.382 -150.315 257.222 -93.6002 241.986 -26.8276H180.604C178.887 -26.8276 177.537 -25.4779 177.537 -23.7601C177.537 -22.0423 178.887 -20.6926 180.604 -20.6926H240.578C223.591 52.9146 200.717 136.885 178.31 171.988C172.843 132.147 165.016 85.9024 154.837 33.4181C135.574 -65.8462 114.715 -151.491 114.469 -152.35C113.733 -155.663 110.42 -157.748 107.107 -156.89C103.794 -156.153 101.708 -152.84 102.567 -149.528C102.889 -148.285 114.646 -99.9239 128.628 -33.8006L41.0043 -35.0629L28.112 -122.813C28.1769 -123.075 28.2111 -123.351 28.2111 -123.638C28.1736 -124.163 28.0214 -124.654 27.7791 -125.079L23.9166 -151.368C23.6711 -153.086 22.1987 -154.19 20.481 -153.945C18.7631 -153.699 17.6588 -152.227 17.9042 -150.509L21.4391 -126.47L-170.642 -120.419C-172.131 -144.223 -172.921 -160.335 -173.01 -162.138L-173.017 -162.288C-173.14 -164.006 -174.489 -165.356 -176.207 -165.233C-177.925 -165.11 -179.275 -163.761 -179.152 -162.043C-179.132 -161.926 -179.041 -160.231 -178.877 -157.197L-178.877 -157.194L-178.877 -157.192C-178.497 -150.153 -177.729 -135.907 -176.566 -117.397C-176.572 -117.31 -176.575 -117.223 -176.575 -117.135C-176.575 -116.943 -176.554 -116.755 -176.514 -116.572C-175.994 -108.337 -175.398 -99.2786 -174.724 -89.65H-208.845H-246.637H-324.53L-328.478 -162.166C-328.478 -163.883 -329.95 -165.233 -331.668 -165.11C-333.386 -165.11 -334.736 -163.638 -334.613 -161.92L-327.662 -34.2373C-352.078 -32.649 -373.399 -30.3226 -391.593 -27.7499L-400.994 -162.411C-401.116 -164.129 -402.589 -165.356 -404.306 -165.233C-406.024 -165.11 -407.251 -163.638 -407.129 -161.92L-397.7 -26.8602C-404.461 -25.8458 -410.754 -24.8029 -416.576 -23.7601C-424.684 -22.2978 -432.154 -20.7936 -439 -19.2918C-459.19 -97.5087 -478.604 -169.149 -480.258 -175.172C-481.117 -178.362 -484.43 -180.325 -487.742 -179.466C-490.933 -178.607 -492.896 -175.295 -492.037 -171.982C-491.617 -170.481 -471.68 -96.9602 -450.9 -16.5394C-481.198 -9.15561 -496.153 -2.50365 -497.172 -2.05052L-497.19 -2.04216C-498.663 -1.30597 -499.399 0.411835 -498.663 2.00694C-498.172 3.23393 -497.068 3.84743 -495.841 3.84743C-495.473 3.84743 -494.982 3.72473 -494.736 3.60204C-494.719 3.59615 -494.642 3.56371 -494.505 3.50623C-492.495 2.65907 -477.574 -3.62851 -449.352 -10.5409C-437.617 34.981 -425.761 82.1833 -417.133 119.387L-474.859 135.873C-476.454 136.363 -477.436 138.081 -476.945 139.676C-476.577 141.026 -475.35 141.885 -474 141.885C-473.877 141.885 -473.724 141.854 -473.571 141.824C-473.417 141.793 -473.264 141.762 -473.141 141.762L-415.745 125.409C-409.516 152.6 -405.225 173.747 -404.306 183.848C-402.486 204.478 -388.545 224.147 -370.909 249.028L-370.319 249.861C-342.466 288.88 -307.864 337.469 -298.416 415.997C-293.975 452.819 -277.317 483.512 -254.747 509.886L-293.508 524.954C-295.103 525.568 -295.84 527.163 -295.349 528.758L-271.405 601.274L-560.135 754.403C-561.608 755.262 -562.099 757.103 -561.362 758.575C-560.872 759.557 -559.767 760.17 -558.663 760.17C-558.172 760.17 -557.681 760.17 -557.313 759.925L-269.449 607.198L-224.284 743.98L-478.296 878.804L-493.019 839.802C-493.632 838.207 -495.35 837.348 -496.945 837.962C-498.54 838.575 -499.399 840.293 -498.785 841.888L-483.766 881.707L-512.773 897.103C-514.246 897.962 -514.736 899.803 -514 901.275C-513.509 902.257 -512.405 902.87 -511.301 902.87C-510.933 902.87 -510.442 902.748 -509.951 902.502L-481.596 887.458L-407.006 1085.2C-406.638 1086.06 -406.024 1086.8 -405.165 1087.04C-404.797 1087.29 -404.429 1087.29 -404.061 1087.29C-403.57 1087.29 -403.079 1087.17 -402.589 1086.92L-154.509 947.429C-150.128 947.649 -116.359 950.25 -96.2067 976.736C-79.1514 999.067 -75.9612 1032.32 -86.8815 1075.26C-87.2496 1076.86 -86.268 1078.58 -84.6729 1078.94C-84.4275 1079.07 -84.1821 1079.07 -83.9367 1079.07C-82.587 1079.07 -81.2373 1078.09 -80.8692 1076.74C-69.5808 1031.83 -73.0164 996.859 -91.2987 972.932C-111.79 946.061 -143.937 941.889 -152.649 941.276L-160.293 918.127C-158.094 913.084 -147.689 890.688 -124.182 863.606C-109.494 846.715 -87.7725 825.779 -57.4126 805.851C-57.8384 819.748 -56.8462 832.921 -52.7709 845.079C-48.9672 856.244 -39.3966 872.932 -27.2493 894.036L-26.8412 894.746C0.64563 942.602 41.9078 1014.44 57.4137 1095.75ZM-44.2909 790.601C-27.3167 780.703 -8.08331 771.288 13.6097 762.992C27.0022 757.88 42.4041 751.447 59.3356 743.97L-25.7625 562.561C-28.2017 565.816 -30.4742 569.006 -32.5914 572.128C-32.699 572.598 -32.9225 573.044 -33.2617 573.421C-33.4264 573.618 -33.6088 573.79 -33.8041 573.934C-58.6949 611.381 -61.135 638.736 -60.6451 650.781C-59.5901 652.225 -58.6003 653.678 -57.6789 655.139C-34.0802 692.555 -38.5065 734.6 -42.4231 771.805L-42.4641 772.195L-42.4951 772.488C-43.1443 778.627 -43.7845 784.679 -44.2909 790.601ZM-66.5985 643.45C-66.2063 636.139 -64.7451 626.433 -60.8691 614.648C-57.1267 603.253 -50.689 588.807 -39.6691 572.016L-93.262 527.04C-94.6117 525.936 -94.7343 523.973 -93.6301 522.746C-92.5258 521.396 -90.5626 521.273 -89.3355 522.378L-36.2416 566.934C-33.6555 563.201 -30.8459 559.362 -27.7939 555.422C-27.6142 555.078 -27.3715 554.764 -27.0768 554.501C-14.7413 538.713 1.48285 521.351 22.8123 502.868C52.1376 477.469 92.5059 437.101 118.273 389.248C130.357 366.723 134.672 350.901 135.959 345.082L72.7568 321.855L28.8586 364.944L59.0087 390.107C60.3584 391.211 60.4811 393.174 59.3768 394.401C58.7633 395.138 57.9044 395.506 57.0455 395.506C56.3093 395.506 55.6958 395.26 55.0823 394.77L24.487 369.235L6.81219 386.584L30.665 404.831C32.0147 405.813 32.2601 407.776 31.2785 409.125C30.665 409.862 29.8061 410.352 28.8245 410.352C28.211 410.352 27.4748 410.107 26.984 409.739L2.38983 390.925L-174.039 564.101C-161.835 572.735 -149.612 580.867 -137.925 588.636C-108.675 608.068 -82.7654 625.329 -66.5985 643.45ZM-179.2 560.418L-151.711 533.464L-247.682 396.344L-286.361 415.621C-278.098 479.169 -229.463 524.221 -179.2 560.418ZM-287.187 409.163L-248.435 389.831C-248.198 389.666 -247.944 389.541 -247.68 389.454L-181.628 356.505L-200.535 249.837L-254.713 283.712L-243.692 321.763C-243.201 323.358 -244.183 325.076 -245.778 325.567C-246.023 325.69 -246.269 325.69 -246.637 325.69C-247.987 325.69 -249.214 324.831 -249.582 323.481L-260.121 287.093L-313.152 320.251C-301.568 345.293 -291.92 374.521 -287.187 409.163ZM-315.765 314.737L-260.212 280.002C-260.006 279.833 -259.777 279.689 -259.53 279.575L-201.676 243.402L-215.551 165.125C-288.169 199.282 -351.578 245.536 -356.088 248.825C-343.124 267.108 -328.462 288.575 -315.765 314.737ZM-363.163 238.872C-360.564 236.921 -345.766 226.155 -323.571 211.803L-343.869 104.93L-404.057 122.079C-397.654 150.102 -393.229 172.022 -392.282 182.621C-390.772 199.231 -378.706 216.941 -363.163 238.872ZM-405.443 116.049L-345.034 98.7968L-368.454 -24.52C-386.456 -22.493 -402.054 -20.1248 -415.227 -17.7478C-423.251 -16.2989 -430.66 -14.8023 -437.456 -13.3051C-425.819 31.8846 -414.069 78.755 -405.443 116.049ZM-57.0621 798.4C-90.0047 819.452 -113.37 841.88 -128.968 859.925C-147.743 881.576 -158.24 900.02 -163.072 909.714L-216.917 746.673L-80.6754 646.341C-75.4489 651.489 -71.1113 656.611 -67.863 661.765C-46.5132 695.63 -50.5623 733.912 -54.4887 770.968C-55.5147 780.33 -56.5109 789.498 -57.0621 798.4ZM-85.2109 642.062C-100.334 628.357 -121.319 614.349 -144.428 598.942L-144.599 598.829C-179.91 575.311 -219.948 548.644 -250.485 514.74L-288.6 529.617L-264.956 601.213L-264.936 601.245L-264.919 601.274C-264.763 601.586 -264.662 601.914 -264.614 602.247L-218.941 740.545L-85.2109 642.062ZM-402.466 1079.68L-476.125 884.555L-222.328 749.903L-158.665 942.71L-402.466 1079.68ZM556.577 283.718L596.5 457.602C596.525 457.812 596.573 458.024 596.646 458.233L638.644 641.151C638.766 641.642 639.012 642.01 639.257 642.378L735.675 766.045L643.732 789.289C613.961 625.808 576.388 445.687 541.567 286.514L556.577 283.718ZM529.91 233.53L544.206 229.838L555.207 277.755L540.259 280.539C536.777 264.642 533.323 248.96 529.91 233.53ZM535.417 951.062C520.633 951.643 506.25 953.036 492.309 955.233L456.215 823.206L587.109 788.882C588.459 788.514 589.441 787.287 589.441 785.937V684.955C589.441 684.71 589.441 684.464 589.318 684.219C570.372 610.417 557.688 545.384 549.25 489.934C550.309 488.807 550.366 486.978 549.318 485.813C549.089 485.559 548.824 485.352 548.536 485.194C536.169 402.357 533.337 341.389 533.114 305.083C574.884 496.682 620.066 716.317 650.673 899.937C571.551 915.134 543.792 940.571 535.417 951.062ZM543.876 950.819C569.203 950.357 595.663 952.234 623.061 956.49C635.612 958.428 648.015 959.363 660.244 959.293C657.545 941.921 654.683 924.124 651.674 905.965C583.556 919.022 554.866 939.717 543.876 950.819ZM247.889 877.834L412.688 834.62C412.829 834.639 412.974 834.649 413.121 834.649C413.841 834.649 414.497 834.412 415.015 834.009L450.2 824.783L486.213 956.25C484.871 956.486 483.534 956.73 482.201 956.981C447.6 963.484 415.943 975.141 387.845 991.582C352.214 1012.4 331.733 1035.5 323.161 1046.63C277.603 1004.44 271.119 976.898 250.543 889.128L250.081 887.159L250.081 887.158L250.08 887.153L250.078 887.148L250.077 887.141C249.368 884.125 248.64 881.023 247.889 877.834ZM246.515 872.007L410.053 829.066V715.017L346.038 606.804C298.151 632.568 246.742 659.532 197.567 684.367C201.052 697.815 204.878 711.939 209.071 726.796C226.266 787.557 237.837 835.259 246.515 872.007ZM583.183 783.606L416.188 827.455V787.375L583.183 733.942V783.606ZM583.183 727.586L416.188 781.019V716.404L577.439 662.416C579.286 669.951 581.199 677.587 583.183 685.323V727.586ZM575.965 656.363L414.546 710.407L407.271 698.107L573.123 644.474C574.051 648.408 574.999 652.371 575.965 656.363ZM515.763 656.703L404.173 692.868L351.526 603.848C442.92 554.573 520.519 510.186 543.59 494.225C550.106 536.282 559.161 584.613 571.736 638.562L521.644 654.797L498.643 601.519C497.907 599.924 496.189 599.31 494.594 599.924C492.999 600.66 492.385 602.378 492.999 603.973L515.763 656.703ZM449.019 543.436C419.463 560.092 385.018 579.07 348.338 598.837L299.524 530.153C314.147 522.995 330.335 516.91 348.09 512.684C349.44 512.439 350.421 511.212 350.421 509.74V472.93C350.421 471.212 349.072 469.862 347.354 469.862C345.636 469.862 344.286 471.212 344.286 472.93V507.408C326.664 511.805 310.562 517.973 295.984 525.173L273.243 493.175C272.261 491.825 270.298 491.457 268.948 492.439C267.599 493.42 267.231 495.384 268.212 496.733L290.408 528.014C258.922 544.559 234.947 565.711 218.519 583.359C201.758 601.328 190.433 617.857 184.085 628.172C155.789 498.552 165.496 443.215 176.433 380.905C176.614 379.871 176.795 378.835 176.977 377.798C178.216 370.738 179.47 363.583 180.679 356.218L210.294 349.999L237.046 458.083C237.415 459.433 238.642 460.414 239.991 460.414C240.237 460.414 240.482 460.414 240.727 460.291C242.323 459.923 243.304 458.206 242.936 456.61L216.239 348.751L297.854 331.614C318.689 371.253 333.79 411.332 344.286 444.218C344.777 445.445 345.881 446.304 347.231 446.304C347.599 446.304 347.845 446.304 348.09 446.181C349.685 445.69 350.544 443.972 350.053 442.377C339.448 409.029 324.058 368.247 302.758 327.917C302.751 327.78 302.735 327.641 302.71 327.502C302.707 327.486 302.704 327.47 302.701 327.454C302.698 327.439 302.694 327.423 302.691 327.407C302.532 326.719 302.122 326.122 301.578 325.695C283.907 292.588 262.235 259.883 235.942 231.947C211.251 205.617 190.801 192.345 180.232 186.49L180.127 185.668L180.057 185.117L304.831 129.887C311.428 139.845 340.237 184.104 370.195 245.004C370.224 245.11 370.258 245.216 370.299 245.321C370.39 245.527 370.503 245.72 370.634 245.898C373.709 252.163 376.795 258.603 379.869 265.198C441.425 397.19 451.6 489.139 449.019 543.436ZM293.932 532.981L342.784 601.827C295.464 627.275 244.686 653.895 196.046 678.456C192.305 663.815 188.976 649.989 186.023 636.901C191.013 628.194 203.247 608.592 223.181 587.286C239.35 569.986 262.922 549.17 293.932 532.981ZM-21.5817 557.126L32.0037 671.357L177.724 655.655C142.007 505.619 152.447 446.086 164.281 378.598L164.285 378.573C165.546 371.457 166.807 364.26 168.023 356.866L141.691 347.189C140.112 353.974 135.581 369.693 123.794 391.702C115.173 407.84 101.418 429.42 80.085 454.238C80.8156 454.15 81.5732 454.315 82.199 454.77L82.2166 454.783C82.9171 455.305 94.3632 463.839 96.0641 487.531C96.1868 489.249 94.9598 490.721 93.242 490.844H92.9966C91.4016 490.844 90.0518 489.617 89.9291 488.022C88.5073 467.643 79.42 460.421 78.6866 459.838C78.6605 459.817 78.645 459.805 78.6407 459.801C77.8503 459.226 77.3965 458.314 77.3534 457.386C63.6611 473.017 46.9867 489.869 26.7387 507.408C6.2561 525.142 -9.49213 541.81 -21.5817 557.126ZM64.9058 741.497L34.7785 677.273L179.18 661.713C180.939 668.972 182.805 676.44 184.781 684.126C141.393 705.897 100.08 725.802 64.9058 741.497ZM542.566 487.53C531.76 495.601 499.498 514.887 455.317 539.88C458.076 462.569 434.104 379.754 407.155 312.493L525.637 270.918C526.163 273.309 526.689 275.706 527.215 278.108C526.57 294.717 526.198 327.6 529.686 374.892C531.846 404.25 535.707 442.086 542.566 487.53ZM328.925 18.666C320.143 39.1244 314.255 62.4433 311.292 88.3685L471.183 28.9574C466.716 9.55519 462.492 -8.68578 458.557 -25.604L328.925 18.666ZM457.143 -31.681L332.47 10.8955C344.464 -13.7048 360.794 -33.9617 381.219 -49.159C408.005 -69.1083 435.006 -75.3313 446.505 -77.1596C449.729 -63.4412 453.289 -48.2283 457.143 -31.681ZM309.071 125.075C309.186 114.727 309.696 104.713 310.599 95.0466L472.569 34.9799C477.846 57.9262 483.45 82.435 489.307 108.249L335.258 167.184C321.514 143.782 311.484 128.633 309.071 125.075ZM338.354 172.489L490.661 114.22C495.797 136.882 501.122 160.52 506.586 184.963L374.676 240.109C361.739 213.99 349.079 190.977 338.354 172.489ZM377.398 245.641L507.95 191.063C513.286 214.961 518.752 239.607 524.302 264.844L404.852 306.801C398.43 291.074 391.878 276.254 385.513 262.622C382.811 256.839 380.101 251.175 377.398 245.641ZM294.835 325.95C277.744 294.315 256.956 263.195 231.893 236.487C210.484 213.635 192.129 200.695 181.186 194.121C187.361 244.69 189.219 283.487 186.739 310.107C185.433 324.287 183.673 337.283 181.74 349.616L294.835 325.95ZM129.925 -27.644L41.9105 -28.8947L54.6606 57.8873L114.592 51.3323C116.187 51.2096 117.659 52.3139 117.905 53.909L121.34 77.0993C121.586 78.8171 120.481 80.2895 118.764 80.5349C118.886 80.7803 118.641 80.7803 118.518 80.7803C117.046 80.7803 115.696 79.676 115.451 78.2036L112.383 57.8354L55.5598 64.0068L65.5695 132.137C93.0634 135.936 122.168 138.694 160.799 137.892C151.95 81.4302 140.402 22.2456 129.925 -27.644ZM49.1663 62.0909L59.3367 131.255C52.1707 130.22 45.0743 129.126 37.9043 128.02L37.0388 127.888C3.44019 122.775 -31.4941 117.458 -82.8325 116.363C-99.4516 116.015 -117.906 118.367 -138.131 123.385C-154.8 94.3648 -165.538 -40.7451 -170.254 -114.292L-80.8747 -117.106C-80.8733 -117.075 -80.8715 -117.044 -80.8693 -117.012L-74.7343 -33.3307C-74.6116 -31.7356 -73.2619 -30.5086 -71.6668 -30.5086L35.7744 -28.9819L49.0607 61.3728L49.0609 61.4139C49.061 61.4335 49.0614 61.4531 49.0619 61.4728L49.063 61.5101C49.0646 61.5529 49.067 61.596 49.07 61.6391L49.0733 61.6616L49.0795 61.7017L49.0837 61.7267L49.0884 61.7539L49.0934 61.7811C49.0972 61.8014 49.1011 61.8217 49.1053 61.8418C49.1099 61.8644 49.1147 61.8868 49.1198 61.9091C49.1337 61.9706 49.1492 62.0312 49.1663 62.0909ZM34.8672 -35.1513L22.3383 -120.355L-74.7192 -117.3L-68.722 -36.6436L34.8672 -35.1513ZM140.299 340.138L74.8592 316.093L68.6826 186.385C68.775 186.089 68.8247 185.773 68.8247 185.443C68.8247 185.007 68.7377 184.595 68.5796 184.222L66.6976 144.701C79.132 146.393 91.9354 147.859 105.823 148.872L112.015 266.057C112.138 267.775 113.488 269.002 115.083 269.002H115.205C116.923 269.002 118.273 267.53 118.15 265.812L111.993 149.286C127.231 150.224 143.834 150.602 162.682 150.141C172.206 213.354 177.942 271.987 174.469 308.757C172.983 323.838 171.087 337.612 169.019 350.691L140.688 340.281C140.564 340.226 140.434 340.178 140.299 340.138ZM68.7921 313.864L62.7737 188.511H-5.16333C-6.88116 188.511 -8.23083 187.161 -8.23083 185.443C-8.23083 183.726 -6.88116 182.376 -5.16333 182.376H62.4792L60.6298 143.855C52.4406 142.686 44.3626 141.435 36.1865 140.167L35.37 140.041L35.3691 140.041L35.3685 140.041C9.74475 136.099 -16.6674 132.035 -50.5559 129.933L-39.6745 190.058C-39.5387 190.334 -39.4432 190.638 -39.3966 190.965C-39.3276 191.287 -39.3103 191.605 -39.3392 191.91L-23.3984 279.99L68.7921 313.864ZM-97.038 479.855L66.4587 319.541L-25.6543 285.689L-174.79 360.016L-173.262 368.635L-97.038 479.855ZM-178.661 371.702L-101.506 484.236L-147.25 529.09L-242.106 393.565L-180.501 362.862L-179.152 370.475C-179.029 370.966 -178.907 371.334 -178.661 371.702ZM-56.8335 129.572L-46.058 189.111L-137.793 206.836L-150.799 139.662C-127.085 132.463 -103.92 128.177 -82.9552 128.633C-73.7479 128.811 -65.0702 129.133 -56.8335 129.572ZM-44.9694 195.126L-136.631 212.837L-115.471 322.131C-115.368 322.609 -115.38 323.078 -115.487 323.51L-29.4975 280.615L-44.9694 195.126ZM-156.669 141.5C-174.383 147.208 -192.325 154.446 -209.815 162.461L-195.838 241.298C-195.294 241.53 -194.82 241.933 -194.49 242.499C-193.742 243.78 -193.924 245.339 -194.953 246.289L-175.918 353.656L-119.486 325.505C-120.459 325.156 -121.209 324.332 -121.483 323.236L-156.669 141.5ZM-211.866 -83.515H-243.569V-36.2754C-233.111 -36.1315 -222.296 -35.8437 -211.127 -35.3925L-211.866 -83.515ZM-204.985 -35.1294L-205.731 -83.515H-174.289C-173.155 -67.6899 -171.82 -50.5325 -170.282 -33.0934C-182.198 -33.9494 -193.766 -34.6216 -204.985 -35.1294ZM-210.898 -29.2464C-272.203 -31.7769 -322.76 -29.3428 -362.358 -25.1833L-358.106 -2.79547L-337.926 -7.07291C-336.208 -7.44099 -334.613 -6.3367 -334.245 -4.74161C-333.877 -3.0238 -334.981 -1.4287 -336.576 -1.06061L-356.957 3.25917L-352.616 26.1108L-333.14 21.0254C-331.545 20.6573 -329.828 21.6389 -329.459 23.234C-329.091 24.8291 -330.073 26.5469 -331.668 26.915L-351.481 32.0885L-347.901 50.9401L-333.14 47.4059C-331.545 47.0378 -329.828 48.0194 -329.459 49.6145C-329.091 51.2096 -330.073 52.9274 -331.668 53.2955L-346.767 56.9107L-343.139 76.0144L-325.165 72.8048C-323.447 72.5594 -321.852 73.6637 -321.607 75.2588C-321.361 76.8539 -322.466 78.5717 -324.061 78.8171L-341.998 82.0202L-339.071 97.4309L-284.959 89.1917L-294.981 30.2279C-295.226 28.6328 -294.122 27.0377 -292.527 26.6696L-260.993 20.9027C-259.275 20.5346 -257.68 21.7616 -257.435 23.3567C-257.189 25.0745 -258.293 26.6696 -259.889 26.915L-288.478 32.0684L-278.897 88.2686L-192.649 75.1362L-210.898 -29.2464ZM-337.904 103.574L-188.6 80.7803C-187.741 80.6576 -187.005 80.2896 -186.514 79.5533C-186.023 78.8171 -185.9 78.0809 -186.023 77.222L-204.586 -28.9699C-193.32 -28.4482 -181.699 -27.7591 -169.726 -26.8833C-162.257 55.4138 -153.727 106.426 -144.235 124.966C-179.64 134.515 -220.266 151.948 -265.778 177.1C-285.228 187.862 -303.064 198.7 -318.025 208.242L-337.904 103.574ZM-324.196 -83.515H-249.704V-36.3439C-260.614 -36.437 -271.126 -36.3735 -281.238 -36.1765V-74.1898C-281.238 -75.9076 -282.588 -77.2573 -284.306 -77.2573C-286.024 -77.2573 -287.373 -75.9076 -287.373 -74.1898V-36.0395C-299.34 -35.7382 -310.727 -35.2504 -321.534 -34.6163L-324.196 -83.515Z" fill="white"/>
</g>
<path d="M174 355.974C176.42 340.917 178.32 324.94 180.655 311.264C184.709 287.522 183.294 280.11 181.09 248.4C179.869 230.84 177.555 212.642 174 194.455C169.733 172.627 284.767 144.346 303.202 123.398C308.854 116.976 304.777 103.127 310.777 72.1272" stroke="#FECE80" stroke-width="6" stroke-linecap="round" stroke-dasharray="4 18"/>
<circle cx="176" cy="354" r="10" fill="#FF7A28"/>
<circle cx="311" cy="67" r="16" fill="#FF7A28"/>
<circle cx="311" cy="67" r="5" fill="white"/>
<g filter="url(#filter0_d_0_1844)">
<path d="M198.79 252.263C207.772 261.245 207.772 275.808 198.79 284.79C189.808 293.772 175.246 293.772 166.263 284.79C157.281 275.808 157.281 261.245 166.263 252.263L181.889 236.638C182.241 236.285 182.812 236.285 183.165 236.638L198.79 252.263Z" fill="#FF7A28"/>
<path d="M198.79 252.263C207.772 261.245 207.772 275.808 198.79 284.79C189.808 293.772 175.246 293.772 166.263 284.79C157.281 275.808 157.281 261.245 166.263 252.263L181.889 236.638C182.241 236.285 182.812 236.285 183.165 236.638L198.79 252.263Z" stroke="white" stroke-width="8"/>
</g>
<defs>
<filter id="filter0_d_0_1844" x="75.5269" y="128.374" width="214" height="223.153" filterUnits="userSpaceOnUse" color-interpolation-filters="sRGB">
<feFlood flood-opacity="0" result="BackgroundImageFix"/>
<feColorMatrix in="SourceAlpha" type="matrix" values="0 0 0 0 0 0 0 0 0 0 0 0 0 0 0 0 0 0 127 0" result="hardAlpha"/>
<feOffset dy="-24"/>
<feGaussianBlur stdDeviation="40"/>
<feColorMatrix type="matrix" values="0 0 0 0 1 0 0 0 0 0.478431 0 0 0 0 0.156863 0 0 0 0.5 0"/>
<feBlend mode="normal" in2="BackgroundImageFix" result="effect1_dropShadow_0_1844"/>
<feBlend mode="normal" in="SourceGraphic" in2="effect1_dropShadow_0_1844" result="shape"/>
</filter>
</defs>
</svg>
