<svg width="315" height="279" viewBox="0 0 315 279" fill="none" xmlns="http://www.w3.org/2000/svg">
<circle cx="163.5" cy="139.5" r="139.5" fill="#FF7A28"/>
<circle cx="47" cy="19" r="7" fill="#FFEED4"/>
<circle cx="277.5" cy="34.5" r="3.5" fill="#FF7A28"/>
<circle cx="24" cy="220" r="5" fill="#8EE04E"/>
<circle cx="308" cy="80" r="7" fill="#8EE04E"/>
<path d="M169.151 252.353L169.91 235.902L156.114 244.697L152 237.674L166.556 230.208L152 222.742L156.114 215.719L169.91 224.703L169.151 208.253H177.252L176.492 224.703L190.352 215.656L194.466 222.679L179.783 230.145L194.466 237.611L190.352 244.697L176.555 235.902L177.315 252.353H169.151V252.353Z" fill="#8EE04E"/>
<path d="M151.703 75.0145C152.964 74.7183 154.15 74.2001 155.262 73.4599C154.15 72.7936 152.964 72.2754 151.703 71.9053C150.443 71.5351 149.405 70.5728 149.034 69.2403C148.737 67.9818 148.218 66.7974 147.477 65.687C146.81 66.7974 146.291 67.9818 145.92 69.2403C145.549 70.4988 144.585 71.5351 143.251 71.9053C141.99 72.2014 140.73 72.7196 139.617 73.4599C140.73 74.1261 141.916 74.6443 143.251 75.0145C144.511 75.3846 145.549 76.347 145.92 77.6795C146.216 78.9379 146.735 80.1224 147.477 81.2328C148.144 80.1224 148.663 78.9379 149.034 77.6795C149.405 76.347 150.369 75.3106 151.703 75.0145Z" fill="#FFEED4"/>
<ellipse cx="156.523" cy="86.2667" rx="1.9278" ry="1.92472" fill="#FFEED4"/>
<path fill-rule="evenodd" clip-rule="evenodd" d="M219.607 267.258L224.515 157.926L235.882 157.214L235.859 156.741L260.847 155.113L269.077 176.284C269.744 177.913 269.818 179.69 269.373 181.392L267.149 189.98L269.107 230.649C255.624 246.256 238.74 258.843 219.607 267.258Z" fill="#8EE04E"/>
<path fill-rule="evenodd" clip-rule="evenodd" d="M78.6507 250.238C67.8749 241.969 58.3407 232.162 50.3761 221.146L52.718 184.057L59.7619 151.929L100.987 154.594L116.855 203.231C120.562 214.705 121.748 226.845 120.191 238.838L116.46 270.87C106.046 267.141 96.2043 262.208 87.1029 256.24L89.1238 224.403L82.8214 206.118L78.6507 250.238Z" fill="#6A320F"/>
<path d="M156.671 149.042C153.557 148.746 150.665 147.266 148.589 144.971C145.994 145.267 142.509 143.564 143.028 140.677L158.376 143.712L168.609 143.564L169.573 156.075L152.222 157.703L151.407 145.341" fill="#F4F4F6"/>
<path d="M155.114 146.599L139.469 144.971C138.728 144.897 138.06 145.415 137.912 146.155C137.838 146.599 138.06 147.043 138.357 147.34C138.654 147.562 139.024 147.71 139.395 147.784C145.03 148.672 150.591 149.708 156.226 150.893" fill="#F4F4F6"/>
<path d="M154.521 149.708L138.876 148.08C138.135 148.006 137.467 148.524 137.319 149.264C137.245 149.708 137.467 150.153 137.764 150.449C138.06 150.671 138.431 150.819 138.802 150.893C144.437 151.781 149.998 152.818 155.633 154.002" fill="#F4F4F6"/>
<path d="M155.93 152.744L138.357 150.893C138.209 151.485 138.357 153.484 140.211 153.928C145.697 155.112 151.258 155.853 156.819 156.149" fill="#F4F4F6"/>
<path d="M156.374 157.259C153.483 157.333 150.665 157.926 147.996 159.036C147.774 159.184 147.477 159.258 147.255 159.258C146.958 159.258 146.735 159.11 146.661 158.888C146.587 158.592 146.81 158.37 146.958 158.148C148.293 156.741 149.85 155.631 151.629 154.742" fill="#F4F4F6"/>
<path d="M205.978 108.475C203.087 107.217 201.752 103.885 203.012 100.998C203.309 100.332 203.754 99.6657 204.273 99.1475L205.533 97.963C206.201 97.4449 206.72 96.7046 207.091 95.9643C207.758 93.9655 206.127 91.4486 205.756 89.4499C205.385 87.155 205.608 84.8601 206.497 82.7133C208.648 77.4574 214.283 73.6819 219.325 71.3871C225.034 68.7961 231.411 68.2039 237.491 69.6844C241.198 70.6468 244.831 72.4975 247.055 75.6807C248.316 77.6054 248.983 79.8262 248.983 82.1951C248.983 84.9342 247.723 86.3407 246.833 88.7096C246.536 89.4499 246.536 90.3382 246.907 91.0785C247.426 92.1149 248.612 92.485 249.725 92.8551L255.211 94.6318C258.177 95.5942 259.809 98.7774 258.845 101.812C258.548 102.627 258.177 103.367 257.584 103.959C255.879 105.736 253.877 107.217 251.727 108.401C247.204 110.844 242.088 112.028 237.046 113.065C233.635 113.805 217.397 113.361 205.978 108.475Z" fill="#6A320F"/>
<path d="M220.363 120.245L221.92 99.2956L220.066 99.3696C216.73 99.5917 213.838 97.0007 213.541 93.6695L212.874 84.1199C212.874 83.0835 213.022 82.0471 213.171 81.0847C214.135 75.7547 217.249 72.5715 221.994 71.091C226.369 69.7585 231.781 69.3143 236.749 72.0534C247.574 77.9756 239.567 88.7836 234.673 93.0032L238.529 108.549L222.068 131.053L220.363 120.245Z" fill="white"/>
<path d="M235.34 95.4461C234.747 93.5954 234.451 91.4486 233.932 89.5979C235.266 89.1538 236.452 88.4135 237.416 87.3771C238.38 86.3407 238.751 84.9342 238.38 83.5277C237.935 82.1952 236.601 81.3068 235.192 81.3809C234.451 81.4549 233.783 81.677 233.264 82.1211C232.597 82.6393 232.745 83.1575 232.3 83.7497C232.152 84.0459 231.781 84.2679 231.411 84.2679C231.04 84.1939 230.669 83.9718 230.521 83.6757C230.372 83.3056 230.298 82.9354 230.224 82.5653C229.853 80.6406 229.112 78.8639 228 77.3093C222.958 70.2767 212.948 74.6443 212.429 80.5666C213.245 76.9392 215.469 73.83 218.732 72.0534C221.92 70.3507 225.479 69.4624 229.112 69.3884C232.449 69.2403 236.008 69.5364 238.899 71.165C243.2 73.6079 245.424 78.9379 244.757 83.8238C244.09 88.7836 239.567 92.9292 235.34 95.4461Z" fill="#6A320F"/>
<path d="M220.808 165.254L211.465 170.954L201.826 171.547L195.301 170.436C195.301 170.436 192.854 173.249 203.606 177.099C204.199 177.321 204.421 177.913 204.273 178.505C204.199 178.801 203.902 179.023 203.606 179.172L194.634 182.577L189.073 184.576C188.257 184.872 187.887 185.76 188.183 186.5C188.332 186.796 188.48 187.092 188.776 187.241V187.241L198.267 185.316L215.395 181.911L223.477 178.209" fill="white"/>
<path opacity="0.4" d="M221.772 99.2956L228.593 97.815C226.294 100.628 223.625 103.589 221.327 106.402" fill="#FF7A28"/>
<path d="M221.327 108.623L212.577 109.437C209.167 110.03 206.275 112.769 204.57 115.804L190.259 140.677H165.495L167.941 158.296L198.045 157.111C201.233 156.963 204.199 155.261 205.83 152.448L222.735 123.429" fill="#FFA453"/>
<path d="M219.028 118.765L214.728 128.018C213.393 130.979 214.06 134.459 216.433 136.68L222.735 142.528L223.996 152.596C223.922 153.484 224.589 157.926 224.589 157.926L261.143 156.371L241.494 107.587L238.454 107.735L224.218 127.352L221.401 108.697" fill="#FFA453"/>
<path d="M241.42 107.513L253.135 111.88C255.508 112.769 257.362 114.693 258.103 117.062L270.337 154.668C271.524 158.222 269.892 162.145 266.482 163.848L224.886 187.315L215.766 167.179L222.513 163.996L249.576 148.894L240.382 125.131" fill="#FFA453"/>
<path d="M226.591 79.3821C224.663 77.6794 221.697 77.8275 219.992 79.7522C219.992 79.7522 219.992 79.7522 219.918 79.8262C222.291 79.6782 224.292 79.5301 226.591 79.3821Z" fill="#6A320F"/>
<path d="M219.028 118.765L214.728 128.018C213.393 130.979 214.06 134.459 216.433 136.68L222.735 142.528L224.589 158" stroke="#121826" stroke-width="2.00735"/>
<path d="M237.046 182.059L235.785 251.053" stroke="#121826" stroke-width="2.00735"/>
<path d="M222.661 163.996L249.725 148.894L240.605 125.131" stroke="#121826" stroke-width="2.00735"/>
<path d="M244.534 176.284L267.001 171.028L264.628 164.884L244.534 176.284Z" fill="#121826"/>
<path d="M49.8263 122.762L41.2253 151.411C39.8907 155.927 41.8185 160.665 45.8224 162.515L68.956 169.326L72.6633 153.78L61.6897 148.746L69.5492 128.759L49.8263 122.762Z" fill="white"/>
<path d="M46.4155 126.982L53.9784 106.18C55.8321 101.146 60.5775 97.815 65.9901 97.741L100.765 97.667C106.622 97.667 111.738 101.59 113.221 107.291L116.187 126.908L95.7228 130.017L100.468 155.113L59.6877 151.781L60.5033 131.498L46.4155 126.982Z" fill="#8EE04E"/>
<path d="M75.555 97.815L78.8916 85.2303L73.7755 78.4197L96.3901 64.2064L103.137 84.2679C103.582 85.6004 102.841 87.0069 101.58 87.4511C101.284 87.5251 101.061 87.5992 100.765 87.5992L94.9072 87.5251L96.5384 97.815" fill="white"/>
<path fill-rule="evenodd" clip-rule="evenodd" d="M73.3307 79.9743L68.3629 73.904C67.2507 72.3495 67.1024 70.4247 67.9921 68.7221L71.996 60.8011C73.6273 57.5439 77.1121 55.6192 80.7453 56.0633L91.1999 57.1738C92.9794 57.3218 94.5365 58.5063 95.278 60.1349L96.6126 63.3181" fill="#121826"/>
<path opacity="0.4" d="M86.6029 78.4197L80.8195 81.6029L82.0799 76.7171L86.6029 78.4197Z" fill="#FF7A28"/>
<path d="M98.0955 72.0533L102.025 73.904C102.544 74.1261 102.767 74.7924 102.544 75.3106C102.47 75.3846 102.47 75.4586 102.396 75.5327L100.394 77.9015" fill="#FECE80"/>
<path d="M95.8711 63.6882L109.811 61.0972" stroke="#121826" stroke-width="2"/>
<path fill-rule="evenodd" clip-rule="evenodd" d="M94.9814 63.9103C91.8672 66.0571 88.9014 68.2779 85.7872 70.4247C86.6028 71.4611 87.8633 72.0534 89.198 71.9793C90.6067 71.8313 91.7931 70.9429 92.4604 69.7585C96.2419 71.9053 101.21 72.3495 104.027 68.574C105.362 66.7974 105.807 64.5025 105.288 62.3557L94.9814 63.9103Z" fill="#121826"/>
<path fill-rule="evenodd" clip-rule="evenodd" d="M73.7755 78.4197L72.3668 83.6017C74.7394 85.2303 77.7794 85.1563 80.078 83.3796C82.2282 81.677 82.5989 75.6807 81.4868 73.1638" fill="#121826"/>
<path d="M88.3823 73.682C87.7892 71.6092 85.7872 70.2026 83.637 70.3507C81.5609 70.5728 79.8555 72.8676 80.3745 74.8664C80.7453 76.1249 81.7092 77.0872 82.8955 77.6054C84.0818 78.1236 85.3423 78.3457 86.677 78.4197" fill="white"/>
<path opacity="0.4" d="M94.8331 87.5251L89.6428 86.6368L95.5004 91.1525" fill="#FF7A28"/>
<path d="M91.9414 130.091L89.4204 113.435" stroke="#121826" stroke-width="2.00735"/>
<path d="M100.394 160.591L58.2789 157.926L59.7619 151.929L100.765 154.52L100.394 160.591Z" fill="#121826"/>
<path d="M89.1238 224.403L73.7755 179.394L66.6575 178.949" stroke="#121826" stroke-width="2.00735"/>
<path d="M63.0985 172.287L59.4653 183.095C58.4272 186.13 55.5355 188.055 52.4214 187.833V187.833" stroke="#121826" stroke-width="2.00735"/>
<path d="M89.7911 173.916L106.919 221.071L100.765 259.91" stroke="#121826" stroke-width="2.00735" stroke-linecap="round" stroke-linejoin="round" stroke-dasharray="7.86 7.86"/>
<path d="M229.112 63.4661C228.964 64.6506 229.483 65.835 230.447 66.5753C233.561 69.3143 242.088 71.7572 240.456 64.8726C239.344 60.431 230.224 58.0621 229.112 63.4661Z" fill="#6A320F"/>
<path opacity="0.46" d="M149.405 145.341C150.739 148.154 153.483 150.079 156.597 150.375" stroke="#D3D5DA" stroke-width="0.556097"/>
<path opacity="0.46" d="M138.95 147.858L151.407 148.968" stroke="#D3D5DA" stroke-width="0.556097"/>
<path opacity="0.46" d="M138.579 150.967L151.926 152.299" stroke="#D3D5DA" stroke-width="0.556097"/>
<rect x="113.518" y="109.808" width="71.2546" height="45.8232" fill="#FECE80" stroke="#FF7A28" stroke-width="2.00735"/>
<rect x="126.864" y="110.622" width="15.9415" height="17.9887" fill="white"/>
<rect x="159.34" y="109.808" width="25.5063" height="45.8232" fill="#FECE80" stroke="#FF7A28" stroke-width="2.00735"/>
<path d="M94.5365 129.425L99.7267 167.253C100.246 171.103 103.36 174.064 107.216 174.582V174.582C109.811 174.878 158.895 161.331 158.895 161.331L174.54 158.888V158.888C174.763 156.889 173.354 155.113 171.426 154.89V154.89L152.371 154.742L150.22 146.599C149.701 144.527 147.922 142.972 145.772 142.676V142.676L146.068 155.335L115.742 155.705L113.37 125.427" fill="white"/>
<path d="M89.8653 72.4975C91.1258 70.7949 93.4985 70.4247 95.2038 71.6092C95.8711 72.0534 96.316 72.7936 96.6126 73.5339C94.1658 74.5703 91.719 73.9041 89.8653 72.4975Z" fill="white"/>
<rect y="64.7986" width="55.6612" height="55.4415" fill="#FECE80"/>
<path d="M26.1127 105.41L26.5326 95.8276L18.4392 100.961L16.0341 96.8543L24.5475 92.4814L16.0341 88.1084L18.4392 84.0016L26.5326 89.2492L26.1127 79.6667H30.8466L30.4266 89.2492L38.52 84.0016L40.9251 88.1084L32.3354 92.4814L40.9251 96.8543L38.52 100.961L30.4266 95.7896L30.8466 105.372L26.1127 105.41V105.41Z" fill="white"/>
<path d="M250.615 197.81L259.204 149.859H297.304L305.512 197.81H250.615Z" fill="#6A320F"/>
<path d="M269.359 149.403C269.245 144.612 273.1 140.657 277.873 140.543C282.683 140.429 286.653 144.269 286.768 149.022C286.768 149.137 286.768 149.251 286.768 149.327" stroke="#121826" stroke-width="1.48293"/>
<path d="M312.728 213.552H288.486L277.071 201.916V178.036H312.728V213.552Z" fill="white" stroke="#FF7A28" stroke-width="2"/>
<path d="M296.835 187.147L297.968 190.178C298.226 190.897 298.946 191.462 299.77 191.462L303.066 191.616C304.147 191.667 305.022 192.643 304.971 193.722C304.919 194.287 304.662 194.801 304.25 195.212L301.675 197.266C301.057 197.729 300.8 198.55 300.955 199.372L301.83 202.506C302.139 203.533 301.469 204.663 300.44 204.971C299.873 205.125 299.307 205.023 298.844 204.714L296.115 202.917C295.445 202.506 294.57 202.506 293.952 202.917L291.223 204.714C290.297 205.331 289.061 205.074 288.443 204.149C288.134 203.687 288.031 203.071 288.185 202.557L289.061 199.424C289.267 198.653 289.009 197.831 288.34 197.318L285.766 195.263C284.89 194.544 284.736 193.311 285.457 192.438C285.817 192.027 286.383 191.719 286.95 191.719L290.245 191.564C291.017 191.513 291.738 190.999 292.047 190.28L293.18 187.25C293.592 186.222 294.776 185.709 295.806 186.171C296.218 186.274 296.681 186.633 296.835 187.147Z" fill="#FECE80"/>
<path d="M277.071 178.036L271.039 197.771H277.071" fill="#FF7A28"/>
</svg>
