<svg width="327" height="279" viewBox="0 0 327 279" fill="none" xmlns="http://www.w3.org/2000/svg">
<circle cx="163.5" cy="139.5" r="139.5" fill="#FF7A28"/>
<path d="M212.819 174.111C212.819 174.111 215.468 152.315 219.905 149.228C224.342 146.141 239.87 146.018 241.965 144.165C243.998 142.313 251.639 122.555 254.042 124.901C256.445 127.247 252.563 151.142 252.563 151.142C252.563 151.142 233.646 166.023 232.968 172.753C232.229 179.421 212.819 174.111 212.819 174.111Z" fill="white"/>
<path d="M241.349 149.166C241.349 149.166 247.202 147.129 249.298 141.757C251.208 136.879 253.981 124.901 253.981 124.901" stroke="#FF7A28" stroke-width="1.17951" stroke-linecap="round" stroke-linejoin="round"/>
<path d="M244.368 152.192C244.368 152.192 250.222 150.154 252.317 144.783C254.227 139.905 257 127.926 257 127.926" stroke="#FF7A28" stroke-width="1.17951" stroke-linecap="round" stroke-linejoin="round"/>
<ellipse cx="224.526" cy="77.7284" rx="5.54578" ry="5.55698" fill="white"/>
<path d="M235.68 140.337C220.028 134.286 219.905 102.611 242.396 112.737C249.482 114.281 258.972 122.123 246.771 124.654C230.503 127.062 217.07 102.179 235.063 94.6463" stroke="#FFE0A9" stroke-width="1.09599" stroke-dasharray="4.38"/>
<path d="M208.567 190.552L194.518 138.132C193.778 133.995 191.19 130.537 187.431 128.623L160.565 124.239L174.245 238.96L202.775 244.826L237.713 218.214L208.567 190.552Z" fill="#8EE04E"/>
<path d="M126.489 123.93C113.919 120.411 98.2674 114.607 96.7269 99.6649C96.0491 92.9347 98.3906 86.2046 103.135 81.3886C107.264 77.1899 112.995 74.5967 116.076 69.5337C117.924 66.4464 118.664 62.7418 119.834 59.2841C124.702 45.5769 143.866 42.3044 156.436 43.8481C166.419 45.1447 175.354 51.6896 181.516 59.1606C197.167 78.3013 202.959 128.376 146.762 126.585C140.046 126.4 133.144 125.783 126.489 123.93Z" fill="#6A320F"/>
<path d="M112.317 35.5743C101.718 32.9811 90.873 39.4025 88.285 50.146C87.2375 54.4681 87.6072 58.9136 89.3942 62.927C90.9963 66.5699 94.2621 70.0276 98.2674 69.9041C102.766 69.7806 105.847 65.5203 107.757 61.5069C109.174 58.6049 110.468 55.3325 112.871 53.1097C115.644 50.5164 119.465 50.9486 122.299 48.6024C128.646 43.3541 116.938 36.6857 112.317 35.5743Z" fill="#6A320F"/>
<path d="M131.172 47.4292C130.864 44.8977 128.646 43.1071 126.243 43.4158C126.12 43.4158 125.935 43.4158 125.873 43.5393C124.394 44.095 123.162 44.9594 122.238 46.1326C120.635 47.7997 119.28 49.5903 117.863 51.4426C117 52.3688 116.445 53.6036 116.26 54.7768C116.137 56.9378 117.924 58.7284 120.081 58.7284C120.266 58.7284 120.574 58.7284 120.759 58.7284" fill="white"/>
<path d="M131.172 47.4292C130.864 44.8977 128.646 43.1071 126.243 43.4158C126.12 43.4158 125.935 43.4158 125.873 43.5393C124.394 44.095 123.162 44.9594 122.238 46.1326C120.635 47.7997 119.28 49.5903 117.863 51.4426C117 52.3688 116.445 53.6036 116.26 54.7768C116.137 56.9378 117.924 58.7284 120.081 58.7284C120.266 58.7284 120.574 58.7284 120.759 58.7284" stroke="#FFE0A9" stroke-width="1.65791"/>
<path d="M161.366 51.8131C166.234 52.8627 170.424 55.7647 173.012 59.8398C175.723 63.8532 177.141 68.731 178.065 73.4853C179.113 79.4745 179.174 85.5254 178.373 91.5146C177.264 98.6152 168.76 102.443 164.324 100.097L165.803 119.361L177.757 123.128L165.248 155.79L139.799 144.553L131.48 117.015L137.827 116.336L139.429 94.1079C139.491 94.1696 125.565 45.3299 161.366 51.8131Z" fill="white"/>
<path d="M142.079 78.9188C140.415 77.3134 138.444 76.1403 136.41 75.2759C134.253 74.4114 131.85 74.5967 129.878 75.955C127.845 77.6221 127.167 80.5241 128.215 82.9321C129.324 85.3402 131.665 86.9455 134.253 87.1308C136.841 87.316 139.491 86.5751 141.524 84.908" fill="white"/>
<path d="M151.753 66.7552C152.801 65.2733 154.28 64.2237 156.067 63.8532C157.854 63.4827 159.702 63.8532 161.304 64.9028C157.915 65.582 155.142 66.1377 151.753 66.7552Z" fill="#FF7A28"/>
<path d="M134.931 86.5133C135.301 83.3644 137.273 81.5738 139.306 82.5C141.34 83.4261 143.435 86.6368 144.174 90.1562C144.914 93.6757 144.297 97.1333 142.695 98.7387C141.093 100.344 138.752 99.9736 136.841 97.9978" stroke="#FF7A28" stroke-width="1.65791"/>
<path d="M173.505 60.1485C173.875 60.8277 174.245 61.5686 174.553 62.3096L171.78 63.174V63.174C171.595 63.2975 171.41 63.0505 171.41 62.8653C171.41 62.7418 171.41 62.68 171.41 62.5566C171.841 61.6304 172.581 60.8277 173.505 60.1485Z" fill="#FF7A28"/>
<path opacity="0.4" d="M166.85 101.27L152.801 96.3924C152.801 96.3924 155.697 109.667 167.22 110.223" fill="#FF7A28"/>
<path d="M97.035 119.732C108.435 111.581 131.419 117.138 137.889 116.398C166.665 149.245 165.371 152.333 165.371 152.333C165.371 152.333 173.382 127.758 174.429 121.955C184.473 123.066 195.134 126.832 196.058 150.913C196.243 157.272 196.058 183.514 181.331 182.279L184.782 205.001C180.468 208.458 126.613 211.916 126.613 211.916L130.926 201.728L121.313 159.433L91.6741 142.886C91.9206 135.97 91.1811 123.869 97.035 119.732Z" fill="#8EE04E"/>
<path d="M119.157 204.568L138.505 249.642L101.656 251L82.8625 196.912L92.1054 131.216L121.745 140.787L119.157 204.568Z" fill="#8EE04E"/>
<path d="M192.977 159.557C197.29 166.657 195.01 175.981 187.924 180.303C185.952 181.538 183.611 182.279 181.331 182.464C182.255 189.379 182.748 198.147 183.672 205.062" stroke="#121826" stroke-width="2"/>
<path d="M121.19 159.557L122.607 138.811" stroke="#121826" stroke-width="2"/>
<path d="M130.618 65.2733C130.31 70.1511 132.22 74.041 136.78 75.6463C137.334 75.8316 138.012 76.0168 138.567 76.0168C142.88 76.3255 146.762 73.6088 147.995 69.4719C149.042 65.5203 147.255 61.2599 148.549 57.4318C149.658 54.468 152.185 52.1835 155.266 51.4426C158.347 50.7634 161.613 51.1339 164.385 52.554C160.01 49.4668 154.711 47.8614 149.35 47.9849C146.269 47.9849 143.188 48.8493 140.6 50.3929C133.76 54.715 130.926 59.9015 130.618 65.2733Z" fill="#6A320F"/>
<path fill-rule="evenodd" clip-rule="evenodd" d="M75 247.338V183.218C75 178.36 78.9437 174.424 83.8116 174.424H236.136C241.004 174.424 244.947 178.36 244.947 183.218V252.767C222.03 269.275 193.901 279 163.5 279C129.903 279 99.0795 267.123 75 247.338Z" fill="#121826"/>
<ellipse cx="160.811" cy="226.052" rx="9.98241" ry="10.0026" fill="white"/>
<rect y="125.571" width="75.0694" height="74.8928" fill="#FECE80"/>
<path d="M275.461 155.055H316.136C322.109 155.055 327 159.884 327 165.894V200.309C327 206.268 322.16 211.148 316.136 211.148H275.461C269.488 211.148 264.597 206.319 264.597 200.309V165.894C264.597 159.884 269.436 155.055 275.461 155.055Z" fill="#8EE04E"/>
<path d="M35.2178 180.43L35.7841 167.486L24.8687 174.42L21.6249 168.873L33.1068 162.966L21.6249 157.058L24.8687 151.511L35.7841 158.599L35.2178 145.655H41.6023L41.0359 158.599L51.9513 151.511L55.1951 157.058L43.6103 162.966L55.1951 168.873L51.9513 174.42L41.0359 167.435L41.6023 180.379L35.2178 180.43V180.43Z" fill="white"/>
<path d="M288.59 199.179L298.579 211.148L289.62 211.353L288.59 199.179Z" fill="#1B7A00"/>
<path d="M289.053 224.298C289.568 224.554 290.238 224.349 290.495 223.835C290.598 223.681 290.649 223.476 290.598 223.27L289.62 211.405L288.59 199.231C288.538 198.666 288.024 198.203 287.457 198.306C287.303 198.306 287.2 198.357 287.045 198.409L276.336 204.367L265.884 210.172C265.369 210.429 265.163 211.096 265.472 211.61C265.575 211.815 265.729 211.918 265.884 212.021L271.136 214.846L262.022 231.746L274.637 238.475L283.75 221.472L289.053 224.298Z" fill="white" stroke="#FFE0A9" stroke-width="1.82666"/>
<path d="M48.2957 92.4903C47.8838 83.2443 56.2763 74.5633 65.5957 74.6147C74.915 74.666 83.153 83.5011 82.5867 92.7472C82.2778 97.7811 78.5706 103.226 73.5763 102.918C68.6334 102.61 65.6986 97.0106 65.6471 92.0794C65.5442 80.5219 77.7983 70.5567 89.1256 72.9709" stroke="#121826" stroke-width="2"/>
<path d="M288.178 173.393V192.296L296.313 186.748L304.397 192.296V173.393H288.178Z" fill="#1B7A00"/>
<path d="M234.932 96.3618L246.516 31.5882H297.901L308.971 96.3618H234.932Z" fill="#6A320F"/>
<path d="M260.212 30.9718C260.058 24.4996 265.258 19.1574 271.694 19.0033C278.181 18.8492 283.536 24.0373 283.691 30.4581C283.691 30.6123 283.691 30.7664 283.691 30.8691" stroke="#121826" stroke-width="2"/>
<path d="M318.702 117.628H286.008L270.613 101.909V69.6511H318.702V117.628Z" fill="white" stroke="#FF7A28" stroke-width="2"/>
<path d="M270.613 69.6511L262.478 96.3104H270.613" fill="#FF7A28"/>
<path d="M297.541 84.3933L298.674 87.424C298.931 88.1431 299.652 88.7081 300.476 88.7081L303.771 88.8622C304.852 88.9136 305.727 89.8896 305.676 90.9683C305.624 91.5333 305.367 92.047 304.955 92.4579L302.381 94.5126C301.763 94.9749 301.505 95.7968 301.66 96.6186L302.535 99.752C302.844 100.779 302.175 101.909 301.145 102.218C300.579 102.372 300.012 102.269 299.549 101.961L296.82 100.163C296.151 99.752 295.275 99.752 294.658 100.163L291.929 101.961C291.002 102.577 289.766 102.32 289.148 101.396C288.839 100.933 288.736 100.317 288.891 99.8034L289.766 96.67C289.972 95.8995 289.715 95.0776 289.045 94.564L286.471 92.5093C285.596 91.7902 285.441 90.5574 286.162 89.6841C286.522 89.2732 287.089 88.965 287.655 88.965L290.95 88.8109C291.723 88.7595 292.444 88.2458 292.752 87.5267L293.885 84.4961C294.297 83.4687 295.481 82.9551 296.511 83.4174C296.923 83.5201 297.386 83.8797 297.541 84.3933Z" fill="#FECE80"/>
<circle cx="47" cy="19" r="7" fill="#FFE0A9"/>
<circle cx="88.5" cy="271.5" r="3.5" fill="#FF7A28"/>
<circle cx="24" cy="220" r="5" fill="#8EE04E"/>
<circle cx="252" cy="7" r="7" fill="#8EE04E"/>
</svg>
