<svg width="327" height="348" viewBox="0 0 327 348" fill="none" xmlns="http://www.w3.org/2000/svg">
<ellipse cx="163.899" cy="140.4" rx="140.013" ry="139.907" fill="#FF7A28"/>
<circle cx="65" cy="12" r="7" fill="#FECE80"/>
<circle cx="88.5" cy="272.5" r="3.5" fill="#FF7A28"/>
<circle cx="26" cy="57" r="5" fill="#8EE04E"/>
<circle cx="304" cy="65" r="7" fill="#8EE04E"/>
<path d="M187.52 206.423H146.827L143.283 226.48C159.421 223.633 174.673 216.737 187.52 206.423Z" fill="#6A320F"/>
<path opacity="0.7" d="M132.967 283.867L146.763 206.423H208.089L221.316 283.867H132.967Z" fill="#6A320F"/>
<path d="M163.092 205.728C163.092 198.008 169.357 191.745 177.078 191.745C184.799 191.745 191.065 198.008 191.065 205.728" stroke="#121826" stroke-width="0.632874"/>
<path d="M20.0621 298.799L35.5675 211.865H104.298L119.107 298.799H20.0621Z" fill="#8EE04E"/>
<path d="M53.8575 211.106C53.8575 202.437 60.8824 195.414 69.5528 195.414C78.2232 195.414 85.2481 202.437 85.2481 211.106" fill="white"/>
<path d="M53.8575 211.106C53.8575 202.437 60.8824 195.414 69.5528 195.414C78.2232 195.414 85.2481 202.437 85.2481 211.106" stroke="#F4F4F6" stroke-width="0.632874"/>
<path d="M190.938 298.926L206.823 210.156H277.009L292.198 298.926H190.938Z" fill="white" stroke="#8EE04E" stroke-width="2.00735"/>
<path d="M225.493 209.397C225.683 200.539 233.024 193.516 241.884 193.643C250.491 193.833 257.453 200.729 257.643 209.397" stroke="#121826" stroke-width="2.00735" stroke-linecap="round" stroke-linejoin="round"/>
<path d="M73.0336 319.236L82.6533 265.202H125.372L134.612 319.236H73.0336Z" fill="white" stroke="#8EE04E" stroke-width="2.00735"/>
<path d="M94.045 264.696C94.045 259.318 98.4118 254.952 103.791 254.952C109.171 254.952 113.538 259.318 113.538 264.696" stroke="#121826" stroke-width="2.00735" stroke-linecap="round" stroke-linejoin="round"/>
<path d="M157.206 100.255C154.295 93.6111 155.877 85.5756 159.99 79.5649C164.104 73.5541 170.433 69.4415 177.141 66.5943C182.584 64.2532 188.723 62.6715 194.419 64.2532C202.203 66.4677 207.519 74.6297 207.519 82.7284C207.519 90.8271 202.899 98.4829 196.444 103.418C185.622 111.58 164.104 115.946 157.206 100.255Z" fill="#6A320F"/>
<path d="M147.649 288.486C147.523 289.119 151.13 301.647 152.712 306.898C153.155 308.353 152.839 309.872 151.953 311.074L125.689 344.924L125.562 344.481C124.486 340.368 124.803 336.003 126.511 332.08L133.22 316.705L128.537 296.015" fill="#FFEED4"/>
<path d="M54.5537 185.291L48.8579 196.49L25.315 203.323C21.8342 204.652 18.8596 206.993 16.8345 210.093L16.6446 210.41H59.8066C62.7178 210.283 65.3126 208.575 66.4517 205.917L74.9323 185.291" fill="#FFEED4"/>
<path d="M108.664 67.7332C109.93 72.1621 135.119 141.507 135.119 141.507L111.133 138.154L93.159 71.656" fill="white"/>
<path d="M170.559 94.1172C170.559 94.1172 168.914 109.429 166.066 113.478C166.066 113.478 173.281 122.21 181.761 114.301L179.483 92.662" fill="white"/>
<path d="M166.066 114.427C166.066 114.427 153.535 107.151 146.067 112.719C138.599 118.287 126.258 153.529 126.258 153.529L141.7 161.754L166.066 114.427Z" fill="white"/>
<path d="M166.066 155.68C166.066 155.68 177.205 163.209 191.318 155.68C191.318 155.68 203.152 187.126 193.026 197.819C175.053 216.8 130.878 212.814 130.878 212.814L148.725 289.119L127.84 298.736L98.7283 214.269C95.5639 205.032 100.247 194.971 109.424 191.491L155.181 174.155L166.066 155.68Z" fill="#6A320F"/>
<path d="M166.066 163.462C167.838 162.134 127.714 123.285 112.398 108.543C108.728 105 103.665 103.355 98.6017 103.988V103.988C92.9691 104.747 88.0327 108.29 85.5645 113.415L50.44 187.126H76.3246L101.64 139.799L137.397 187.126H166.003L166.066 163.462Z" fill="#6A320F"/>
<path d="M132.524 45.3352V45.3352C133.916 48.8784 137.84 50.7765 141.511 49.6376V49.6376C145.371 48.4355 149.485 50.65 150.687 54.5095C151.257 56.4709 151.067 58.5589 150.054 60.2672V60.2672C148.156 63.5573 149.105 67.7965 152.269 69.9477V69.9477C155.624 72.2254 156.446 76.781 154.168 80.1343C153.029 81.7794 151.257 82.9183 149.232 83.2346V83.2346C145.434 83.8041 142.776 87.2207 143.029 91.017V91.017C143.346 95.0663 140.308 98.5462 136.258 98.8626C134.232 98.9891 132.207 98.2931 130.752 96.9012V96.9012C127.967 94.3071 123.6 94.3071 120.816 96.9012V96.9012C117.841 99.6218 113.221 99.4953 110.436 96.5215C109.044 95.003 108.348 93.0416 108.475 91.017V91.017C108.728 87.2207 106.07 83.8041 102.272 83.2346V83.2346C98.2853 82.6019 95.5006 78.8689 96.1335 74.8828C96.4499 72.8581 97.5891 71.0866 99.2346 69.9477V69.9477C102.399 67.7965 103.348 63.5573 101.45 60.2672V60.2672C99.4244 56.724 100.69 52.295 104.171 50.2704C105.943 49.258 107.968 49.0682 109.93 49.6376V49.6376C113.601 50.7765 117.525 48.8784 118.917 45.3352V45.3352C120.373 41.5389 124.676 39.7041 128.41 41.1593C130.245 41.9186 131.764 43.4371 132.524 45.3352Z" fill="#FECE80"/>
<path d="M95.1209 78.8056L92.4629 68.8088C91.8933 66.5943 91.8933 64.19 92.3996 61.9755V61.9755C92.6527 60.7733 93.7286 59.9508 94.9311 59.9508H95.9437L95.6272 58.3058C95.5006 57.7363 95.6272 57.1036 95.9437 56.5342V56.5342C96.3867 55.7749 97.2094 55.332 98.0954 55.332H98.2853L98.1587 54.6993C98.0321 53.8135 98.3486 52.9277 99.0447 52.3583V52.3583C99.6776 51.8521 100.5 51.6623 101.26 51.8521L102.526 52.1685L115.626 56.9138C115.626 56.9138 114.36 60.2672 111.512 59.6977C111.512 59.6977 110.753 62.6715 108.285 62.5449C105.816 62.4184 105.5 61.9755 105.5 61.9755L108.285 63.2409C108.285 63.2409 107.652 66.2147 105.753 65.835C103.855 65.4554 99.3612 64.0634 99.3612 64.0634L103.095 65.139" fill="white"/>
<path d="M166.066 113.478C166.066 113.478 154.927 128.157 155.75 133.409C156.573 138.66 165.307 142.393 165.307 142.393L166.066 155.68C166.066 155.68 176.002 164.032 191.318 155.68L195.621 130.119C195.621 130.119 188.723 124.93 181.825 114.237C181.825 114.237 171.319 119.489 166.066 113.478Z" fill="#8EE04E"/>
<path d="M178.344 47.7395C176.635 47.4864 174.863 48.0559 173.597 49.258C172.332 50.4602 171.319 51.8521 170.559 53.3706C169.547 55.1422 168.598 57.0404 168.408 59.065C168.218 61.0897 169.167 63.3675 171.066 64.1267C172.964 64.886 174.99 64.19 176.635 62.9878C180.053 60.5203 185.559 49.1947 178.344 47.7395Z" fill="#6A320F"/>
<path d="M195.431 130.182C196.001 131.7 195.748 133.915 195.874 135.497C196.191 140.558 196.634 145.62 197.077 150.682C198.089 162.007 199.229 173.333 199.988 184.658C200.431 191.049 200.811 197.502 200.684 203.956C200.558 210.157 200.431 216.294 200.368 222.494C200.368 223.823 200.621 225.595 201.95 225.784C202.899 225.974 203.912 221.798 204.165 220.849C204.924 217.749 204.988 215.724 206.697 213.7C211.063 208.385 218.848 209.967 224.987 209.967H237.391C238.91 209.967 240.176 210.093 241.694 210.093C241.062 207.815 238.34 206.74 232.518 206.297C229.164 206.044 225.809 205.601 222.645 204.399C218.784 202.88 216.506 200.096 216.696 196.047C217.012 190.922 216.19 185.481 216 180.293C215.62 169.6 215.367 158.907 215.367 148.214C215.367 139.672 215.43 131.068 215.62 122.463C215.747 116.452 217.709 106.708 211.253 103.038C208.215 101.33 204.418 102.153 201.127 103.292C197.836 104.43 194.735 105.886 191.697 107.657C189.672 108.859 181.825 114.237 181.825 114.237C183.723 117.528 186.002 120.565 188.533 123.412C192.457 127.651 195.368 129.865 195.431 130.182Z" fill="white"/>
<path d="M165.939 74.3134C167.395 72.7316 169.041 71.3396 170.813 70.1375C172.775 68.7455 174.863 67.5434 177.015 66.4677C181.192 64.3798 185.685 62.8613 190.432 62.9246C195.305 62.9878 199.988 64.7594 203.216 68.5557C206.19 72.1621 207.772 76.7177 207.583 81.3997C207.456 86.588 205.431 91.6497 202.52 95.8888C202.14 96.395 201.823 96.9012 201.38 97.4073C201.127 97.7237 201.697 98.04 201.95 97.7237C205.178 93.5478 207.519 88.5494 208.089 83.2979C208.658 78.4893 207.456 73.6174 204.735 69.568C203.406 67.6066 201.697 66.0248 199.672 64.7594C197.52 63.494 195.115 62.7347 192.583 62.4184C187.71 61.8489 182.9 62.9878 178.47 65.0125C176.192 66.0248 173.977 67.227 171.888 68.619C169.927 69.8211 168.155 71.2131 166.446 72.7949C166.066 73.1745 165.75 73.4908 165.37 73.8705C164.99 74.2501 165.686 74.6297 165.939 74.3134V74.3134Z" fill="#6A320F"/>
<path opacity="0.4" d="M180.116 98.3564L179.546 92.662L170.559 94.054C170.559 94.054 170.37 95.8888 169.99 98.4197C170.496 99.432 171.256 100.255 172.205 100.824C173.85 101.71 175.876 101.393 177.458 100.444C178.47 99.8749 179.356 99.1789 180.116 98.3564Z" fill="#FF7A28"/>
<path d="M172.521 71.8458C165.75 76.7809 165.053 82.9815 165.307 88.7392C165.56 94.4968 171.382 97.9135 174.167 97.5339C176.951 97.1542 186.381 93.1682 186.508 81.2099C186.634 69.2517 176.255 69.1251 172.521 71.8458Z" fill="white"/>
<path d="M185.369 84.1204C186.065 83.108 187.267 82.5386 188.47 82.5386C189.736 82.6019 190.811 83.2979 191.381 84.4367C191.824 85.5756 191.571 86.9043 190.748 87.7901C189.166 89.5617 186.318 89.0555 185.748 88.929C185.116 88.8024 184.673 88.3595 184.419 87.7901" fill="white"/>
<path d="M194.545 119.173L196.381 138.976" stroke="#FF7A28" stroke-width="0.632874" stroke-linecap="round" stroke-linejoin="round"/>
<rect x="16.1383" y="210.346" width="50.5033" height="1.51851" fill="#FF7A28"/>
<path d="M133.789 182.317L166.129 170.169" stroke="#121826" stroke-width="2.00735"/>
<path d="M164.421 159.35L155.181 174.218" stroke="#121826" stroke-width="2.00735"/>
<path d="M174.04 139.103C178.787 142.646 185.559 141.697 189.103 136.952C189.925 135.876 190.495 134.611 190.875 133.282" stroke="#121826" stroke-width="2.00735" stroke-linecap="round" stroke-linejoin="round"/>
<path d="M187.9 79.7547C182.521 79.2485 177.648 74.8195 175.622 69.8844C183.09 69.2517 187.52 73.8705 187.9 79.7547Z" fill="#6A320F"/>
<path d="M52.9715 188.265L72.2109 191.934L74.2361 187.126H53.5411L52.9715 188.265Z" fill="#121826"/>
<path d="M111.512 59.6977L100.753 56.028" stroke="#121826" stroke-width="0.632874" stroke-linecap="round" stroke-linejoin="round"/>
<path d="M107.399 62.6082L98.6017 59.6345" stroke="#121826" stroke-width="0.632874" stroke-linecap="round" stroke-linejoin="round"/>
<path d="M105.12 65.8983L98.0321 63.494" stroke="#121826" stroke-width="0.632874" stroke-linecap="round" stroke-linejoin="round"/>
<path d="M184.857 46.3271H327C320.798 38.1019 313.393 31.142 303.394 28.8643C300.609 28.2316 297.698 27.8519 294.913 28.5479C292.129 29.2439 289.597 31.2686 288.901 34.0525C278.205 17.8551 259.915 6.97246 240.866 3.68236C235.423 2.73329 229.537 2.48021 224.601 4.88451C219.728 7.35209 216.374 12.0342 215.678 17.4122C215.045 22.7902 217.133 28.1683 221.247 31.7747C218.715 25.8905 209.792 23.1699 205.172 27.6621C202.007 30.7624 201.248 35.5077 198.906 39.2407C195.932 43.8595 190.299 46.3271 184.857 46.3271Z" fill="#FFEED4"/>
<rect x="216.569" y="225.848" width="49.6173" height="29.4211" fill="#8EE04E"/>
<path d="M80.6281 256.724C81.7673 256.408 82.9064 255.965 83.919 255.332C82.9064 254.699 81.7673 254.193 80.6281 253.94C79.4256 253.624 78.5396 252.675 78.2232 251.536C77.9067 250.334 77.4637 249.258 76.8309 248.246C76.198 249.258 75.6917 250.397 75.4385 251.536C75.1221 252.738 74.1728 253.624 73.0336 253.94C71.8312 254.256 70.7553 254.699 69.7427 255.332C70.7553 255.965 71.8944 256.471 73.0336 256.724C74.2361 257.04 75.1221 257.989 75.4385 259.192C75.755 260.33 76.198 261.469 76.8309 262.482C77.4637 261.469 77.97 260.33 78.2232 259.192C78.4763 257.989 79.4256 257.04 80.6281 256.724Z" fill="white"/>
<path d="M307.703 203.07C309.855 202.501 311.943 201.615 313.842 200.476C311.943 199.274 309.855 198.388 307.703 197.882C305.488 197.312 303.779 195.604 303.21 193.39C302.64 191.238 301.754 189.15 300.615 187.252C299.413 189.15 298.527 191.238 298.02 193.39C297.451 195.604 295.742 197.312 293.527 197.882C291.375 198.451 289.287 199.337 287.388 200.476C289.287 201.678 291.375 202.564 293.527 203.07C295.742 203.64 297.451 205.348 298.02 207.562C298.59 209.714 299.476 211.802 300.615 213.7C301.817 211.802 302.703 209.714 303.21 207.562C303.779 205.348 305.488 203.64 307.703 203.07Z" fill="#8EE04E"/>
<path d="M17.1509 149.353L17.9103 132.902L4.11368 141.697L0 134.674L14.5561 127.208L0 119.742L4.11368 112.719L17.9103 121.703L17.1509 105.253H25.2517L24.4922 121.703L38.3521 112.656L42.4658 119.679L27.7832 127.145L42.4658 134.611L38.3521 141.697L24.5555 132.902L25.3149 149.353H17.1509V149.353Z" fill="#8EE04E"/>
<path d="M123.6 82.6019H119.613L127.714 59.3814H131.764L123.6 82.6019Z" fill="white"/>
<path fill-rule="evenodd" clip-rule="evenodd" d="M111.829 65.0758C111.829 62.3551 114.044 60.1406 116.765 60.1406C119.487 60.1406 121.702 62.3551 121.702 65.0758C121.702 67.7964 119.487 70.0109 116.765 70.0109C114.044 70.0109 111.829 67.7964 111.829 65.0758ZM114.803 65.0758C114.803 66.1514 115.689 67.0372 116.765 67.0372C117.841 67.0372 118.79 66.1514 118.727 65.0758C118.727 64.0002 117.841 63.1144 116.765 63.1144C115.689 63.1144 114.803 64.0002 114.803 65.0758Z" fill="white"/>
<path fill-rule="evenodd" clip-rule="evenodd" d="M129.676 77.73C129.676 75.0094 131.891 72.7949 134.612 72.7949C137.27 72.7949 139.485 74.9461 139.549 77.73C139.549 80.4507 137.334 82.6652 134.612 82.6652C131.891 82.6652 129.676 80.4507 129.676 77.73ZM132.65 77.73C132.65 78.8056 133.536 79.6914 134.612 79.6914C135.688 79.6914 136.574 78.8056 136.574 77.73C136.574 76.6544 135.688 75.7686 134.612 75.7686C133.536 75.7686 132.65 76.6544 132.65 77.73Z" fill="white"/>
<path d="M125.61 347.055L156.218 306.814L157.427 307.733L126.819 347.974L125.61 347.055Z" fill="#FF7A28"/>
<path d="M129.296 299.369L148.915 293.738L147.839 289.562L129.043 298.23L129.296 299.369Z" fill="#121826"/>
<ellipse cx="59.3636" cy="270.96" rx="1.58218" ry="1.58178" fill="white"/>
<ellipse cx="311.729" cy="107.394" rx="2.40492" ry="2.4043" fill="#8EE04E"/>
<path d="M127.334 173.776L155.181 174.218L133.789 182.317L127.334 173.776Z" fill="#121826"/>
<rect x="162.016" y="264.696" width="83.7292" height="48.3391" fill="white" stroke="#FF7A28" stroke-width="2.00735"/>
<rect x="159.801" y="262.482" width="87.7796" height="9.99684" fill="#FECE80" stroke="#FF7A28" stroke-width="2.00735"/>
<path opacity="0.1" d="M162.016 274.63L245.745 277.793V272.479H162.016V274.63Z" fill="#FF7A28"/>
<path d="M211.696 272.479C211.696 276.908 208.152 280.451 203.722 280.451C199.355 280.451 195.748 276.908 195.748 272.479" fill="#FF7A28"/>
<path d="M61.895 211.865L34.1119 219.774L35.5675 211.865H61.895Z" fill="#121826"/>
<path d="M258.592 151.947C258.276 144.165 265.301 136.889 273.085 136.952C280.869 137.015 287.768 144.418 287.325 152.2C287.072 156.439 283.97 160.995 279.73 160.742C275.617 160.489 273.148 155.743 273.085 151.631C272.958 141.887 283.274 133.535 292.767 135.56" stroke="#121826" stroke-width="2.00735" stroke-linecap="round" stroke-linejoin="round"/>
<path d="M172.901 76.9075C170.686 75.7053 168.028 76.1482 166.319 78.0464C168.598 77.6035 170.686 77.3504 172.901 76.9075Z" fill="#6A320F"/>
<path d="M183.407 78.4893C181.698 76.5911 179.04 76.1482 176.825 77.3504C179.103 77.6035 181.128 78.1096 183.407 78.4893Z" fill="#6A320F"/>
<path d="M186.508 161.754C186.508 161.754 184.166 172.573 195.431 178.078" stroke="#121826" stroke-width="2.00735" stroke-linecap="round" stroke-linejoin="round"/>
<path d="M138.979 292.219L137.903 288.549" stroke="#6C727F" stroke-width="0.632874" stroke-linecap="round" stroke-linejoin="round"/>
<path d="M135.751 281.02L116.196 213.51C115.056 209.46 117.145 205.221 121.005 203.703L172.458 183.393" stroke="#121826" stroke-width="2.00735" stroke-linecap="round" stroke-linejoin="round" stroke-dasharray="7.86 7.86"/>
<path d="M146.131 166.816L105.057 120.754C102.969 118.413 99.1713 118.856 97.7157 121.64L66.6416 180.609" stroke="#121826" stroke-width="2.00735" stroke-linecap="round" stroke-linejoin="round" stroke-dasharray="7.59"/>
</svg>
