<svg width="351" height="328" viewBox="0 0 351 328" fill="none" xmlns="http://www.w3.org/2000/svg">
<path d="M382.259 284.088H64.9529C60.2462 284.088 56.4084 280.253 56.4084 275.549V9.61132C56.4084 4.90766 60.2462 1 64.9529 1H318.465" stroke="#FFE0A9" stroke-width="2"/>
<ellipse cx="83.1282" cy="23.071" rx="3.33092" ry="3.32875" stroke="#FFE0A9" stroke-width="2"/>
<ellipse cx="103.693" cy="23.071" rx="3.33092" ry="3.32875" stroke="#FFE0A9" stroke-width="2"/>
<ellipse cx="124.258" cy="23.071" rx="3.33092" ry="3.32875" stroke="#FFE0A9" stroke-width="2"/>
<path d="M108.4 54.3323H155.612C165.605 54.3323 173.787 62.4371 173.787 72.4957V113.816C173.787 123.802 165.677 131.979 155.612 131.979H108.4C98.407 131.979 90.2245 123.874 90.2245 113.816V72.4957C90.2245 62.5094 98.3346 54.3323 108.4 54.3323Z" fill="#6A320F"/>
<ellipse cx="130.557" cy="85.5157" rx="17.441" ry="17.4501" transform="rotate(-71.5669 130.557 85.5157)" fill="#FECE80"/>
<path d="M102.39 120.111H127.371" stroke="white" stroke-width="2"/>
<path d="M102.39 111.572H145.836" stroke="white" stroke-width="2"/>
<path d="M150.109 63.9567H163.143" stroke="white" stroke-width="2"/>
<path d="M222.085 54.3323H269.298C279.29 54.3323 287.4 62.4371 287.4 72.4957V113.816C287.4 123.802 279.29 131.979 269.298 131.979H222.085C212.093 131.979 203.983 123.874 203.983 113.816V72.4957C203.91 62.5094 212.093 54.3323 222.085 54.3323Z" fill="#6A320F"/>
<ellipse cx="244.316" cy="85.5212" rx="17.3787" ry="17.3674" fill="#FECE80"/>
<path d="M216.075 120.111H241.13" stroke="white" stroke-width="2"/>
<path d="M216.075 111.572H259.522" stroke="white" stroke-width="2"/>
<path d="M263.867 63.9567H276.901" stroke="white" stroke-width="2"/>
<path d="M334.685 54.3323H381.897C391.89 54.3323 400 62.4371 400 72.4957V113.816C400 123.802 391.89 131.979 381.897 131.979H334.685C324.692 131.979 316.582 123.874 316.582 113.816V72.4957C316.582 62.5094 324.692 54.3323 334.685 54.3323Z" fill="#6A320F"/>
<ellipse cx="356.915" cy="85.5212" rx="17.3787" ry="17.3674" fill="#FECE80"/>
<path d="M328.747 120.111H353.729" stroke="white" stroke-width="2"/>
<path d="M328.747 111.572H372.194" stroke="white" stroke-width="2"/>
<path d="M14.3374 86.5343L14.9891 72.7851L3.40333 80.1663L0 74.3048L12.1651 68.0815L0 61.7858L3.40333 55.9243L14.9167 63.3778L14.265 49.6286H20.9993L20.3476 63.3778L31.861 55.9243L35.2643 61.7858L23.1716 68.0815L35.4091 74.3048L31.9334 80.1663L20.42 72.8575L21.0717 86.6067L14.3374 86.5343Z" fill="#FF7A28"/>
<path d="M364.808 227.789L365.46 214.04L353.874 221.421L350.471 215.487L362.636 209.264L350.471 202.968L353.874 197.107L365.387 204.56L364.736 190.811H371.47L370.818 204.56L382.332 197.107L385.735 202.968L373.642 209.264L385.88 215.487L382.404 221.349L370.891 214.04L371.542 227.789H364.808Z" fill="white"/>
<path d="M225.561 194.936L234.757 203.764L249.964 178.798L252.571 201.087L264.446 188.857L265.749 205.356L283.418 202.317" stroke="#FFE0A9" stroke-width="2"/>
<path d="M89.4279 120.184C93.9174 122.572 97.9725 125.539 101.593 129.157C103.403 130.966 105.214 133.281 104.924 135.814C104.634 138.347 102.317 140.156 99.7104 139.867C98.8414 139.794 97.9725 139.36 97.3208 138.853" fill="#6A320F"/>
<path d="M75.2353 138.13C76.3939 136.393 76.6111 134.295 75.9594 132.341C75.5974 131.111 74.7285 130.025 73.5699 129.446C72.1941 128.867 70.6734 128.94 69.37 129.591C65.8943 131.183 64.3736 135.308 65.9667 138.781C67.5597 142.255 71.6872 143.774 75.1629 142.182" fill="white"/>
<path d="M133.02 218.743C133.02 208.323 141.492 199.929 151.846 199.929C162.274 199.929 170.673 208.395 170.673 218.743" stroke="#FFE0A9" stroke-width="2"/>
<rect x="128.53" y="219.178" width="95.0036" height="84.4488" fill="white" stroke="#FF7A28" stroke-width="2"/>
<rect x="146.343" y="226.125" width="21.2165" height="18.091" fill="#FF7A28"/>
<path d="M99.8552 131.907V142.544L101.81 144.353C102.1 144.57 102.1 145.004 101.883 145.294C101.81 145.366 101.738 145.439 101.665 145.439L98.1897 146.958C98.1897 146.958 96.5242 158.392 92.3244 157.958C89.79 157.668 87.4004 156.51 85.5901 154.701L80.5938 169.608L84.866 173.371C86.3867 174.674 87.4728 176.338 88.0521 178.22L89.5003 182.851L80.2317 188.206L56.9877 179.377L51.1948 169.102L62.5633 155.859L72.2665 140.952L77.7697 125.032L95.4381 126.262L99.8552 131.907Z" fill="white"/>
<path fill-rule="evenodd" clip-rule="evenodd" d="M99.7828 290.746C99.7828 290.746 128.023 295.956 130.196 300.949C132.368 305.942 131.137 311.659 114.989 315.422C98.8414 319.185 80.0869 312.817 74.8733 310.646C74.8733 310.718 86.0246 289.298 99.7828 290.746Z" fill="#121826"/>
<path d="M65.8219 148.912C67.4149 148.912 68.2114 147.61 69.1528 146.162L72.2665 140.952C72.2665 140.952 66.4012 140.228 66.8356 136.61C67.2701 132.992 71.7596 129.012 74.2216 132.485C75.2353 133.933 74.7285 138.636 76.3215 137.768C77.9146 136.9 77.6973 134.873 79.7248 134.801C81.7524 134.729 84.9385 138.419 87.6177 137.261C90.2969 136.104 94.7864 129.736 98.1173 130.532C99.8552 130.966 99.9276 133.788 99.9276 133.788C99.9276 133.788 101.81 131.979 99.5655 128.94C97.3208 125.9 90.2245 115.552 75.0905 118.23C71.9768 118.809 69.4424 120.835 67.4149 123.151C66.2563 124.598 65.3874 126.262 65.0253 128.071C64.5185 130.315 63.4323 132.413 61.7668 134.005C59.9566 135.959 57.8566 138.057 57.8566 140.735C57.8566 143.195 59.7393 145.294 61.6944 146.886C62.5634 147.754 63.6495 148.333 64.8081 148.695C65.0978 148.912 65.4598 148.912 65.8219 148.912Z" fill="#6A320F"/>
<path d="M128.53 188.133C128.53 188.133 142.65 172.43 150.615 191.679C151.195 193.127 151.919 198.192 152.426 202.244C152.788 204.56 153.295 206.803 153.874 209.047C153.874 211.073 150.109 210.422 148.588 204.922C147.936 202.896 147.212 200.869 146.343 198.916L132.295 215.921" fill="white"/>
<path d="M26.937 236.4C26.937 236.4 0.36204 271.642 17.3787 297.693C34.3953 323.744 72.4113 316.869 97.1035 301.673C121.796 286.476 137.292 267.661 139.102 254.925C140.912 242.189 123.244 228.513 75.3801 263.247L64.2288 239.005" fill="#6A320F"/>
<path d="M89.428 182.923L92.252 223.447L131.282 185.239L132.585 221.276L92.6865 250.366C79.218 260.57 73.1354 236.907 73.1354 236.907C73.1354 236.907 70.6735 243.492 67.4149 243.202C55.8291 243.058 28.8921 244.216 24.113 230.901C23.0992 228.006 23.0268 224.967 23.2441 221.927C23.3889 218.96 23.8233 216.066 24.475 213.171C26.7922 202.968 50.6879 168.016 51.7017 168.45C52.7155 169.029 89.428 182.923 89.428 182.923Z" fill="#8EE04E"/>
<rect x="189.645" y="219.178" width="33.9609" height="84.4488" fill="#FFE0A9" stroke="#FF7A28" stroke-width="2"/>
<path opacity="0.4" d="M85.6626 155.063L78.5663 148.406C80.0869 152.747 81.5351 158.03 83.0558 162.444" fill="#FF7A28"/>
<path d="M142.216 203.909L148.298 196.093" stroke="#121826" stroke-width="1.06667"/>
<path d="M70.601 134.077L72.7009 137.913" stroke="#121826" stroke-width="0.8"/>
<path d="M248.878 250.873H214.917L189.645 219.178H223.606L248.878 250.873Z" fill="#6A320F"/>
<rect x="224.258" y="242.551" width="95.0036" height="84.4488" fill="white" stroke="#FF7A28" stroke-width="2"/>
<rect x="242.071" y="249.498" width="21.2165" height="18.091" fill="#FF7A28"/>
<rect x="285.373" y="242.551" width="33.9609" height="84.4488" fill="#FFE0A9" stroke="#FF7A28" stroke-width="2"/>
<path d="M32.1506 107.882C28.168 114.25 28.4576 122.427 32.8023 128.578C42.7227 142.038 66.9804 134.729 66.7632 117.578C66.546 100.139 41.4193 93.4812 32.1506 107.882Z" fill="#6A320F"/>
<path d="M151.122 196.383C154.96 201.376 156.77 202.896 158.363 203.257C159.232 203.33 160.101 203.04 160.753 202.461L156.264 196.745L148.805 187.193" fill="white"/>
<path d="M148.878 187.193L152.426 203.764L153.584 208.468" stroke="#121826" stroke-width="1.06667"/>
<path d="M80.2317 169.463C80.2317 169.463 75.4526 166.858 71.1079 167.944" stroke="#121826" stroke-width="0.8"/>
<path d="M75.525 263.103L52.3534 279.891" stroke="white" stroke-width="1.06667"/>
<path d="M73.1354 236.907L66.7632 195.225" stroke="#121826" stroke-width="1.65791"/>
</svg>
